<svg width="25" height="24" viewBox="0 0 25 24" fill="none" xmlns="http://www.w3.org/2000/svg">
<path d="M15.6667 21C17.2667 16.096 19.0347 14.3267 23.6667 13C19.0347 11.6733 17.2667 9.904 15.6667 5C14.0667 9.904 12.2987 11.6733 7.66667 13C12.2987 14.3267 14.0667 16.096 15.6667 21ZM5 9C5.8 6.54667 6.684 5.66267 9 5C6.684 4.33733 5.8 3.45333 5 1C4.2 3.45333 3.316 4.33733 1 5C3.316 5.66267 4.2 6.54667 5 9ZM7 22.3333C7.4 21.1067 7.84133 20.6653 9 20.3333C7.84133 20.0013 7.4 19.56 7 18.3333C6.6 19.56 6.15867 20.0013 5 20.3333C6.15867 20.6653 6.6 21.1067 7 22.3333Z" stroke="#40DF40" stroke-width="2" stroke-linejoin="round"/>
</svg>
