<svg width="28" height="28" viewBox="0 0 28 28" fill="none" xmlns="http://www.w3.org/2000/svg">
<path d="M23.7594 15.8802H18.5927C17.9078 15.8795 17.2506 16.1504 16.7652 16.6336C16.2798 17.1167 16.0058 17.7727 16.0034 18.4575V23.6242C16.003 23.9643 16.0698 24.3012 16.1998 24.6155C16.3298 24.9298 16.5205 25.2154 16.761 25.4559C17.0015 25.6964 17.2871 25.8872 17.6014 26.0172C17.9157 26.1472 18.2526 26.2139 18.5927 26.2135H23.7594C24.444 26.2107 25.0996 25.9366 25.5825 25.4512C26.0653 24.9659 26.3361 24.3089 26.3354 23.6242V18.4575C26.3357 18.1192 26.2693 17.784 26.14 17.4713C26.0107 17.1586 25.8209 16.8745 25.5817 16.6353C25.3424 16.396 25.0583 16.2062 24.7456 16.0769C24.4329 15.9476 24.0978 15.8812 23.7594 15.8815M9.41137 15.8802H4.2447C3.56016 15.8841 2.90498 16.1587 2.4223 16.6442C1.93962 17.1296 1.66869 17.7863 1.6687 18.4709V23.6375C1.66835 23.9759 1.73474 24.3111 1.86407 24.6238C1.99341 24.9364 2.18314 25.2206 2.42241 25.4598C2.66169 25.6991 2.9458 25.8888 3.2585 26.0182C3.57119 26.1475 3.90632 26.2139 4.2447 26.2135H9.41137C10.096 26.2143 10.753 25.9435 11.2384 25.4606C11.7237 24.9778 11.9979 24.3222 12.0007 23.6375V18.4709C12.0011 18.1307 11.9343 17.7939 11.8043 17.4796C11.6743 17.1653 11.4836 16.8797 11.2431 16.6392C11.0026 16.3986 10.717 16.2079 10.4027 16.0779C10.0884 15.9479 9.7515 15.8812 9.41137 15.8815M9.41137 1.54688H4.2447C3.90632 1.54653 3.57119 1.61292 3.2585 1.74225C2.9458 1.87158 2.66169 2.06131 2.42241 2.30059C2.18314 2.53986 1.99341 2.82398 1.86407 3.13667C1.73474 3.44936 1.66835 3.78449 1.6687 4.12288V9.28954C1.66799 9.97419 1.93874 10.6312 2.4216 11.1166C2.90447 11.6019 3.56006 11.8761 4.2447 11.8789H9.41137C9.7515 11.8792 10.0884 11.8125 10.4027 11.6825C10.717 11.5525 11.0026 11.3618 11.2431 11.1213C11.4836 10.8807 11.6743 10.5952 11.8043 10.2809C11.9343 9.96654 12.0011 9.62968 12.0007 9.28954V4.12288C11.9979 3.43824 11.7237 2.78264 11.2384 2.29978C10.753 1.81691 10.096 1.54616 9.41137 1.54688ZM23.7594 1.54688H18.5927C17.9081 1.54616 17.2511 1.81691 16.7657 2.29978C16.2803 2.78264 16.0062 3.43824 16.0034 4.12288V9.28954C16.0037 9.97617 16.2766 10.6346 16.7622 11.1201C17.2477 11.6056 17.9061 11.8785 18.5927 11.8789H23.7594C24.444 11.8761 25.0996 11.6019 25.5825 11.1166C26.0653 10.6312 26.3361 9.97419 26.3354 9.28954V4.12288C26.3357 3.78449 26.2693 3.44936 26.14 3.13667C26.0107 2.82398 25.8209 2.53986 25.5817 2.30059C25.3424 2.06131 25.0583 1.87158 24.7456 1.74225C24.4329 1.61292 24.0978 1.54653 23.7594 1.54688Z" stroke="#40DF40" stroke-width="2" stroke-linecap="round" stroke-linejoin="round"/>
</svg>
