<svg width="129" height="31" viewBox="0 0 129 31" fill="none" xmlns="http://www.w3.org/2000/svg">
<g clip-path="url(#clip0_408_11321)">
<path d="M76.3671 12.2317C78.3582 12.2317 80.2437 13.4498 80.6416 16.0816H71.7742C72.1453 13.7722 73.8717 12.2317 76.3671 12.2317ZM80.3582 19.9752C79.681 21.0309 78.372 21.8429 76.5798 21.8429C74.1104 21.8429 72.2249 20.4893 71.7742 18.0995H82.899C82.9526 17.7569 82.9794 17.4108 82.9802 17.0641C82.9802 13.3475 80.3817 10.0547 76.3687 10.0547C72.2273 10.0547 69.4128 13.1079 69.4128 17.0381C69.4128 21.0171 72.2549 24.0216 76.5278 24.0216C79.1832 24.0216 81.2011 22.8263 82.3688 21.0171L80.3582 19.9752Z" fill="#006BFF"/>
<path fill-rule="evenodd" clip-rule="evenodd" d="M66.0017 4.28906H68.3111V23.6714H66.0017V4.28906Z" fill="#006BFF"/>
<path d="M95.8345 15.5229V23.6732H93.5243V15.6553C93.5243 13.4782 92.277 12.2569 90.2323 12.2569C88.108 12.2569 86.3825 13.505 86.3825 16.6378V23.6732H84.0723V10.3998H86.3825V12.3113C87.365 10.7449 88.8251 10.0547 90.6862 10.0547C93.7923 10.0547 95.8369 12.1254 95.8369 15.5245" fill="#006BFF"/>
<path d="M108.57 17.033C108.57 14.3249 106.525 12.2802 103.844 12.2802C101.189 12.2802 99.1449 14.3249 99.1449 17.033C99.1449 19.7412 101.189 21.7859 103.844 21.7859C106.524 21.7859 108.57 19.7412 108.57 17.033ZM110.88 4.28906V23.6714H108.57V21.3871C107.508 23.0112 105.809 24.0165 103.552 24.0165C99.8611 24.0165 96.8347 20.9625 96.8347 17.033C96.8347 13.1036 99.8611 10.0496 103.552 10.0496C105.808 10.0496 107.508 11.0581 108.57 12.6781V4.28906H110.88Z" fill="#006BFF"/>
<path fill-rule="evenodd" clip-rule="evenodd" d="M112.734 4.28906H115.043V23.6714H112.734V4.28906Z" fill="#006BFF"/>
<path d="M61.8844 17.0352C61.8844 14.3271 59.8405 12.2824 57.1584 12.2824C54.5038 12.2824 52.4591 14.3271 52.4591 17.0352C52.4591 19.7433 54.5038 21.788 57.1584 21.788C59.8381 21.788 61.8844 19.7433 61.8844 17.0352ZM64.1946 10.3993V23.6727H61.8844V21.3893C60.8222 23.0134 59.1235 24.0187 56.8668 24.0187C53.1762 24.0187 50.1489 20.9646 50.1489 17.0352C50.1489 13.1058 53.1762 10.0518 56.8668 10.0518C59.1235 10.0518 60.8222 11.0603 61.8844 12.6803V10.3993H64.1946Z" fill="#006BFF"/>
<path d="M46.7325 21.1189C45.9357 21.413 45.0931 21.5634 44.2438 21.5634C40.3001 21.5634 37.0549 18.3182 37.0549 14.3745C37.0549 10.4308 40.3001 7.18564 44.2438 7.18564C45.9097 7.18564 47.5249 7.7647 48.8113 8.82318C49.2171 9.15806 49.5843 9.5372 49.9059 9.95352L51.9043 8.49187C50.0746 6.10004 47.2296 4.69434 44.2182 4.69434C38.9097 4.69434 34.5413 9.06265 34.5413 14.3713C34.5413 19.6799 38.9097 24.0482 44.2182 24.0482C46.3616 24.0482 48.4455 23.3361 50.1406 22.0243L48.8105 19.9212C48.1891 20.433 47.4868 20.8378 46.7325 21.1189Z" fill="#006BFF"/>
<path d="M126.195 10.3936V17.9276C126.195 20.3636 124.779 21.9065 122.615 21.9065C120.452 21.9065 118.886 20.3636 118.886 17.9276V10.3936H116.549V17.7018C116.549 21.5313 118.935 24.0178 122.615 24.0178C125.798 24.0178 126.295 22.0039 126.295 21.9536V24.6642C126.295 27.3495 125.127 28.8664 122.69 28.8664C120.898 28.8753 119.36 27.5401 119.117 25.7645L117.028 26.4953C117.642 29.1171 120.001 30.9851 122.694 30.9801C126.473 30.9801 128.541 28.4929 128.541 24.6642V10.3936H126.195Z" fill="#006BFF"/>
<path d="M18.9719 18.1351C18.0844 18.9227 16.9759 19.9028 14.9662 19.9028H13.7644C12.31 19.9028 10.9872 19.3742 10.0404 18.416C9.11549 17.4797 8.60635 16.1984 8.60635 14.8074V13.163C8.60635 11.772 9.11549 10.4906 10.0404 9.55434C10.9872 8.59614 12.31 8.06833 13.7644 8.06833H14.9662C16.9784 8.06833 18.0844 9.04763 18.9719 9.8353C19.8936 10.6473 20.6885 11.357 22.8087 11.357C23.1321 11.357 23.4549 11.3311 23.7742 11.2799L23.7669 11.2612C23.6399 10.9458 23.491 10.6398 23.3211 10.3453L21.9041 7.89049C20.6052 5.64101 18.1971 4.2509 15.5995 4.25098H12.7647C10.1672 4.2509 7.75907 5.64101 6.46015 7.89049L5.04316 10.3453C3.74473 12.595 3.74473 15.3754 5.04316 17.6251L6.46015 20.0799C7.75907 22.3293 10.1672 23.7195 12.7647 23.7194H15.5995C18.1971 23.7195 20.6052 22.3293 21.9041 20.0799L23.3211 17.6292C23.491 17.3346 23.6399 17.0286 23.7669 16.7132L23.7742 16.6953C23.4551 16.6423 23.1322 16.6152 22.8087 16.6141C20.6885 16.6141 19.8936 17.3198 18.9719 18.1359" fill="#006BFF"/>
<path d="M14.9708 9.55078H13.769C11.5554 9.55078 10.1011 11.1318 10.1011 13.1554V14.7997C10.1011 16.8233 11.5554 18.4043 13.769 18.4043H14.9708C18.1962 18.4043 17.9428 15.1156 22.8134 15.1156C23.2749 15.1151 23.7354 15.1575 24.189 15.2423C24.3368 14.4057 24.3368 13.5495 24.189 12.7128C23.7353 12.7972 23.2749 12.8396 22.8134 12.8395C17.9412 12.8395 18.1962 9.55078 14.9708 9.55078Z" fill="#006BFF"/>
<path d="M26.9881 16.444C26.1587 15.8365 25.2021 15.4253 24.1907 15.2414V15.2657C24.1036 15.7506 23.9675 16.2253 23.7846 16.6827C24.6201 16.8121 25.413 17.1387 26.0973 17.6352C26.0973 17.6417 26.0932 17.6499 26.0908 17.6572C24.4813 22.8689 19.6304 26.4478 14.1757 26.4478C7.33471 26.4478 1.7054 20.8185 1.7054 13.9775C1.7054 7.13644 7.33471 1.50713 14.1757 1.50713C19.6304 1.50713 24.4813 5.08598 26.0908 10.2977C26.0908 10.3051 26.0949 10.3132 26.0973 10.3197C25.4131 10.8163 24.6202 11.1426 23.7846 11.2714C23.9673 11.7294 24.1034 12.2046 24.1907 12.69C24.1902 12.6975 24.1902 12.7052 24.1907 12.7127C25.202 12.5291 26.1587 12.1182 26.9881 11.5109C27.7855 10.9206 27.6312 10.2539 27.5102 9.85925C25.7082 4.01451 20.2694 0 14.1532 0C6.48541 0 0.175781 6.30963 0.175781 13.9775C0.175781 21.6453 6.48541 27.9549 14.1532 27.9549C20.2694 27.9549 25.7082 23.9404 27.5102 18.0957C27.6312 17.701 27.7855 17.0343 26.9881 16.444Z" fill="#006BFF"/>
<path fill-rule="evenodd" clip-rule="evenodd" d="M23.7695 11.2699C23.4503 11.3229 23.1275 11.35 22.804 11.3511C20.6837 11.3511 19.8888 10.6454 18.9679 9.82931C18.0796 9.04164 16.9736 8.06152 14.9614 8.06152H13.7596C12.3044 8.06152 10.9824 8.59015 10.0356 9.54835C9.1107 10.4846 8.60156 11.766 8.60156 13.157V14.8014C8.60156 16.1924 9.1107 17.4738 10.0356 18.41C10.9824 19.3682 12.3044 19.896 13.7596 19.896H14.9614C16.9736 19.896 18.0796 18.9167 18.9679 18.1291C19.8888 17.317 20.6837 16.6073 22.804 16.6073C23.1273 16.6074 23.4502 16.6332 23.7695 16.6845C23.9527 16.2272 24.0887 15.7524 24.1755 15.2675C24.176 15.2593 24.176 15.2512 24.1755 15.2431C23.7218 15.159 23.2613 15.1168 22.7999 15.1172C17.9277 15.1172 18.1827 18.4068 14.9573 18.4068H13.7555C11.5419 18.4068 10.0876 16.8249 10.0876 14.8014V13.1538C10.0876 11.1302 11.5419 9.54916 13.7555 9.54916H14.9573C18.1827 9.54916 17.9293 12.8371 22.7999 12.8371C23.2614 12.8379 23.7219 12.7957 24.1755 12.7112V12.6885C24.0882 12.2031 23.9522 11.7278 23.7695 11.2699Z" fill="#0AE8F0"/>
<path fill-rule="evenodd" clip-rule="evenodd" d="M23.7695 11.2699C23.4503 11.3229 23.1275 11.35 22.804 11.3511C20.6837 11.3511 19.8888 10.6454 18.9679 9.82931C18.0796 9.04164 16.9736 8.06152 14.9614 8.06152H13.7596C12.3044 8.06152 10.9824 8.59015 10.0356 9.54835C9.1107 10.4846 8.60156 11.766 8.60156 13.157V14.8014C8.60156 16.1924 9.1107 17.4738 10.0356 18.41C10.9824 19.3682 12.3044 19.896 13.7596 19.896H14.9614C16.9736 19.896 18.0796 18.9167 18.9679 18.1291C19.8888 17.317 20.6837 16.6073 22.804 16.6073C23.1273 16.6074 23.4502 16.6332 23.7695 16.6845C23.9527 16.2272 24.0887 15.7524 24.1755 15.2675C24.176 15.2593 24.176 15.2512 24.1755 15.2431C23.7218 15.159 23.2613 15.1168 22.7999 15.1172C17.9277 15.1172 18.1827 18.4068 14.9573 18.4068H13.7555C11.5419 18.4068 10.0876 16.8249 10.0876 14.8014V13.1538C10.0876 11.1302 11.5419 9.54916 13.7555 9.54916H14.9573C18.1827 9.54916 17.9293 12.8371 22.7999 12.8371C23.2614 12.8379 23.7219 12.7957 24.1755 12.7112V12.6885C24.0882 12.2031 23.9522 11.7278 23.7695 11.2699Z" fill="#0AE8F0"/>
</g>
<defs>
<clipPath id="clip0_408_11321">
<rect width="128.378" height="30.981" fill="white" transform="translate(0.16748)"/>
</clipPath>
</defs>
</svg>
