<svg width="30" height="30" viewBox="0 0 30 30" fill="none" xmlns="http://www.w3.org/2000/svg">
<path d="M15 5V1M20.3333 7V3M9.66667 7V3M1.26533 25.8067C1.42933 27.47 2.77067 28.6653 4.44067 28.7567C6.588 28.8747 10.0413 29 15 29C19.9587 29 23.412 28.8747 25.56 28.7567C27.2293 28.6653 28.5707 27.47 28.7347 25.8067C28.876 24.374 29 22.3513 29 19.6667C29 16.982 28.876 14.9593 28.7347 13.5267C28.5707 11.8633 27.2293 10.668 25.5593 10.5767C23.412 10.4587 19.9587 10.3333 15 10.3333C10.0413 10.3333 6.588 10.4587 4.44 10.5767C2.77067 10.668 1.42933 11.8633 1.26533 13.5267C1.124 14.96 1 16.982 1 19.6667C1 22.3513 1.124 24.374 1.26533 25.8067Z" stroke="#40DF40" stroke-width="2" stroke-linecap="round" stroke-linejoin="round"/>
<path d="M17.6666 16.5237C17.6666 16.5237 16.5999 15.6663 14.9999 15.6663M14.9999 15.6663C13.6666 15.6663 12.3333 16.5237 12.3333 17.6663C12.3333 20.5237 17.6666 18.809 17.6666 21.6663C17.6666 22.809 16.3333 23.6663 14.9999 23.6663M14.9999 15.6663V14.333M14.9999 23.6663C13.3999 23.6663 12.3333 22.809 12.3333 22.809M14.9999 23.6663V24.9997M23.6666 19.6663H22.9999M6.33325 19.6663H6.99992" stroke="#40DF40" stroke-width="2" stroke-linecap="round" stroke-linejoin="round"/>
</svg>
