<svg width="283" height="41" viewBox="0 0 283 41" fill="none" xmlns="http://www.w3.org/2000/svg">
<path d="M86.3163 19.2458V26.0817C86.0964 26.4072 85.7181 26.7679 85.1814 27.1638C84.6448 27.5597 83.9233 27.9072 83.0171 28.2064C82.111 28.4967 80.9848 28.6419 79.6388 28.6419C78.5126 28.6419 77.4789 28.4395 76.5375 28.0348C75.5962 27.6301 74.778 27.0451 74.0829 26.2796C73.3967 25.5054 72.8644 24.5773 72.4861 23.4951C72.1166 22.413 71.9318 21.1989 71.9318 19.8528V17.5302C71.9318 16.2105 72.1034 15.0228 72.4465 13.967C72.7896 12.9025 73.2867 11.9919 73.9378 11.2353C74.5888 10.4787 75.3718 9.90242 76.2868 9.50652C77.2106 9.10182 78.2443 8.89947 79.388 8.89947C80.8133 8.89947 82.0142 9.14581 82.9908 9.63849C83.9673 10.1312 84.7283 10.8086 85.2738 11.6708C85.8281 12.5242 86.1712 13.4919 86.3032 14.5741H84.6799C84.5568 13.8087 84.3016 13.1048 83.9145 12.4626C83.5274 11.8116 82.9644 11.2881 82.2253 10.8922C81.4951 10.4963 80.5493 10.2983 79.388 10.2983C78.4555 10.2983 77.6241 10.4699 76.8938 10.813C76.1724 11.1561 75.5654 11.6444 75.0727 12.2778C74.58 12.9113 74.2061 13.6723 73.951 14.5609C73.6958 15.4407 73.5682 16.4216 73.5682 17.5038V19.8528C73.5682 20.9789 73.709 21.9951 73.9905 22.9013C74.2809 23.8074 74.6944 24.5861 75.231 25.2371C75.7677 25.8881 76.41 26.3896 77.1578 26.7415C77.9056 27.0846 78.737 27.2562 79.652 27.2562C80.6285 27.2562 81.4599 27.1638 82.1462 26.9791C82.8324 26.7943 83.3823 26.5744 83.7958 26.3192C84.2181 26.0553 84.5216 25.809 84.7063 25.5802V20.6314H79.5464V19.2458H86.3163ZM91.0725 21.4628V21.0273C91.0725 19.9892 91.222 19.0302 91.5212 18.1504C91.8203 17.2706 92.247 16.5096 92.8012 15.8674C93.3643 15.2251 94.0373 14.728 94.8204 14.3761C95.6034 14.0154 96.4744 13.8351 97.4333 13.8351C98.4011 13.8351 99.2765 14.0154 100.059 14.3761C100.842 14.728 101.516 15.2251 102.079 15.8674C102.642 16.5096 103.073 17.2706 103.372 18.1504C103.671 19.0302 103.821 19.9892 103.821 21.0273V21.4628C103.821 22.501 103.671 23.4599 103.372 24.3397C103.073 25.2107 102.642 25.9673 102.079 26.6096C101.524 27.2518 100.856 27.7533 100.073 28.114C99.2897 28.4659 98.4187 28.6419 97.4597 28.6419C96.492 28.6419 95.6166 28.4659 94.8336 28.114C94.0505 27.7533 93.3775 27.2518 92.8144 26.6096C92.2514 25.9673 91.8203 25.2107 91.5212 24.3397C91.222 23.4599 91.0725 22.501 91.0725 21.4628ZM92.6429 21.0273V21.4628C92.6429 22.2458 92.7485 22.9892 92.9596 23.6931C93.1708 24.3881 93.4787 25.0083 93.8834 25.5538C94.2881 26.0905 94.7896 26.5128 95.3878 26.8207C95.9861 27.1286 96.6767 27.2826 97.4597 27.2826C98.2339 27.2826 98.9158 27.1286 99.5052 26.8207C100.103 26.5128 100.605 26.0905 101.01 25.5538C101.414 25.0083 101.718 24.3881 101.92 23.6931C102.131 22.9892 102.237 22.2458 102.237 21.4628V21.0273C102.237 20.2531 102.131 19.5185 101.92 18.8235C101.718 18.1284 101.41 17.5082 100.996 16.9627C100.592 16.4172 100.09 15.9861 99.492 15.6694C98.8938 15.3527 98.2075 15.1943 97.4333 15.1943C96.6591 15.1943 95.9729 15.3527 95.3746 15.6694C94.7852 15.9861 94.2837 16.4172 93.8702 16.9627C93.4655 17.5082 93.1576 18.1284 92.9464 18.8235C92.7441 19.5185 92.6429 20.2531 92.6429 21.0273ZM107.574 21.4628V21.0273C107.574 19.9892 107.723 19.0302 108.022 18.1504C108.322 17.2706 108.748 16.5096 109.303 15.8674C109.866 15.2251 110.539 14.728 111.322 14.3761C112.105 14.0154 112.976 13.8351 113.935 13.8351C114.902 13.8351 115.778 14.0154 116.561 14.3761C117.344 14.728 118.017 15.2251 118.58 15.8674C119.143 16.5096 119.574 17.2706 119.873 18.1504C120.172 19.0302 120.322 19.9892 120.322 21.0273V21.4628C120.322 22.501 120.172 23.4599 119.873 24.3397C119.574 25.2107 119.143 25.9673 118.58 26.6096C118.026 27.2518 117.357 27.7533 116.574 28.114C115.791 28.4659 114.92 28.6419 113.961 28.6419C112.993 28.6419 112.118 28.4659 111.335 28.114C110.552 27.7533 109.879 27.2518 109.316 26.6096C108.753 25.9673 108.322 25.2107 108.022 24.3397C107.723 23.4599 107.574 22.501 107.574 21.4628ZM109.144 21.0273V21.4628C109.144 22.2458 109.25 22.9892 109.461 23.6931C109.672 24.3881 109.98 25.0083 110.385 25.5538C110.789 26.0905 111.291 26.5128 111.889 26.8207C112.487 27.1286 113.178 27.2826 113.961 27.2826C114.735 27.2826 115.417 27.1286 116.006 26.8207C116.605 26.5128 117.106 26.0905 117.511 25.5538C117.916 25.0083 118.219 24.3881 118.421 23.6931C118.633 22.9892 118.738 22.2458 118.738 21.4628V21.0273C118.738 20.2531 118.633 19.5185 118.421 18.8235C118.219 18.1284 117.911 17.5082 117.498 16.9627C117.093 16.4172 116.592 15.9861 115.993 15.6694C115.395 15.3527 114.709 15.1943 113.935 15.1943C113.16 15.1943 112.474 15.3527 111.876 15.6694C111.286 15.9861 110.785 16.4172 110.371 16.9627C109.967 17.5082 109.659 18.1284 109.448 18.8235C109.245 19.5185 109.144 20.2531 109.144 21.0273ZM134.342 14.099H135.807V28.1272C135.807 29.3677 135.569 30.4322 135.094 31.3208C134.628 32.2094 133.964 32.8912 133.102 33.3663C132.248 33.8414 131.241 34.0789 130.08 34.0789C129.49 34.0789 128.883 33.9866 128.258 33.8018C127.643 33.6259 127.057 33.3531 126.503 32.9836C125.958 32.6229 125.491 32.1742 125.104 31.6375L125.989 30.6742C126.569 31.378 127.189 31.8927 127.849 32.2182C128.509 32.5525 129.222 32.7197 129.987 32.7197C130.893 32.7197 131.659 32.5393 132.283 32.1786C132.917 31.8179 133.396 31.2988 133.722 30.6214C134.056 29.9439 134.223 29.1301 134.223 28.18V17.2398L134.342 14.099ZM124.313 21.3836V21.1065C124.313 19.998 124.436 18.9994 124.682 18.1108C124.937 17.2134 125.302 16.448 125.777 15.8146C126.252 15.1723 126.829 14.6841 127.506 14.3497C128.192 14.0066 128.967 13.8351 129.829 13.8351C130.656 13.8351 131.39 13.9714 132.033 14.2442C132.675 14.5169 133.229 14.9084 133.695 15.4187C134.162 15.929 134.536 16.536 134.817 17.2398C135.108 17.9437 135.319 18.7267 135.451 19.5889V23.1124C135.345 23.9218 135.152 24.6652 134.87 25.3427C134.588 26.0113 134.215 26.5964 133.748 27.0978C133.282 27.5905 132.719 27.9732 132.059 28.246C131.408 28.5099 130.656 28.6419 129.802 28.6419C128.949 28.6419 128.184 28.4659 127.506 28.114C126.829 27.7621 126.252 27.265 125.777 26.6228C125.302 25.9717 124.937 25.2019 124.682 24.3133C124.436 23.4247 124.313 22.4482 124.313 21.3836ZM125.896 21.1065V21.3836C125.896 22.2194 125.98 22.9936 126.147 23.7063C126.314 24.4189 126.569 25.0391 126.912 25.567C127.255 26.0949 127.691 26.5084 128.219 26.8075C128.747 27.1066 129.367 27.2562 130.08 27.2562C130.986 27.2562 131.747 27.0846 132.363 26.7415C132.978 26.3896 133.467 25.9277 133.827 25.3559C134.188 24.7752 134.452 24.1418 134.619 23.4555V19.3513C134.522 18.885 134.373 18.41 134.171 17.9261C133.977 17.4422 133.704 16.9979 133.352 16.5932C133.009 16.1797 132.569 15.8498 132.033 15.6034C131.505 15.3483 130.863 15.2207 130.106 15.2207C129.385 15.2207 128.755 15.3703 128.219 15.6694C127.691 15.9685 127.255 16.3864 126.912 16.9231C126.569 17.451 126.314 18.0712 126.147 18.7839C125.98 19.4965 125.896 20.2707 125.896 21.1065ZM143.044 8.10766V28.3779H141.474V8.10766H143.044ZM154.227 28.6419C153.294 28.6419 152.437 28.4703 151.654 28.1272C150.879 27.7841 150.202 27.3002 149.621 26.6755C149.049 26.0509 148.605 25.3119 148.288 24.4585C147.981 23.5963 147.827 22.6549 147.827 21.6344V21.0669C147.827 19.9672 147.989 18.973 148.315 18.0844C148.64 17.1958 149.089 16.4348 149.661 15.8014C150.233 15.1679 150.884 14.6841 151.614 14.3497C152.353 14.0066 153.127 13.8351 153.937 13.8351C154.843 13.8351 155.648 13.9978 156.352 14.3233C157.056 14.6401 157.645 15.0932 158.12 15.6826C158.604 16.2633 158.969 16.9539 159.215 17.7545C159.462 18.5463 159.585 19.4217 159.585 20.3807V21.344H148.777V19.998H158.015V19.8132C157.997 19.0126 157.834 18.2648 157.526 17.5698C157.227 16.8659 156.778 16.2941 156.18 15.8542C155.582 15.4143 154.834 15.1943 153.937 15.1943C153.268 15.1943 152.652 15.3351 152.089 15.6166C151.535 15.8982 151.055 16.3029 150.651 16.8307C150.255 17.3498 149.947 17.9701 149.727 18.6915C149.516 19.4041 149.41 20.1959 149.41 21.0669V21.6344C149.41 22.4262 149.525 23.1652 149.753 23.8514C149.991 24.5289 150.325 25.1271 150.756 25.6462C151.196 26.1653 151.715 26.57 152.313 26.8603C152.912 27.1506 153.572 27.2958 154.293 27.2958C155.138 27.2958 155.885 27.1418 156.536 26.8339C157.188 26.5172 157.773 26.0201 158.292 25.3427L159.281 26.1081C158.973 26.5656 158.586 26.9879 158.12 27.375C157.663 27.7621 157.113 28.07 156.47 28.2987C155.828 28.5275 155.08 28.6419 154.227 28.6419ZM177.266 27.2826C177.935 27.2826 178.559 27.1594 179.14 26.9131C179.729 26.6579 180.213 26.284 180.592 25.7914C180.979 25.2899 181.199 24.6784 181.251 23.957H182.756C182.712 24.8632 182.435 25.6726 181.924 26.3852C181.423 27.089 180.763 27.6433 179.945 28.048C179.136 28.4439 178.243 28.6419 177.266 28.6419C176.272 28.6419 175.392 28.4615 174.627 28.1008C173.87 27.7401 173.237 27.2386 172.726 26.5964C172.216 25.9453 171.829 25.1887 171.565 24.3265C171.31 23.4555 171.182 22.5186 171.182 21.5156V20.9613C171.182 19.9584 171.31 19.0258 171.565 18.1636C171.829 17.2926 172.216 16.536 172.726 15.8938C173.237 15.2427 173.87 14.7368 174.627 14.3761C175.383 14.0154 176.259 13.8351 177.253 13.8351C178.273 13.8351 179.188 14.0418 179.998 14.4553C180.816 14.8688 181.467 15.4539 181.951 16.2105C182.444 16.9671 182.712 17.8645 182.756 18.9026H181.251C181.207 18.1372 181.005 17.4774 180.644 16.9231C180.284 16.3689 179.809 15.9422 179.219 15.643C178.63 15.3439 177.974 15.1943 177.253 15.1943C176.443 15.1943 175.753 15.3527 175.181 15.6694C174.609 15.9773 174.143 16.404 173.782 16.9495C173.43 17.4862 173.171 18.102 173.003 18.7971C172.836 19.4833 172.753 20.2047 172.753 20.9613V21.5156C172.753 22.281 172.832 23.0112 172.99 23.7063C173.157 24.3925 173.417 25.004 173.769 25.5406C174.13 26.0773 174.596 26.504 175.168 26.8207C175.748 27.1286 176.448 27.2826 177.266 27.2826ZM195.971 25.8178V18.4539C195.971 17.7765 195.83 17.1915 195.549 16.6988C195.267 16.2061 194.854 15.8278 194.308 15.5638C193.763 15.2999 193.09 15.1679 192.289 15.1679C191.55 15.1679 190.89 15.2999 190.31 15.5638C189.738 15.819 189.285 16.1665 188.95 16.6064C188.625 17.0375 188.462 17.517 188.462 18.0448L186.879 18.0316C186.879 17.495 187.01 16.9759 187.274 16.4744C187.538 15.9729 187.912 15.5243 188.396 15.1284C188.88 14.7324 189.456 14.4201 190.125 14.1914C190.802 13.9538 191.546 13.8351 192.355 13.8351C193.376 13.8351 194.273 14.0066 195.047 14.3497C195.83 14.6929 196.442 15.2075 196.882 15.8938C197.322 16.58 197.542 17.4422 197.542 18.4803V25.3823C197.542 25.8749 197.577 26.3852 197.647 26.9131C197.726 27.441 197.836 27.8765 197.977 28.2196V28.3779H196.301C196.195 28.0612 196.112 27.6653 196.05 27.1902C195.998 26.7063 195.971 26.2488 195.971 25.8178ZM196.341 20.064L196.367 21.2781H193.266C192.456 21.2781 191.731 21.3528 191.088 21.5024C190.455 21.6432 189.918 21.8543 189.478 22.1358C189.038 22.4086 188.7 22.7385 188.462 23.1256C188.233 23.5127 188.119 23.9526 188.119 24.4453C188.119 24.9556 188.247 25.4218 188.502 25.8441C188.766 26.2664 189.135 26.6052 189.61 26.8603C190.094 27.1066 190.666 27.2298 191.326 27.2298C192.206 27.2298 192.98 27.067 193.648 26.7415C194.326 26.416 194.885 25.9893 195.324 25.4614C195.764 24.9336 196.059 24.3573 196.209 23.7327L196.895 24.6432C196.781 25.0831 196.569 25.5362 196.261 26.0025C195.962 26.46 195.571 26.8911 195.087 27.2958C194.603 27.6917 194.031 28.0172 193.371 28.2724C192.72 28.5187 191.981 28.6419 191.154 28.6419C190.222 28.6419 189.408 28.4659 188.713 28.114C188.027 27.7621 187.49 27.2826 187.103 26.6755C186.725 26.0597 186.535 25.3647 186.535 24.5905C186.535 23.8866 186.685 23.2576 186.984 22.7033C187.283 22.1402 187.714 21.6652 188.277 21.2781C188.849 20.8822 189.535 20.583 190.336 20.3807C191.145 20.1695 192.052 20.064 193.055 20.064H196.341ZM204.884 8.10766V28.3779H203.314V8.10766H204.884ZM216.067 28.6419C215.135 28.6419 214.277 28.4703 213.494 28.1272C212.72 27.7841 212.042 27.3002 211.462 26.6755C210.89 26.0509 210.445 25.3119 210.129 24.4585C209.821 23.5963 209.667 22.6549 209.667 21.6344V21.0669C209.667 19.9672 209.83 18.973 210.155 18.0844C210.481 17.1958 210.929 16.4348 211.501 15.8014C212.073 15.1679 212.724 14.6841 213.454 14.3497C214.193 14.0066 214.967 13.8351 215.777 13.8351C216.683 13.8351 217.488 13.9978 218.192 14.3233C218.896 14.6401 219.485 15.0932 219.96 15.6826C220.444 16.2633 220.809 16.9539 221.056 17.7545C221.302 18.5463 221.425 19.4217 221.425 20.3807V21.344H210.617V19.998H219.855V19.8132C219.837 19.0126 219.674 18.2648 219.366 17.5698C219.067 16.8659 218.619 16.2941 218.02 15.8542C217.422 15.4143 216.674 15.1943 215.777 15.1943C215.108 15.1943 214.492 15.3351 213.929 15.6166C213.375 15.8982 212.896 16.3029 212.491 16.8307C212.095 17.3498 211.787 17.9701 211.567 18.6915C211.356 19.4041 211.25 20.1959 211.25 21.0669V21.6344C211.25 22.4262 211.365 23.1652 211.593 23.8514C211.831 24.5289 212.165 25.1271 212.596 25.6462C213.036 26.1653 213.555 26.57 214.154 26.8603C214.752 27.1506 215.412 27.2958 216.133 27.2958C216.978 27.2958 217.726 27.1418 218.377 26.8339C219.028 26.5172 219.613 26.0201 220.132 25.3427L221.122 26.1081C220.814 26.5656 220.427 26.9879 219.96 27.375C219.503 27.7621 218.953 28.07 218.311 28.2987C217.668 28.5275 216.921 28.6419 216.067 28.6419ZM227.461 17.1475V28.3779H225.891V14.099H227.395L227.461 17.1475ZM227.105 20.3543L226.406 19.9584C226.458 19.1138 226.63 18.322 226.92 17.583C227.211 16.8439 227.602 16.1929 228.095 15.6298C228.596 15.0668 229.181 14.6269 229.85 14.3102C230.527 13.9934 231.275 13.8351 232.093 13.8351C232.806 13.8351 233.444 13.9318 234.007 14.1254C234.57 14.3189 235.049 14.6269 235.445 15.0492C235.841 15.4715 236.14 16.0125 236.343 16.6724C236.554 17.3322 236.659 18.1372 236.659 19.0874V28.3779H235.076V19.0742C235.076 18.0888 234.939 17.319 234.667 16.7648C234.394 16.2017 234.007 15.8014 233.505 15.5638C233.004 15.3263 232.41 15.2075 231.724 15.2075C230.967 15.2075 230.303 15.3747 229.731 15.709C229.168 16.0345 228.693 16.4612 228.306 16.9891C227.928 17.5082 227.637 18.0668 227.435 18.6651C227.233 19.2545 227.123 19.8176 227.105 20.3543ZM251.379 25.6066V8.10766H252.963V28.3779H251.485L251.379 25.6066ZM241.468 21.3836V21.1065C241.468 19.998 241.596 18.9994 241.851 18.1108C242.106 17.2134 242.471 16.448 242.946 15.8146C243.43 15.1723 244.011 14.6841 244.688 14.3497C245.366 14.0066 246.131 13.8351 246.985 13.8351C247.82 13.8351 248.559 13.9714 249.202 14.2442C249.844 14.5169 250.394 14.9084 250.851 15.4187C251.318 15.929 251.691 16.536 251.973 17.2398C252.263 17.9437 252.474 18.7267 252.606 19.5889V23.1124C252.501 23.9218 252.307 24.6652 252.026 25.3427C251.744 26.0113 251.37 26.5964 250.904 27.0978C250.438 27.5905 249.875 27.9732 249.215 28.246C248.564 28.5099 247.812 28.6419 246.958 28.6419C246.114 28.6419 245.353 28.4659 244.675 28.114C243.998 27.7621 243.421 27.265 242.946 26.6228C242.471 25.9717 242.106 25.2019 241.851 24.3133C241.596 23.4247 241.468 22.4482 241.468 21.3836ZM243.052 21.1065V21.3836C243.052 22.2194 243.136 22.9936 243.303 23.7063C243.47 24.4189 243.725 25.0391 244.068 25.567C244.411 26.0949 244.847 26.5084 245.375 26.8075C245.902 27.1066 246.527 27.2562 247.249 27.2562C248.155 27.2562 248.916 27.0846 249.532 26.7415C250.147 26.3896 250.64 25.9277 251.01 25.3559C251.379 24.7752 251.647 24.1418 251.815 23.4555V19.3513C251.709 18.885 251.555 18.41 251.353 17.9261C251.15 17.4422 250.873 16.9979 250.521 16.5932C250.178 16.1797 249.738 15.8498 249.202 15.6034C248.674 15.3483 248.032 15.2207 247.275 15.2207C246.545 15.2207 245.916 15.3703 245.388 15.6694C244.86 15.9685 244.42 16.3864 244.068 16.9231C243.725 17.451 243.47 18.0712 243.303 18.7839C243.136 19.4965 243.052 20.2707 243.052 21.1065ZM267.155 25.8178V18.4539C267.155 17.7765 267.014 17.1915 266.732 16.6988C266.451 16.2061 266.037 15.8278 265.492 15.5638C264.946 15.2999 264.273 15.1679 263.473 15.1679C262.734 15.1679 262.074 15.2999 261.493 15.5638C260.921 15.819 260.468 16.1665 260.134 16.6064C259.808 17.0375 259.646 17.517 259.646 18.0448L258.062 18.0316C258.062 17.495 258.194 16.9759 258.458 16.4744C258.722 15.9729 259.096 15.5243 259.58 15.1284C260.064 14.7324 260.64 14.4201 261.308 14.1914C261.986 13.9538 262.729 13.8351 263.539 13.8351C264.559 13.8351 265.457 14.0066 266.231 14.3497C267.014 14.6929 267.625 15.2075 268.065 15.8938C268.505 16.58 268.725 17.4422 268.725 18.4803V25.3823C268.725 25.8749 268.76 26.3852 268.831 26.9131C268.91 27.441 269.02 27.8765 269.161 28.2196V28.3779H267.485C267.379 28.0612 267.295 27.6653 267.234 27.1902C267.181 26.7063 267.155 26.2488 267.155 25.8178ZM267.524 20.064L267.551 21.2781H264.449C263.64 21.2781 262.914 21.3528 262.272 21.5024C261.638 21.6432 261.102 21.8543 260.662 22.1358C260.222 22.4086 259.883 22.7385 259.646 23.1256C259.417 23.5127 259.303 23.9526 259.303 24.4453C259.303 24.9556 259.43 25.4218 259.685 25.8441C259.949 26.2664 260.319 26.6052 260.794 26.8603C261.278 27.1066 261.85 27.2298 262.509 27.2298C263.389 27.2298 264.163 27.067 264.832 26.7415C265.509 26.416 266.068 25.9893 266.508 25.4614C266.948 24.9336 267.243 24.3573 267.392 23.7327L268.078 24.6432C267.964 25.0831 267.753 25.5362 267.445 26.0025C267.146 26.46 266.754 26.8911 266.27 27.2958C265.787 27.6917 265.215 28.0172 264.555 28.2724C263.904 28.5187 263.165 28.6419 262.338 28.6419C261.405 28.6419 260.591 28.4659 259.896 28.114C259.21 27.7621 258.673 27.2826 258.286 26.6755C257.908 26.0597 257.719 25.3647 257.719 24.5905C257.719 23.8866 257.868 23.2576 258.168 22.7033C258.467 22.1402 258.898 21.6652 259.461 21.2781C260.033 20.8822 260.719 20.583 261.52 20.3807C262.329 20.1695 263.235 20.064 264.238 20.064H267.524ZM275.883 16.4612V28.3779H274.313V14.099H275.843L275.883 16.4612ZM280.937 13.9934L280.898 15.4451C280.722 15.4187 280.55 15.3967 280.383 15.3791C280.216 15.3615 280.036 15.3527 279.842 15.3527C279.156 15.3527 278.553 15.4803 278.034 15.7354C277.524 15.9817 277.093 16.3293 276.741 16.778C276.389 17.2178 276.121 17.7369 275.936 18.3352C275.751 18.9246 275.645 19.5581 275.619 20.2355L275.038 20.4599C275.038 19.5273 275.135 18.6607 275.329 17.8601C275.522 17.0595 275.817 16.3601 276.213 15.7618C276.618 15.1547 277.123 14.6841 277.731 14.3497C278.346 14.0066 279.068 13.8351 279.895 13.8351C280.097 13.8351 280.295 13.8527 280.489 13.8879C280.691 13.9142 280.841 13.9494 280.937 13.9934Z" fill="#C9CACC"/>
<g clip-path="url(#clip0_408_11354)">
<path d="M10.3585 30.9326V40.5374H3.96024C2.19517 40.5374 0.761719 39.104 0.761719 37.3306V30.9326H10.3585Z" fill="#188038"/>
<path d="M31.7054 0V9.60482H10.3665V30.9357H0.761719V3.19852C0.761719 1.43345 2.19517 0 3.96024 0H31.7054Z" fill="#4285F4"/>
<path d="M41.308 3.19852V9.60482H31.7112V0H38.1092C39.2484 0 40.249 0.596767 40.8157 1.49447C41.1278 1.98837 41.308 2.57204 41.308 3.19884V3.19852Z" fill="#1967D2"/>
<path d="M31.71 30.9326H10.3711V40.5374H31.71V30.9326Z" fill="#34A853"/>
<path d="M41.2992 9.60938H31.6943V30.9483H41.2992V9.60938Z" fill="#FBBC04"/>
<path d="M41.2992 30.9326L31.6943 40.5374V30.9326H41.2992Z" fill="#EA4335"/>
<path d="M28.1117 14.2686V26.6754H26.1163V16.9684L24.0813 18.4408L23.0676 16.8971L26.7099 14.2686H28.1117Z" fill="#4285F4"/>
<path d="M20.994 21.333C21.3815 21.855 21.5723 22.4728 21.5723 23.2019C21.5723 23.9309 21.3898 24.5714 21.0177 25.1414C20.6535 25.7113 20.1388 26.155 19.4973 26.4793C18.8478 26.8045 18.1198 26.9706 17.3122 26.9706C16.3934 26.9706 15.5308 26.7013 14.7305 26.163C13.9312 25.6247 13.3846 24.8407 13.0757 23.7954L14.9283 23.0348C15.0954 23.6763 15.388 24.1676 15.8071 24.5235C16.2272 24.8721 16.7339 25.0465 17.3201 25.0465C17.9064 25.0465 18.444 24.8641 18.8801 24.4919C19.3155 24.1197 19.5369 23.6526 19.5369 23.0827C19.5369 22.5128 19.3076 22.0294 18.8478 21.6572C18.3888 21.293 17.8108 21.1036 17.1224 21.1036H16.0528V19.2743H17.0112C17.6048 19.2743 18.1035 19.1156 18.5079 18.791C18.9117 18.4741 19.1168 18.0313 19.1168 17.4767C19.1168 16.978 18.9351 16.5815 18.5712 16.2889C18.2063 15.9963 17.7473 15.8455 17.1927 15.8455C16.6381 15.8455 16.2189 15.9883 15.8947 16.2809C15.5778 16.5745 15.3327 16.9384 15.1973 17.3505L13.369 16.5898C13.6137 15.9014 14.0574 15.2918 14.7069 14.7689C15.3644 14.2469 16.1956 13.9775 17.209 13.9775C17.9613 13.9775 18.6344 14.1194 19.228 14.413C19.8222 14.7056 20.2976 15.1094 20.6372 15.6161C20.9777 16.1311 21.1439 16.709 21.1439 17.3505C21.1439 17.992 20.9857 18.5536 20.6694 19.0133C20.3525 19.4641 19.9641 19.8126 19.505 20.0583V20.1685C20.0986 20.4142 20.6132 20.818 20.9937 21.333H20.994Z" fill="#4285F4"/>
</g>
<defs>
<clipPath id="clip0_408_11354">
<rect width="40.5405" height="40.5405" fill="white" transform="translate(0.756592)"/>
</clipPath>
</defs>
</svg>
