<svg width="117" height="35" viewBox="0 0 117 35" fill="none" xmlns="http://www.w3.org/2000/svg">
<g clip-path="url(#clip0_408_11383)">
<path d="M0.655029 6.74121H4.71894V15.7284H13.29V6.74121H17.3591V28.8019H13.29V19.626H4.71894V28.8019H0.655029V6.74121ZM30.2336 21.6164C30.2336 23.4631 28.722 24.9659 26.8672 24.9659C25.0116 24.9659 23.501 23.4631 23.501 21.6164V12.1185H19.647V21.6164C19.647 25.5788 22.8861 28.8019 26.8672 28.8019C30.8473 28.8019 34.0862 25.5788 34.0862 21.6164V12.1185H30.2336V21.6164ZM44.8452 12.2298C42.9334 12.2298 41.599 12.782 40.3103 14.0411V6.74121H36.4437V20.27C36.4437 25.3339 40.122 28.8019 44.2544 28.8019C48.8485 28.8019 52.8737 25.272 52.8737 20.516C52.8737 15.8203 49.162 12.2298 44.8452 12.2298ZM44.9412 25.2414C42.3213 25.2414 40.3178 23.0634 40.3178 20.516C40.3178 17.9682 42.3213 15.7895 44.9412 15.7895C47.1612 15.7895 49.1659 17.9682 49.1659 20.516C49.1659 23.0634 47.1612 25.2414 44.9412 25.2414ZM59.3678 13.1993C59.3678 11.2647 60.6628 10.6513 62.0806 10.6513C63.222 10.6513 64.7324 11.5105 65.7181 12.5542L68.2457 9.6083C66.9825 7.92063 64.424 6.75413 62.3274 6.75413C58.1339 6.75413 55.1124 9.17867 55.1124 13.1993C55.1124 20.6565 64.3313 18.2927 64.3313 22.4675C64.3313 23.755 63.0677 24.8916 61.6194 24.8916C59.337 24.8916 58.5967 23.7867 57.5489 22.6202L54.7427 25.5045C56.532 27.6836 58.7511 28.789 61.4029 28.789C65.3799 28.789 68.5865 26.3338 68.5865 22.4971C68.5865 14.2115 59.3678 16.7897 59.3678 13.1993ZM78.7654 12.0136C74.6334 12.0136 70.9546 15.4796 70.9546 20.5446V34.1082H74.821V26.7736C76.1099 28.0319 77.4437 28.585 79.3561 28.585C83.6727 28.585 87.3849 24.9949 87.3849 20.2992C87.3849 15.5425 83.3585 12.0136 78.7654 12.0136ZM79.4524 25.0257C76.8327 25.0257 74.8289 22.8447 74.8289 20.2992C74.8289 17.7514 76.8327 15.5727 79.4524 15.5727C81.6719 15.5727 83.6768 17.7514 83.6768 20.2992C83.6768 22.8447 81.6719 25.0257 79.4524 25.0257ZM115.845 25.2414C113.565 25.2414 112.917 24.2598 112.917 22.7555V16.0963H116.462V12.721H112.917V8.27072L109.003 10.0196V23.5841C109.003 27.0523 111.407 28.8019 114.704 28.8019C115.198 28.8019 115.877 28.7702 116.247 28.6793L117.203 25.1811C116.771 25.2108 116.278 25.2414 115.845 25.2414Z" fill="#45535E"/>
<path d="M105.655 16.2993C104.914 15.03 103.871 14.0123 102.568 13.2462C101.593 12.6818 100.583 12.3235 99.4452 12.1697V8.13632C100.583 7.65526 101.29 6.5905 101.29 5.34832C101.29 3.65521 99.9257 2.28319 98.2261 2.28319C96.5252 2.28319 95.1372 3.65521 95.1372 5.34832C95.1372 6.5905 95.8028 7.65526 96.9411 8.13632V12.1715C96.0305 12.3025 95.0862 12.585 94.2239 13.0192C92.4626 11.6877 86.6873 7.31968 83.3088 4.76846C83.3889 4.48092 83.4506 4.18453 83.4506 3.87184C83.4506 1.99655 81.9249 0.476562 80.0403 0.476562C78.1556 0.476562 76.6306 1.99655 76.6306 3.87184C76.6306 5.74689 78.1572 7.26733 80.0419 7.26733C80.6847 7.26733 81.2793 7.08017 81.7925 6.77246L82.5054 7.31084L92.3024 14.337C91.7845 14.8104 91.3021 15.3488 90.9162 15.9529C90.1343 17.1844 89.6564 18.5394 89.6564 20.0175V20.3259C89.6564 21.3635 89.8545 22.343 90.1919 23.2632C90.4889 24.0667 90.9233 24.7973 91.4612 25.4578L88.2098 28.7021C87.7385 28.5276 87.2268 28.4917 86.7357 28.599C86.2445 28.7062 85.7948 28.9519 85.4402 29.3067C85.1947 29.5499 85.0002 29.8391 84.8678 30.1577C84.7354 30.4762 84.6678 30.8178 84.669 31.1625C84.6692 31.8633 84.9435 32.5221 85.4416 33.0176C85.6857 33.2622 85.9762 33.4561 86.2962 33.5881C86.6161 33.7201 86.9592 33.7876 87.3056 33.7867C87.652 33.7876 87.9952 33.72 88.3153 33.588C88.6353 33.456 88.9259 33.2621 89.1702 33.0176C89.4155 32.7745 89.6101 32.4853 89.7425 32.1669C89.875 31.8485 89.9427 31.5071 89.9419 31.1625C89.9419 30.8913 89.8998 30.6266 89.8206 30.3751L93.1813 27.0294C93.642 27.3462 94.1397 27.6129 94.6746 27.8429C95.7298 28.297 96.8944 28.5737 98.169 28.5737H98.4026C99.8117 28.5737 101.141 28.2442 102.39 27.5703C103.707 26.8581 104.738 25.8842 105.516 24.6409C106.299 23.3942 106.73 22.0167 106.73 20.5013V20.4256C106.73 18.9348 106.383 17.5594 105.655 16.2993ZM101.549 23.3176C100.636 24.3266 99.5879 24.9482 98.4026 24.9482H98.2072C97.5302 24.9482 96.868 24.7619 96.2197 24.4232C95.4889 24.0502 94.9335 23.5181 94.4789 22.8445C94.009 22.1833 93.754 21.4614 93.754 20.6959V20.4634C93.754 19.7109 93.8991 18.9974 94.2647 18.3235C94.6555 17.5868 95.1834 17.014 95.8855 16.5586C96.5748 16.1063 97.311 15.8844 98.131 15.8844H98.2072C98.9507 15.8844 99.6546 16.0304 100.319 16.3687C100.996 16.7294 101.549 17.2223 101.977 17.8705C102.394 18.519 102.641 19.2185 102.721 19.9806C102.733 20.139 102.74 20.3012 102.74 20.4562C102.74 21.4904 102.343 22.4482 101.549 23.3176Z" fill="#F8761F"/>
</g>
<defs>
<clipPath id="clip0_408_11383">
<rect width="116.285" height="33.8622" fill="white" transform="translate(0.640137 0.458984)"/>
</clipPath>
</defs>
</svg>
