<svg width="317" height="41" viewBox="0 0 317 41" fill="none" xmlns="http://www.w3.org/2000/svg">
<path d="M72.2268 9.16633H73.8632L80.9631 26.0846L88.0762 9.16633H89.6994L81.5833 28.3809H80.3428L72.2268 9.16633ZM71.7253 9.16633H73.1638L73.3354 19.9877V28.3809H71.7253V9.16633ZM88.7888 9.16633H90.2272V28.3809H88.604V19.9877L88.7888 9.16633ZM97.8471 14.1019V28.3809H96.2766V14.1019H97.8471ZM95.9995 9.97134C95.9995 9.67221 96.0919 9.42147 96.2766 9.21912C96.4702 9.00797 96.7341 8.9024 97.0685 8.9024C97.4028 8.9024 97.6667 9.00797 97.8603 9.21912C98.0626 9.42147 98.1638 9.67221 98.1638 9.97134C98.1638 10.2617 98.0626 10.5124 97.8603 10.7236C97.6667 10.9259 97.4028 11.0271 97.0685 11.0271C96.7341 11.0271 96.4702 10.9259 96.2766 10.7236C96.0919 10.5124 95.9995 10.2617 95.9995 9.97134ZM108.779 27.2855C109.448 27.2855 110.073 27.1624 110.653 26.916C111.243 26.6609 111.727 26.287 112.105 25.7943C112.492 25.2928 112.712 24.6814 112.765 23.9599H114.269C114.225 24.8661 113.948 25.6755 113.438 26.3881C112.936 27.092 112.276 27.6462 111.458 28.0509C110.649 28.4468 109.756 28.6448 108.779 28.6448C107.785 28.6448 106.905 28.4644 106.14 28.1037C105.383 27.743 104.75 27.2415 104.24 26.5993C103.729 25.9483 103.342 25.1916 103.078 24.3294C102.823 23.4585 102.696 22.5215 102.696 21.5185V20.9643C102.696 19.9613 102.823 19.0287 103.078 18.1665C103.342 17.2956 103.729 16.5389 104.24 15.8967C104.75 15.2457 105.383 14.7398 106.14 14.3791C106.897 14.0184 107.772 13.838 108.766 13.838C109.787 13.838 110.702 14.0447 111.511 14.4582C112.329 14.8717 112.98 15.4568 113.464 16.2134C113.957 16.97 114.225 17.8674 114.269 18.9056H112.765C112.721 18.1401 112.518 17.4803 112.158 16.926C111.797 16.3718 111.322 15.9451 110.732 15.646C110.143 15.3468 109.488 15.1973 108.766 15.1973C107.957 15.1973 107.266 15.3556 106.694 15.6724C106.122 15.9803 105.656 16.407 105.295 16.9524C104.943 17.4891 104.684 18.105 104.517 18.8C104.35 19.4862 104.266 20.2076 104.266 20.9643V21.5185C104.266 22.2839 104.345 23.0142 104.504 23.7092C104.671 24.3954 104.93 25.0069 105.282 25.5435C105.643 26.0802 106.109 26.5069 106.681 26.8236C107.262 27.1316 107.961 27.2855 108.779 27.2855ZM120.371 16.4642V28.3809H118.801V14.1019H120.332L120.371 16.4642ZM125.426 13.9964L125.386 15.448C125.21 15.4216 125.039 15.3996 124.871 15.382C124.704 15.3644 124.524 15.3556 124.33 15.3556C123.644 15.3556 123.042 15.4832 122.522 15.7383C122.012 15.9847 121.581 16.3322 121.229 16.7809C120.877 17.2208 120.609 17.7398 120.424 18.3381C120.239 18.9276 120.134 19.561 120.107 20.2384L119.527 20.4628C119.527 19.5302 119.624 18.6636 119.817 17.863C120.011 17.0624 120.305 16.363 120.701 15.7647C121.106 15.1577 121.612 14.687 122.219 14.3527C122.835 14.0096 123.556 13.838 124.383 13.838C124.586 13.838 124.783 13.8556 124.977 13.8908C125.179 13.9172 125.329 13.9524 125.426 13.9964ZM128.123 21.4657V21.0302C128.123 19.9921 128.273 19.0331 128.572 18.1533C128.871 17.2736 129.298 16.5125 129.852 15.8703C130.415 15.2281 131.088 14.731 131.871 14.3791C132.654 14.0184 133.525 13.838 134.484 13.838C135.452 13.838 136.327 14.0184 137.11 14.3791C137.893 14.731 138.566 15.2281 139.129 15.8703C139.692 16.5125 140.123 17.2736 140.423 18.1533C140.722 19.0331 140.871 19.9921 140.871 21.0302V21.4657C140.871 22.5039 140.722 23.4629 140.423 24.3426C140.123 25.2136 139.692 25.9702 139.129 26.6125C138.575 27.2547 137.906 27.7562 137.123 28.1169C136.34 28.4688 135.469 28.6448 134.51 28.6448C133.543 28.6448 132.667 28.4688 131.884 28.1169C131.101 27.7562 130.428 27.2547 129.865 26.6125C129.302 25.9702 128.871 25.2136 128.572 24.3426C128.273 23.4629 128.123 22.5039 128.123 21.4657ZM129.694 21.0302V21.4657C129.694 22.2488 129.799 22.9922 130.01 23.696C130.221 24.391 130.529 25.0113 130.934 25.5567C131.339 26.0934 131.84 26.5157 132.438 26.8236C133.037 27.1316 133.727 27.2855 134.51 27.2855C135.285 27.2855 135.966 27.1316 136.556 26.8236C137.154 26.5157 137.656 26.0934 138.06 25.5567C138.465 25.0113 138.769 24.391 138.971 23.696C139.182 22.9922 139.288 22.2488 139.288 21.4657V21.0302C139.288 20.256 139.182 19.5214 138.971 18.8264C138.769 18.1314 138.461 17.5111 138.047 16.9656C137.642 16.4202 137.141 15.9891 136.543 15.6724C135.944 15.3556 135.258 15.1973 134.484 15.1973C133.71 15.1973 133.024 15.3556 132.425 15.6724C131.836 15.9891 131.334 16.4202 130.921 16.9656C130.516 17.5111 130.208 18.1314 129.997 18.8264C129.795 19.5214 129.694 20.256 129.694 21.0302ZM154.047 24.7385C154.047 24.3514 153.95 23.9687 153.757 23.5904C153.563 23.2121 153.189 22.8646 152.635 22.5479C152.089 22.2312 151.284 21.9628 150.22 21.7429C149.428 21.5669 148.72 21.369 148.095 21.149C147.479 20.9291 146.96 20.6651 146.538 20.3572C146.116 20.0493 145.795 19.6798 145.575 19.2487C145.355 18.8176 145.245 18.3073 145.245 17.7179C145.245 17.19 145.359 16.6929 145.588 16.2266C145.825 15.7515 146.16 15.338 146.591 14.9861C147.031 14.6254 147.559 14.3439 148.174 14.1415C148.799 13.9392 149.498 13.838 150.273 13.838C151.372 13.838 152.314 14.0272 153.097 14.4055C153.889 14.775 154.491 15.2808 154.905 15.9231C155.327 16.5653 155.538 17.2912 155.538 18.1006H153.968C153.968 17.6079 153.823 17.1416 153.532 16.7017C153.251 16.2618 152.833 15.9011 152.279 15.6196C151.733 15.338 151.064 15.1973 150.273 15.1973C149.454 15.1973 148.79 15.3204 148.28 15.5668C147.77 15.8131 147.396 16.1254 147.158 16.5037C146.929 16.8821 146.815 17.2736 146.815 17.6783C146.815 17.995 146.863 18.2853 146.96 18.5493C147.066 18.8044 147.251 19.0419 147.515 19.2619C147.787 19.4818 148.174 19.6886 148.676 19.8821C149.177 20.0757 149.828 20.2648 150.629 20.4496C151.781 20.7047 152.723 21.0171 153.453 21.3866C154.192 21.7473 154.738 22.196 155.089 22.7326C155.441 23.2605 155.617 23.9027 155.617 24.6594C155.617 25.2488 155.494 25.7899 155.248 26.2826C155.001 26.7665 154.645 27.1844 154.179 27.5363C153.721 27.8882 153.167 28.1609 152.516 28.3545C151.874 28.548 151.152 28.6448 150.352 28.6448C149.147 28.6448 148.126 28.4468 147.29 28.0509C146.463 27.6462 145.834 27.1184 145.403 26.4673C144.981 25.8075 144.77 25.1081 144.77 24.369H146.34C146.393 25.1081 146.626 25.6931 147.039 26.1242C147.453 26.5465 147.959 26.8456 148.557 27.0216C149.164 27.1975 149.762 27.2855 150.352 27.2855C151.161 27.2855 151.839 27.1668 152.384 26.9292C152.93 26.6917 153.343 26.3793 153.625 25.9922C153.906 25.6051 154.047 25.1872 154.047 24.7385ZM159.674 21.4657V21.0302C159.674 19.9921 159.824 19.0331 160.123 18.1533C160.422 17.2736 160.849 16.5125 161.403 15.8703C161.966 15.2281 162.639 14.731 163.422 14.3791C164.205 14.0184 165.076 13.838 166.035 13.838C167.003 13.838 167.878 14.0184 168.661 14.3791C169.444 14.731 170.117 15.2281 170.68 15.8703C171.243 16.5125 171.674 17.2736 171.973 18.1533C172.273 19.0331 172.422 19.9921 172.422 21.0302V21.4657C172.422 22.5039 172.273 23.4629 171.973 24.3426C171.674 25.2136 171.243 25.9702 170.68 26.6125C170.126 27.2547 169.457 27.7562 168.674 28.1169C167.891 28.4688 167.02 28.6448 166.061 28.6448C165.094 28.6448 164.218 28.4688 163.435 28.1169C162.652 27.7562 161.979 27.2547 161.416 26.6125C160.853 25.9702 160.422 25.2136 160.123 24.3426C159.824 23.4629 159.674 22.5039 159.674 21.4657ZM161.244 21.0302V21.4657C161.244 22.2488 161.35 22.9922 161.561 23.696C161.772 24.391 162.08 25.0113 162.485 25.5567C162.89 26.0934 163.391 26.5157 163.989 26.8236C164.588 27.1316 165.278 27.2855 166.061 27.2855C166.835 27.2855 167.517 27.1316 168.107 26.8236C168.705 26.5157 169.207 26.0934 169.611 25.5567C170.016 25.0113 170.319 24.391 170.522 23.696C170.733 22.9922 170.839 22.2488 170.839 21.4657V21.0302C170.839 20.256 170.733 19.5214 170.522 18.8264C170.319 18.1314 170.012 17.5111 169.598 16.9656C169.193 16.4202 168.692 15.9891 168.094 15.6724C167.495 15.3556 166.809 15.1973 166.035 15.1973C165.261 15.1973 164.574 15.3556 163.976 15.6724C163.387 15.9891 162.885 16.4202 162.472 16.9656C162.067 17.5111 161.759 18.1314 161.548 18.8264C161.346 19.5214 161.244 20.256 161.244 21.0302ZM179.752 28.3809H178.181V12.3336C178.181 11.357 178.348 10.5344 178.683 9.86576C179.026 9.19712 179.51 8.69125 180.134 8.34813C180.768 8.00501 181.52 7.83346 182.391 7.83346C182.664 7.83346 182.945 7.85105 183.236 7.88624C183.526 7.91264 183.807 7.96982 184.08 8.0578L183.961 9.39068C183.741 9.32909 183.517 9.2895 183.288 9.27191C183.068 9.24551 182.809 9.23232 182.51 9.23232C181.938 9.23232 181.445 9.35549 181.032 9.60183C180.618 9.83937 180.301 10.1869 180.082 10.6444C179.862 11.1019 179.752 11.6649 179.752 12.3336V28.3809ZM183.156 14.1019V15.3952H175.819V14.1019H183.156ZM192.743 14.1019V15.3952H185.59V14.1019H192.743ZM188.216 10.4332H189.786V24.9101C189.786 25.5699 189.874 26.067 190.05 26.4013C190.226 26.7357 190.455 26.96 190.737 27.0744C191.018 27.1887 191.322 27.2459 191.647 27.2459C191.885 27.2459 192.114 27.2327 192.333 27.2063C192.553 27.1712 192.751 27.136 192.927 27.1008L192.993 28.4336C192.8 28.4952 192.549 28.5436 192.241 28.5788C191.933 28.6228 191.625 28.6448 191.317 28.6448C190.71 28.6448 190.174 28.5348 189.707 28.3149C189.241 28.0861 188.876 27.699 188.612 27.1536C188.348 26.5993 188.216 25.8471 188.216 24.8969V10.4332ZM220.287 19.1431H214.876L214.85 17.7706H219.508C220.458 17.7706 221.268 17.6343 221.936 17.3615C222.605 17.0888 223.111 16.6841 223.454 16.1474C223.806 15.602 223.982 14.9333 223.982 14.1415C223.982 13.3321 223.81 12.6635 223.467 12.1356C223.124 11.5989 222.61 11.203 221.923 10.9479C221.237 10.6928 220.375 10.5652 219.337 10.5652H215.298V28.3809H213.675V9.16633H219.337C220.313 9.16633 221.189 9.26311 221.963 9.45666C222.737 9.65021 223.397 9.95374 223.942 10.3672C224.488 10.7807 224.901 11.3042 225.183 11.9377C225.473 12.5623 225.618 13.3101 225.618 14.1811C225.618 14.9729 225.442 15.6899 225.091 16.3322C224.739 16.9656 224.242 17.4847 223.599 17.8894C222.966 18.2853 222.205 18.5317 221.316 18.6284L220.287 19.1431ZM220.168 28.3809H214.362L215.193 26.9952H220.168C221.118 26.9952 221.928 26.8368 222.596 26.5201C223.274 26.1946 223.793 25.7327 224.154 25.1344C224.514 24.5362 224.695 23.8236 224.695 22.9966C224.695 22.2663 224.536 21.6109 224.22 21.0302C223.903 20.4496 223.419 19.9921 222.768 19.6578C222.117 19.3147 221.29 19.1431 220.287 19.1431H216.922L216.948 17.7706H221.712L222.002 18.2589C222.865 18.3469 223.617 18.6152 224.259 19.0639C224.91 19.5038 225.412 20.0625 225.764 20.7399C226.124 21.4174 226.305 22.1608 226.305 22.9702C226.305 24.1315 226.045 25.1169 225.526 25.9263C225.016 26.7269 224.299 27.3383 223.375 27.7606C222.46 28.1741 221.391 28.3809 220.168 28.3809ZM230.361 21.4657V21.0302C230.361 19.9921 230.511 19.0331 230.81 18.1533C231.109 17.2736 231.536 16.5125 232.09 15.8703C232.653 15.2281 233.326 14.731 234.109 14.3791C234.892 14.0184 235.763 13.838 236.722 13.838C237.69 13.838 238.565 14.0184 239.348 14.3791C240.131 14.731 240.804 15.2281 241.367 15.8703C241.931 16.5125 242.362 17.2736 242.661 18.1533C242.96 19.0331 243.109 19.9921 243.109 21.0302V21.4657C243.109 22.5039 242.96 23.4629 242.661 24.3426C242.362 25.2136 241.931 25.9702 241.367 26.6125C240.813 27.2547 240.145 27.7562 239.362 28.1169C238.579 28.4688 237.708 28.6448 236.749 28.6448C235.781 28.6448 234.905 28.4688 234.122 28.1169C233.339 27.7562 232.666 27.2547 232.103 26.6125C231.54 25.9702 231.109 25.2136 230.81 24.3426C230.511 23.4629 230.361 22.5039 230.361 21.4657ZM231.932 21.0302V21.4657C231.932 22.2488 232.037 22.9922 232.248 23.696C232.46 24.391 232.768 25.0113 233.172 25.5567C233.577 26.0934 234.078 26.5157 234.677 26.8236C235.275 27.1316 235.966 27.2855 236.749 27.2855C237.523 27.2855 238.205 27.1316 238.794 26.8236C239.392 26.5157 239.894 26.0934 240.299 25.5567C240.703 25.0113 241.007 24.391 241.209 23.696C241.42 22.9922 241.526 22.2488 241.526 21.4657V21.0302C241.526 20.256 241.42 19.5214 241.209 18.8264C241.007 18.1314 240.699 17.5111 240.285 16.9656C239.881 16.4202 239.379 15.9891 238.781 15.6724C238.183 15.3556 237.496 15.1973 236.722 15.1973C235.948 15.1973 235.262 15.3556 234.663 15.6724C234.074 15.9891 233.573 16.4202 233.159 16.9656C232.754 17.5111 232.446 18.1314 232.235 18.8264C232.033 19.5214 231.932 20.256 231.932 21.0302ZM246.863 21.4657V21.0302C246.863 19.9921 247.012 19.0331 247.311 18.1533C247.61 17.2736 248.037 16.5125 248.591 15.8703C249.154 15.2281 249.827 14.731 250.61 14.3791C251.393 14.0184 252.264 13.838 253.223 13.838C254.191 13.838 255.067 14.0184 255.85 14.3791C256.633 14.731 257.306 15.2281 257.869 15.8703C258.432 16.5125 258.863 17.2736 259.162 18.1533C259.461 19.0331 259.611 19.9921 259.611 21.0302V21.4657C259.611 22.5039 259.461 23.4629 259.162 24.3426C258.863 25.2136 258.432 25.9702 257.869 26.6125C257.314 27.2547 256.646 27.7562 255.863 28.1169C255.08 28.4688 254.209 28.6448 253.25 28.6448C252.282 28.6448 251.407 28.4688 250.624 28.1169C249.841 27.7562 249.168 27.2547 248.605 26.6125C248.042 25.9702 247.61 25.2136 247.311 24.3426C247.012 23.4629 246.863 22.5039 246.863 21.4657ZM248.433 21.0302V21.4657C248.433 22.2488 248.539 22.9922 248.75 23.696C248.961 24.391 249.269 25.0113 249.674 25.5567C250.078 26.0934 250.58 26.5157 251.178 26.8236C251.776 27.1316 252.467 27.2855 253.25 27.2855C254.024 27.2855 254.706 27.1316 255.295 26.8236C255.894 26.5157 256.395 26.0934 256.8 25.5567C257.204 25.0113 257.508 24.391 257.71 23.696C257.922 22.9922 258.027 22.2488 258.027 21.4657V21.0302C258.027 20.256 257.922 19.5214 257.71 18.8264C257.508 18.1314 257.2 17.5111 256.787 16.9656C256.382 16.4202 255.88 15.9891 255.282 15.6724C254.684 15.3556 253.998 15.1973 253.223 15.1973C252.449 15.1973 251.763 15.3556 251.165 15.6724C250.575 15.9891 250.074 16.4202 249.66 16.9656C249.256 17.5111 248.948 18.1314 248.737 18.8264C248.534 19.5214 248.433 20.256 248.433 21.0302ZM265.805 8.11059V28.3809H264.235V8.11059H265.805ZM274.766 14.1019L268.088 20.7267L265.251 23.4717L265.013 21.9276L267.297 19.4598L272.773 14.1019H274.766ZM273.393 28.3809L267.428 20.9643L268.299 19.605L275.294 28.3809H273.393ZM280.591 14.1019V28.3809H279.021V14.1019H280.591ZM278.743 9.97134C278.743 9.67221 278.836 9.42147 279.021 9.21912C279.214 9.00797 279.478 8.9024 279.812 8.9024C280.147 8.9024 280.411 9.00797 280.604 9.21912C280.806 9.42147 280.908 9.67221 280.908 9.97134C280.908 10.2617 280.806 10.5124 280.604 10.7236C280.411 10.9259 280.147 11.0271 279.812 11.0271C279.478 11.0271 279.214 10.9259 279.021 10.7236C278.836 10.5124 278.743 10.2617 278.743 9.97134ZM287.828 17.1504V28.3809H286.258V14.1019H287.762L287.828 17.1504ZM287.472 20.3572L286.772 19.9613C286.825 19.1167 286.997 18.3249 287.287 17.5859C287.577 16.8469 287.969 16.1958 288.462 15.6328C288.963 15.0697 289.548 14.6298 290.217 14.3131C290.894 13.9964 291.642 13.838 292.46 13.838C293.173 13.838 293.811 13.9348 294.374 14.1283C294.937 14.3219 295.416 14.6298 295.812 15.0521C296.208 15.4744 296.507 16.0155 296.709 16.6753C296.921 17.3351 297.026 18.1401 297.026 19.0903V28.3809H295.443V19.0771C295.443 18.0918 295.306 17.3219 295.034 16.7677C294.761 16.2046 294.374 15.8043 293.872 15.5668C293.371 15.3292 292.777 15.2105 292.091 15.2105C291.334 15.2105 290.67 15.3776 290.098 15.7119C289.535 16.0375 289.06 16.4642 288.673 16.992C288.294 17.5111 288.004 18.0698 287.802 18.668C287.599 19.2575 287.489 19.8205 287.472 20.3572ZM311.865 14.1019H313.33V28.1301C313.33 29.3706 313.092 30.4352 312.617 31.3237C312.151 32.2123 311.486 32.8942 310.624 33.3692C309.771 33.8443 308.763 34.0819 307.602 34.0819C307.013 34.0819 306.406 33.9895 305.781 33.8047C305.165 33.6288 304.58 33.356 304.026 32.9865C303.48 32.6258 303.014 32.1771 302.627 31.6405L303.511 30.6771C304.092 31.3809 304.712 31.8956 305.372 32.2211C306.032 32.5554 306.744 32.7226 307.51 32.7226C308.416 32.7226 309.181 32.5422 309.806 32.1815C310.439 31.8208 310.919 31.3017 311.244 30.6243C311.579 29.9469 311.746 29.1331 311.746 28.1829V17.2428L311.865 14.1019ZM301.835 21.3866V21.1094C301.835 20.0009 301.958 19.0023 302.205 18.1138C302.46 17.2164 302.825 16.451 303.3 15.8175C303.775 15.1753 304.351 14.687 305.029 14.3527C305.715 14.0096 306.489 13.838 307.351 13.838C308.178 13.838 308.913 13.9744 309.555 14.2471C310.197 14.5198 310.752 14.9113 311.218 15.4216C311.684 15.9319 312.058 16.5389 312.34 17.2428C312.63 17.9466 312.841 18.7296 312.973 19.5918V23.1153C312.868 23.9247 312.674 24.6682 312.393 25.3456C312.111 26.0142 311.737 26.5993 311.271 27.1008C310.805 27.5935 310.241 27.9762 309.582 28.2489C308.931 28.5128 308.178 28.6448 307.325 28.6448C306.472 28.6448 305.706 28.4688 305.029 28.1169C304.351 27.765 303.775 27.2679 303.3 26.6257C302.825 25.9746 302.46 25.2048 302.205 24.3162C301.958 23.4277 301.835 22.4511 301.835 21.3866ZM303.419 21.1094V21.3866C303.419 22.2224 303.502 22.9966 303.669 23.7092C303.837 24.4218 304.092 25.0421 304.435 25.5699C304.778 26.0978 305.214 26.5113 305.741 26.8104C306.269 27.1096 306.89 27.2591 307.602 27.2591C308.508 27.2591 309.269 27.0876 309.885 26.7445C310.501 26.3925 310.989 25.9307 311.35 25.3588C311.711 24.7781 311.975 24.1447 312.142 23.4585V19.3543C312.045 18.888 311.895 18.4129 311.693 17.929C311.5 17.4451 311.227 17.0008 310.875 16.5961C310.532 16.1826 310.092 15.8527 309.555 15.6064C309.027 15.3512 308.385 15.2237 307.629 15.2237C306.907 15.2237 306.278 15.3732 305.741 15.6724C305.214 15.9715 304.778 16.3894 304.435 16.926C304.092 17.4539 303.837 18.0742 303.669 18.7868C303.502 19.4994 303.419 20.2736 303.419 21.1094Z" fill="#C9CACC"/>
<g clip-path="url(#clip0_408_11340)">
<path d="M18.5968 1.68848H11.8401C10.8266 1.68848 10.1509 2.36415 10.1509 3.37767V37.1614C10.1509 38.175 10.8266 38.8506 11.8401 38.8506H18.5968V1.68848Z" fill="#057093"/>
<path d="M25.3524 1.68848H18.5957C17.5822 1.68848 16.9065 2.36415 16.9065 3.37767V37.1614C16.9065 38.175 17.5822 38.8506 18.5957 38.8506H25.3524V1.68848Z" fill="#1098B6"/>
<path d="M25.3596 1.68848H38.8731C39.8866 1.68848 40.5623 2.36415 40.5623 3.37767V37.1614C40.5623 38.175 39.8866 38.8506 38.8731 38.8506H25.3596C24.3461 38.8506 23.6704 38.175 23.6704 37.1614V3.37767C23.6704 2.36415 24.3461 1.68848 25.3596 1.68848Z" fill="#30CCD7"/>
<path d="M40.5623 13.5107H23.6704V27.0243H40.5623V13.5107Z" fill="#70ECEE"/>
<path opacity="0.5" d="M23.3266 10.1338H10.1509V33.7824H22.9887C24.1712 33.7824 25.1847 32.7689 25.3536 31.4176V12.1608C25.3536 10.9784 24.509 10.1338 23.3266 10.1338Z" fill="black"/>
<path d="M2.04461 8.44434H21.8081C22.8216 8.44434 23.6662 9.28893 23.6662 10.4714V30.2349C23.6662 31.2484 22.8216 32.2619 21.6392 32.2619H2.04461C0.862173 32.093 0.0175781 31.2484 0.0175781 30.066V10.4714C0.0175781 9.28893 0.862173 8.44434 2.04461 8.44434Z" fill="#057093"/>
<path d="M14.2056 13.8486C14.7124 14.1864 15.2191 14.5243 15.7259 15.031C16.0637 15.5378 16.2327 16.0445 16.2327 16.7202C16.2327 17.3959 16.0637 18.0716 15.557 18.5783C15.0502 19.0851 14.3745 19.5918 13.6989 19.7607C14.3745 19.7607 14.8813 19.9297 15.3881 20.2675C15.8948 20.6053 16.2327 20.9432 16.4016 21.4499C16.7394 21.9567 16.9083 22.4634 16.9083 22.9702C16.9083 23.6459 16.7394 24.4905 16.2327 24.9972C15.8948 25.6729 15.2191 26.0107 14.5435 26.3486C13.6989 26.6864 12.8543 26.8553 11.8408 26.8553H6.77319V13.5107H11.8408C12.6854 13.5107 13.361 13.6797 14.2056 13.8486ZM11.1651 19.0851C11.8408 19.0851 12.3475 18.9161 12.8543 18.5783C13.361 18.2405 13.53 17.7337 13.53 17.058C13.53 16.0445 12.8543 15.3689 11.334 15.3689H9.64481V18.9161L11.1651 19.0851ZM9.4759 24.9972H11.5029C12.1786 24.9972 12.8543 24.8283 13.361 24.4905C13.8678 24.1526 14.0367 23.6459 14.0367 22.9702C14.0367 22.4634 13.8678 21.9567 13.361 21.6189C12.8543 21.281 12.1786 21.1121 11.5029 21.1121H9.4759V24.9972Z" fill="white"/>
</g>
<defs>
<clipPath id="clip0_408_11340">
<rect width="40.5405" height="40.5405" fill="white" transform="translate(0.019043)"/>
</clipPath>
</defs>
</svg>
