<svg width="304" height="41" viewBox="0 0 304 41" fill="none" xmlns="http://www.w3.org/2000/svg">
<path d="M72.6885 9.62239H74.3249L81.4248 26.5407L88.5378 9.62239H90.161L82.045 28.8369H80.8045L72.6885 9.62239ZM72.187 9.62239H73.6255L73.797 20.4438V28.8369H72.187V9.62239ZM89.2505 9.62239H90.6889V28.8369H89.0657V20.4438L89.2505 9.62239ZM98.3087 14.558V28.8369H96.7383V14.558H98.3087ZM96.4612 10.4274C96.4612 10.1283 96.5536 9.87752 96.7383 9.67517C96.9319 9.46403 97.1958 9.35845 97.5301 9.35845C97.8644 9.35845 98.1284 9.46403 98.3219 9.67517C98.5243 9.87752 98.6255 10.1283 98.6255 10.4274C98.6255 10.7177 98.5243 10.9685 98.3219 11.1796C98.1284 11.382 97.8644 11.4831 97.5301 11.4831C97.1958 11.4831 96.9319 11.382 96.7383 11.1796C96.5536 10.9685 96.4612 10.7177 96.4612 10.4274ZM109.241 27.7416C109.91 27.7416 110.534 27.6184 111.115 27.3721C111.704 27.1169 112.188 26.743 112.567 26.2503C112.954 25.7489 113.174 25.1374 113.226 24.416H114.731C114.687 25.3222 114.41 26.1316 113.899 26.8442C113.398 27.548 112.738 28.1023 111.92 28.507C111.111 28.9029 110.218 29.1008 109.241 29.1008C108.247 29.1008 107.367 28.9205 106.602 28.5598C105.845 28.1991 105.212 27.6976 104.701 27.0553C104.191 26.4043 103.804 25.6477 103.54 24.7855C103.285 23.9145 103.157 22.9775 103.157 21.9746V21.4203C103.157 20.4174 103.285 19.4848 103.54 18.6226C103.804 17.7516 104.191 16.995 104.701 16.3528C105.212 15.7017 105.845 15.1958 106.602 14.8351C107.358 14.4744 108.234 14.2941 109.228 14.2941C110.248 14.2941 111.163 14.5008 111.973 14.9143C112.791 15.3278 113.442 15.9129 113.926 16.6695C114.419 17.4261 114.687 18.3235 114.731 19.3616H113.226C113.182 18.5962 112.98 17.9364 112.619 17.3821C112.259 16.8278 111.784 16.4011 111.194 16.102C110.605 15.8029 109.949 15.6533 109.228 15.6533C108.418 15.6533 107.728 15.8117 107.156 16.1284C106.584 16.4363 106.118 16.863 105.757 17.4085C105.405 17.9452 105.146 18.561 104.978 19.256C104.811 19.9423 104.728 20.6637 104.728 21.4203V21.9746C104.728 22.74 104.807 23.4702 104.965 24.1653C105.132 24.8515 105.392 25.4629 105.744 25.9996C106.105 26.5363 106.571 26.963 107.143 27.2797C107.723 27.5876 108.423 27.7416 109.241 27.7416ZM120.833 16.9202V28.8369H119.263V14.558H120.793L120.833 16.9202ZM125.887 14.4524L125.848 15.9041C125.672 15.8777 125.5 15.8557 125.333 15.8381C125.166 15.8205 124.986 15.8117 124.792 15.8117C124.106 15.8117 123.503 15.9393 122.984 16.1944C122.474 16.4407 122.043 16.7882 121.691 17.2369C121.339 17.6768 121.071 18.1959 120.886 18.7942C120.701 19.3836 120.595 20.0171 120.569 20.6945L119.988 20.9188C119.988 19.9863 120.085 19.1197 120.279 18.3191C120.472 17.5185 120.767 16.819 121.163 16.2208C121.568 15.6137 122.074 15.143 122.681 14.8087C123.296 14.4656 124.018 14.2941 124.845 14.2941C125.047 14.2941 125.245 14.3116 125.439 14.3468C125.641 14.3732 125.791 14.4084 125.887 14.4524ZM128.585 21.9218V21.4863C128.585 20.4482 128.734 19.4892 129.034 18.6094C129.333 17.7296 129.759 16.9686 130.314 16.3264C130.877 15.6841 131.55 15.187 132.333 14.8351C133.116 14.4744 133.987 14.2941 134.946 14.2941C135.913 14.2941 136.789 14.4744 137.572 14.8351C138.355 15.187 139.028 15.6841 139.591 16.3264C140.154 16.9686 140.585 17.7296 140.884 18.6094C141.183 19.4892 141.333 20.4482 141.333 21.4863V21.9218C141.333 22.9599 141.183 23.9189 140.884 24.7987C140.585 25.6697 140.154 26.4263 139.591 27.0685C139.037 27.7108 138.368 28.2123 137.585 28.573C136.802 28.9249 135.931 29.1008 134.972 29.1008C134.004 29.1008 133.129 28.9249 132.346 28.573C131.563 28.2123 130.89 27.7108 130.327 27.0685C129.764 26.4263 129.333 25.6697 129.034 24.7987C128.734 23.9189 128.585 22.9599 128.585 21.9218ZM130.155 21.4863V21.9218C130.155 22.7048 130.261 23.4482 130.472 24.1521C130.683 24.8471 130.991 25.4673 131.396 26.0128C131.8 26.5495 132.302 26.9718 132.9 27.2797C133.498 27.5876 134.189 27.7416 134.972 27.7416C135.746 27.7416 136.428 27.5876 137.018 27.2797C137.616 26.9718 138.117 26.5495 138.522 26.0128C138.927 25.4673 139.23 24.8471 139.433 24.1521C139.644 23.4482 139.749 22.7048 139.749 21.9218V21.4863C139.749 20.7121 139.644 19.9775 139.433 19.2824C139.23 18.5874 138.922 17.9672 138.509 17.4217C138.104 16.8762 137.603 16.4451 137.004 16.1284C136.406 15.8117 135.72 15.6533 134.946 15.6533C134.171 15.6533 133.485 15.8117 132.887 16.1284C132.298 16.4451 131.796 16.8762 131.383 17.4217C130.978 17.9672 130.67 18.5874 130.459 19.2824C130.256 19.9775 130.155 20.7121 130.155 21.4863ZM154.509 25.1946C154.509 24.8075 154.412 24.4248 154.218 24.0465C154.025 23.6682 153.651 23.3207 153.097 23.0039C152.551 22.6872 151.746 22.4189 150.682 22.1989C149.89 22.023 149.181 21.825 148.557 21.6051C147.941 21.3851 147.422 21.1212 147 20.8133C146.577 20.5053 146.256 20.1358 146.036 19.7047C145.816 19.2736 145.706 18.7634 145.706 18.1739C145.706 17.646 145.821 17.149 146.049 16.6827C146.287 16.2076 146.621 15.7941 147.052 15.4422C147.492 15.0815 148.02 14.7999 148.636 14.5976C149.261 14.3952 149.96 14.2941 150.734 14.2941C151.834 14.2941 152.775 14.4832 153.558 14.8615C154.35 15.231 154.953 15.7369 155.366 16.3791C155.789 17.0214 156 17.7472 156 18.5566H154.429C154.429 18.0639 154.284 17.5976 153.994 17.1578C153.712 16.7179 153.294 16.3571 152.74 16.0756C152.195 15.7941 151.526 15.6533 150.734 15.6533C149.916 15.6533 149.252 15.7765 148.742 16.0228C148.231 16.2692 147.857 16.5815 147.62 16.9598C147.391 17.3381 147.277 17.7296 147.277 18.1343C147.277 18.451 147.325 18.7414 147.422 19.0053C147.527 19.2604 147.712 19.498 147.976 19.7179C148.249 19.9379 148.636 20.1446 149.138 20.3382C149.639 20.5317 150.29 20.7209 151.091 20.9056C152.243 21.1608 153.185 21.4731 153.915 21.8426C154.654 22.2033 155.199 22.652 155.551 23.1887C155.903 23.7166 156.079 24.3588 156.079 25.1154C156.079 25.7049 155.956 26.2459 155.71 26.7386C155.463 27.2225 155.107 27.6404 154.641 27.9923C154.183 28.3442 153.629 28.617 152.978 28.8105C152.336 29.0041 151.614 29.1008 150.813 29.1008C149.608 29.1008 148.588 28.9029 147.752 28.507C146.925 28.1023 146.296 27.5744 145.865 26.9234C145.442 26.2635 145.231 25.5641 145.231 24.8251H146.802C146.854 25.5641 147.088 26.1492 147.501 26.5803C147.915 27.0026 148.42 27.3017 149.019 27.4776C149.626 27.6536 150.224 27.7416 150.813 27.7416C151.623 27.7416 152.3 27.6228 152.846 27.3853C153.391 27.1477 153.805 26.8354 154.086 26.4483C154.368 26.0612 154.509 25.6433 154.509 25.1946ZM160.136 21.9218V21.4863C160.136 20.4482 160.285 19.4892 160.584 18.6094C160.884 17.7296 161.31 16.9686 161.864 16.3264C162.428 15.6841 163.101 15.187 163.884 14.8351C164.667 14.4744 165.538 14.2941 166.497 14.2941C167.464 14.2941 168.34 14.4744 169.123 14.8351C169.906 15.187 170.579 15.6841 171.142 16.3264C171.705 16.9686 172.136 17.7296 172.435 18.6094C172.734 19.4892 172.884 20.4482 172.884 21.4863V21.9218C172.884 22.9599 172.734 23.9189 172.435 24.7987C172.136 25.6697 171.705 26.4263 171.142 27.0685C170.588 27.7108 169.919 28.2123 169.136 28.573C168.353 28.9249 167.482 29.1008 166.523 29.1008C165.555 29.1008 164.68 28.9249 163.897 28.573C163.114 28.2123 162.441 27.7108 161.878 27.0685C161.315 26.4263 160.884 25.6697 160.584 24.7987C160.285 23.9189 160.136 22.9599 160.136 21.9218ZM161.706 21.4863V21.9218C161.706 22.7048 161.812 23.4482 162.023 24.1521C162.234 24.8471 162.542 25.4673 162.947 26.0128C163.351 26.5495 163.853 26.9718 164.451 27.2797C165.049 27.5876 165.74 27.7416 166.523 27.7416C167.297 27.7416 167.979 27.5876 168.568 27.2797C169.167 26.9718 169.668 26.5495 170.073 26.0128C170.478 25.4673 170.781 24.8471 170.983 24.1521C171.195 23.4482 171.3 22.7048 171.3 21.9218V21.4863C171.3 20.7121 171.195 19.9775 170.983 19.2824C170.781 18.5874 170.473 17.9672 170.06 17.4217C169.655 16.8762 169.154 16.4451 168.555 16.1284C167.957 15.8117 167.271 15.6533 166.497 15.6533C165.722 15.6533 165.036 15.8117 164.438 16.1284C163.848 16.4451 163.347 16.8762 162.933 17.4217C162.529 17.9672 162.221 18.5874 162.01 19.2824C161.807 19.9775 161.706 20.7121 161.706 21.4863ZM180.213 28.8369H178.643V12.7896C178.643 11.8131 178.81 10.9905 179.144 10.3218C179.487 9.65318 179.971 9.1473 180.596 8.80419C181.229 8.46107 181.982 8.28951 182.853 8.28951C183.125 8.28951 183.407 8.30711 183.697 8.3423C183.988 8.36869 184.269 8.42588 184.542 8.51386L184.423 9.84673C184.203 9.78515 183.979 9.74556 183.75 9.72796C183.53 9.70157 183.271 9.68837 182.971 9.68837C182.4 9.68837 181.907 9.81154 181.493 10.0579C181.08 10.2954 180.763 10.6429 180.543 11.1004C180.323 11.5579 180.213 12.121 180.213 12.7896V28.8369ZM183.618 14.558V15.8513H176.281V14.558H183.618ZM193.204 14.558V15.8513H186.052V14.558H193.204ZM188.678 10.8893H190.248V25.3662C190.248 26.026 190.336 26.5231 190.512 26.8574C190.688 27.1917 190.917 27.4161 191.198 27.5304C191.48 27.6448 191.783 27.702 192.109 27.702C192.346 27.702 192.575 27.6888 192.795 27.6624C193.015 27.6272 193.213 27.592 193.389 27.5568L193.455 28.8897C193.261 28.9513 193.011 28.9997 192.703 29.0349C192.395 29.0789 192.087 29.1008 191.779 29.1008C191.172 29.1008 190.635 28.9909 190.169 28.7709C189.703 28.5422 189.338 28.1551 189.074 27.6096C188.81 27.0553 188.678 26.3031 188.678 25.353V10.8893ZM220.374 18.2003V20.259C220.374 21.6051 220.198 22.8236 219.846 23.9145C219.503 24.9966 219.001 25.9248 218.341 26.699C217.69 27.4732 216.907 28.0671 215.992 28.4806C215.077 28.8941 214.048 29.1008 212.904 29.1008C211.787 29.1008 210.767 28.8941 209.843 28.4806C208.928 28.0671 208.14 27.4732 207.481 26.699C206.821 25.9248 206.31 24.9966 205.95 23.9145C205.589 22.8236 205.409 21.6051 205.409 20.259V18.2003C205.409 16.8542 205.585 15.6401 205.936 14.558C206.297 13.4671 206.807 12.5345 207.467 11.7603C208.127 10.9861 208.915 10.3922 209.83 9.9787C210.745 9.5652 211.761 9.35845 212.878 9.35845C214.022 9.35845 215.051 9.5652 215.966 9.9787C216.881 10.3922 217.668 10.9861 218.328 11.7603C218.988 12.5345 219.494 13.4671 219.846 14.558C220.198 15.6401 220.374 16.8542 220.374 18.2003ZM218.764 20.259V18.1739C218.764 17.039 218.632 16.0184 218.368 15.1123C218.113 14.2061 217.73 13.4319 217.22 12.7896C216.718 12.1474 216.102 11.6547 215.372 11.3116C214.642 10.9685 213.811 10.7969 212.878 10.7969C211.972 10.7969 211.158 10.9685 210.437 11.3116C209.715 11.6547 209.099 12.1474 208.589 12.7896C208.088 13.4319 207.7 14.2061 207.428 15.1123C207.164 16.0184 207.032 17.039 207.032 18.1739V20.259C207.032 21.4027 207.164 22.4321 207.428 23.347C207.7 24.2532 208.092 25.0318 208.602 25.6829C209.113 26.3251 209.728 26.8178 210.45 27.1609C211.18 27.504 211.998 27.6756 212.904 27.6756C213.846 27.6756 214.677 27.504 215.399 27.1609C216.12 26.8178 216.731 26.3251 217.233 25.6829C217.734 25.0318 218.113 24.2532 218.368 23.347C218.632 22.4321 218.764 21.4027 218.764 20.259ZM234.605 25.5377V14.558H236.189V28.8369H234.671L234.605 25.5377ZM234.896 22.8984L235.714 22.872C235.714 23.7693 235.608 24.5963 235.397 25.353C235.186 26.1096 234.856 26.7694 234.407 27.3325C233.959 27.8955 233.378 28.331 232.665 28.639C231.953 28.9469 231.095 29.1008 230.092 29.1008C229.397 29.1008 228.759 29.0041 228.178 28.8105C227.606 28.6082 227.114 28.2914 226.7 27.8604C226.287 27.4293 225.966 26.8706 225.737 26.1844C225.517 25.4981 225.407 24.6667 225.407 23.6902V14.558H226.977V23.7166C226.977 24.482 227.061 25.1198 227.228 25.6301C227.404 26.1404 227.642 26.5495 227.941 26.8574C228.249 27.1653 228.601 27.3853 228.997 27.5172C229.392 27.6492 229.819 27.7152 230.277 27.7152C231.438 27.7152 232.353 27.4908 233.022 27.0422C233.699 26.5935 234.178 26.004 234.46 25.2738C234.75 24.5348 234.896 23.743 234.896 22.8984ZM247.068 14.558V15.8513H239.916V14.558H247.068ZM242.542 10.8893H244.112V25.3662C244.112 26.026 244.2 26.5231 244.376 26.8574C244.552 27.1917 244.781 27.4161 245.062 27.5304C245.344 27.6448 245.647 27.702 245.973 27.702C246.21 27.702 246.439 27.6888 246.659 27.6624C246.879 27.6272 247.077 27.592 247.253 27.5568L247.319 28.8897C247.125 28.9513 246.875 28.9997 246.567 29.0349C246.259 29.0789 245.951 29.1008 245.643 29.1008C245.036 29.1008 244.499 28.9909 244.033 28.7709C243.567 28.5422 243.202 28.1551 242.938 27.6096C242.674 27.0553 242.542 26.3031 242.542 25.353V10.8893ZM253.487 8.56664V28.8369H251.917V8.56664H253.487ZM258.283 21.9218V21.4863C258.283 20.4482 258.432 19.4892 258.732 18.6094C259.031 17.7296 259.457 16.9686 260.012 16.3264C260.575 15.6841 261.248 15.187 262.031 14.8351C262.814 14.4744 263.685 14.2941 264.644 14.2941C265.611 14.2941 266.487 14.4744 267.27 14.8351C268.053 15.187 268.726 15.6841 269.289 16.3264C269.852 16.9686 270.283 17.7296 270.582 18.6094C270.881 19.4892 271.031 20.4482 271.031 21.4863V21.9218C271.031 22.9599 270.881 23.9189 270.582 24.7987C270.283 25.6697 269.852 26.4263 269.289 27.0685C268.735 27.7108 268.066 28.2123 267.283 28.573C266.5 28.9249 265.629 29.1008 264.67 29.1008C263.702 29.1008 262.827 28.9249 262.044 28.573C261.261 28.2123 260.588 27.7108 260.025 27.0685C259.462 26.4263 259.031 25.6697 258.732 24.7987C258.432 23.9189 258.283 22.9599 258.283 21.9218ZM259.853 21.4863V21.9218C259.853 22.7048 259.959 23.4482 260.17 24.1521C260.381 24.8471 260.689 25.4673 261.094 26.0128C261.498 26.5495 262 26.9718 262.598 27.2797C263.196 27.5876 263.887 27.7416 264.67 27.7416C265.444 27.7416 266.126 27.5876 266.716 27.2797C267.314 26.9718 267.815 26.5495 268.22 26.0128C268.625 25.4673 268.928 24.8471 269.131 24.1521C269.342 23.4482 269.447 22.7048 269.447 21.9218V21.4863C269.447 20.7121 269.342 19.9775 269.131 19.2824C268.928 18.5874 268.62 17.9672 268.207 17.4217C267.802 16.8762 267.301 16.4451 266.702 16.1284C266.104 15.8117 265.418 15.6533 264.644 15.6533C263.87 15.6533 263.183 15.8117 262.585 16.1284C261.996 16.4451 261.494 16.8762 261.081 17.4217C260.676 17.9672 260.368 18.5874 260.157 19.2824C259.954 19.9775 259.853 20.7121 259.853 21.4863ZM274.784 21.9218V21.4863C274.784 20.4482 274.934 19.4892 275.233 18.6094C275.532 17.7296 275.959 16.9686 276.513 16.3264C277.076 15.6841 277.749 15.187 278.532 14.8351C279.315 14.4744 280.186 14.2941 281.145 14.2941C282.113 14.2941 282.988 14.4744 283.771 14.8351C284.554 15.187 285.227 15.6841 285.79 16.3264C286.353 16.9686 286.784 17.7296 287.084 18.6094C287.383 19.4892 287.532 20.4482 287.532 21.4863V21.9218C287.532 22.9599 287.383 23.9189 287.084 24.7987C286.784 25.6697 286.353 26.4263 285.79 27.0685C285.236 27.7108 284.567 28.2123 283.784 28.573C283.001 28.9249 282.13 29.1008 281.171 29.1008C280.204 29.1008 279.328 28.9249 278.545 28.573C277.762 28.2123 277.089 27.7108 276.526 27.0685C275.963 26.4263 275.532 25.6697 275.233 24.7987C274.934 23.9189 274.784 22.9599 274.784 21.9218ZM276.355 21.4863V21.9218C276.355 22.7048 276.46 23.4482 276.671 24.1521C276.882 24.8471 277.19 25.4673 277.595 26.0128C278 26.5495 278.501 26.9718 279.099 27.2797C279.698 27.5876 280.388 27.7416 281.171 27.7416C281.946 27.7416 282.627 27.5876 283.217 27.2797C283.815 26.9718 284.317 26.5495 284.721 26.0128C285.126 25.4673 285.43 24.8471 285.632 24.1521C285.843 23.4482 285.949 22.7048 285.949 21.9218V21.4863C285.949 20.7121 285.843 19.9775 285.632 19.2824C285.43 18.5874 285.122 17.9672 284.708 17.4217C284.303 16.8762 283.802 16.4451 283.204 16.1284C282.605 15.8117 281.919 15.6533 281.145 15.6533C280.371 15.6533 279.685 15.8117 279.086 16.1284C278.497 16.4451 277.995 16.8762 277.582 17.4217C277.177 17.9672 276.869 18.5874 276.658 19.2824C276.456 19.9775 276.355 20.7121 276.355 21.4863ZM293.727 8.56664V28.8369H292.156V8.56664H293.727ZM302.687 14.558L296.01 21.1828L293.173 23.9277L292.935 22.3837L295.218 19.9159L300.695 14.558H302.687ZM301.315 28.8369L295.35 21.4203L296.221 20.061L303.215 28.8369H301.315Z" fill="#C9CACC"/>
<path d="M25.1697 10.5186V17.4573L27.597 18.9839C27.6847 19.0032 27.7755 19.0032 27.8631 18.9839L38.2997 11.9476C38.2921 11.6061 38.1672 11.2777 37.9459 11.0174C37.7247 10.7572 37.4206 10.581 37.0848 10.5186H25.1697Z" fill="#0072C6"/>
<path d="M25.1709 20.046L27.3842 21.5663C27.4878 21.6294 27.6068 21.6628 27.7282 21.6628C27.8495 21.6628 27.9685 21.6294 28.0721 21.5663C27.6921 21.7956 38.2997 14.7529 38.2997 14.7529V27.5055C38.3274 27.7639 38.2983 28.0252 38.2144 28.2712C38.1305 28.5171 37.9939 28.7418 37.8141 28.9295C37.6343 29.1171 37.4156 29.2632 37.1735 29.3575C36.9313 29.4518 36.6714 29.4921 36.4121 29.4755H25.1697L25.1709 20.046Z" fill="#0072C6"/>
<path d="M13.7145 16.8331C13.3468 16.8313 12.9854 16.9291 12.6687 17.116C12.352 17.3029 12.0917 17.572 11.9155 17.8947C11.4342 18.7504 11.2033 19.7241 11.2491 20.7047C11.1991 21.6833 11.4303 22.6557 11.9155 23.5071C12.091 23.8166 12.3448 24.0744 12.6515 24.2547C12.9582 24.435 13.307 24.5314 13.6627 24.5343C14.0185 24.5371 14.3687 24.4462 14.6783 24.2708C14.9878 24.0954 15.2457 23.8416 15.4261 23.5349C15.9059 22.6875 16.1324 21.7201 16.0785 20.7478C16.1335 19.7449 15.9145 18.7459 15.4451 17.858C15.2773 17.5457 15.0275 17.2852 14.7225 17.1046C14.4175 16.924 14.0689 16.8301 13.7145 16.8331Z" fill="#0072C6"/>
<path d="M3.22217 6.99411V34.1398L23.8725 38.47V2.99707L3.22217 6.99411ZM17.0414 25.1563C16.6551 25.7009 16.1415 26.1427 15.5453 26.4432C14.949 26.7438 14.2884 26.8939 13.6208 26.8805C12.9701 26.8921 12.3262 26.7463 11.7439 26.4556C11.1615 26.1649 10.6581 25.7378 10.2762 25.2108C9.37063 23.9464 8.91761 22.4137 8.99033 20.8602C8.91329 19.2306 9.3745 17.6208 10.3028 16.2792C10.694 15.7242 11.2157 15.274 11.822 14.9682C12.4282 14.6624 13.1004 14.5105 13.7792 14.5258C14.4252 14.5128 15.0645 14.6586 15.6411 14.9504C16.2176 15.2422 16.7137 15.6711 17.0858 16.1993C17.9823 17.4911 18.4276 19.0426 18.3527 20.6132C18.4316 22.2311 17.9704 23.8293 17.0414 25.1563Z" fill="#0072C6"/>
</svg>
