<svg width="27" height="28" viewBox="0 0 27 28" fill="none" xmlns="http://www.w3.org/2000/svg">
<path d="M8.04991 19.6053C5.18245 16.7323 2.97727 13.2675 1.58858 9.45331C0.824578 7.36798 1.52458 5.07731 3.09524 3.50664L4.06725 2.53598C4.32856 2.27413 4.63895 2.0664 4.98065 1.92466C5.32235 1.78292 5.68865 1.70996 6.05858 1.70996C6.42851 1.70996 6.79481 1.78292 7.13651 1.92466C7.4782 2.0664 7.7886 2.27413 8.04991 2.53598L10.3259 4.81198C10.5878 5.07329 10.7955 5.38368 10.9372 5.72538C11.079 6.06708 11.1519 6.43338 11.1519 6.80331C11.1519 7.17324 11.079 7.53954 10.9372 7.88124C10.7955 8.22293 10.5878 8.53333 10.3259 8.79464L9.76591 9.35464C9.54176 9.57875 9.36395 9.84481 9.24263 10.1376C9.12132 10.4305 9.05888 10.7443 9.05888 11.0613C9.05888 11.3783 9.12132 11.6921 9.24263 11.985C9.36395 12.2778 9.54176 12.5439 9.76591 12.768L14.8859 17.8893C15.11 18.1135 15.3761 18.2913 15.6689 18.4126C15.9618 18.5339 16.2756 18.5963 16.5926 18.5963C16.9095 18.5963 17.2234 18.5339 17.5162 18.4126C17.8091 18.2913 18.0751 18.1135 18.2992 17.8893L18.8606 17.3293C19.1219 17.0675 19.4323 16.8597 19.774 16.718C20.1157 16.5763 20.482 16.5033 20.8519 16.5033C21.2218 16.5033 21.5881 16.5763 21.9298 16.718C22.2715 16.8597 22.5819 17.0675 22.8432 17.3293L25.1192 19.6053C25.3811 19.8666 25.5888 20.177 25.7306 20.5187C25.8723 20.8604 25.9453 21.2267 25.9453 21.5966C25.9453 21.9666 25.8723 22.3329 25.7306 22.6746C25.5888 23.0163 25.3811 23.3267 25.1192 23.588L24.1486 24.5586C22.5779 26.1306 20.2872 26.8306 18.2019 26.0666C14.3877 24.678 10.9229 22.4728 8.04991 19.6053Z" stroke="#40DF40" stroke-width="2" stroke-linejoin="round"/>
<path d="M24.3253 6.71094C22.754 6.71094 19.6113 3.56824 19.6113 1.99689C19.6113 5.13959 16.4686 6.71094 14.8972 6.71094C18.0399 6.71094 19.6113 9.85363 19.6113 11.425C19.6113 8.28229 21.1826 6.71094 24.3253 6.71094Z" stroke="#40DF40" stroke-width="2" stroke-linejoin="round"/>
</svg>
