<svg width="36" height="36" viewBox="0 0 36 36" fill="none" xmlns="http://www.w3.org/2000/svg">
<g filter="url(#filter0_diii_408_7549)">
<path d="M9.81637 24.5851C10.4186 25.1996 10.7559 26.0258 10.7559 26.8863C10.7559 27.7468 10.4186 28.573 9.81637 29.1875C8.1511 30.8641 4.61241 31.3791 4.218 31.3791H4.07558C3.91889 31.3804 3.76375 31.3481 3.62061 31.2844C3.47747 31.2206 3.34967 31.1269 3.24583 31.0095C3.14199 30.8922 3.06453 30.7539 3.01867 30.604C2.97282 30.4542 2.95963 30.2962 2.98001 30.1408C3.03478 29.7464 3.52779 26.2069 5.17115 24.5413C5.7932 23.9314 6.63183 23.5935 7.50283 23.6017C8.37382 23.6099 9.20594 23.9636 9.81637 24.5851Z" fill="url(#paint0_linear_408_7549)"/>
</g>
<g filter="url(#filter1_diii_408_7549)">
<path d="M27.3624 19.5623C24.7724 22.1042 21.8896 24.3293 18.7745 26.1907C18.1487 26.5392 17.444 26.7216 16.7278 26.7204C16.1592 26.7237 15.5957 26.614 15.0699 26.3977C14.5441 26.1815 14.0665 25.8629 13.6647 25.4606L9.37079 21.1657C8.71162 20.5081 8.28398 19.654 8.15232 18.7322C8.02066 17.8104 8.1921 16.8707 8.64082 16.0548C10.5018 12.9391 12.7264 10.0556 15.2678 7.46505C17.2618 5.35403 19.7736 3.80191 22.5533 2.96303C25.3331 2.12415 28.2839 2.02776 31.1125 2.68342C31.3392 2.75153 31.5454 2.87481 31.7128 3.0422C31.8801 3.2096 32.0034 3.41589 32.0715 3.64261C32.7491 6.47623 32.6708 9.43816 31.8444 12.232C31.0179 15.0258 29.4724 17.5536 27.3624 19.5623ZM25.9311 8.79646C25.5315 8.39432 25.0214 8.11993 24.4657 8.00807C23.9099 7.89621 23.3334 7.95191 22.8094 8.16812C22.2853 8.38433 21.8372 8.75131 21.5219 9.22254C21.2066 9.69377 21.0383 10.248 21.0383 10.815C21.0383 11.3821 21.2066 11.9363 21.5219 12.4076C21.8372 12.8788 22.2853 13.2458 22.8094 13.462C23.3334 13.6782 23.9099 13.7339 24.4657 13.622C25.0214 13.5102 25.5315 13.2358 25.9311 12.8336C26.47 12.3029 26.7771 11.5803 26.7851 10.8239C26.7931 10.0675 26.5016 9.33858 25.9741 8.79646H25.9311ZM27.6058 21.2659C25.2881 23.4358 22.7669 25.3775 20.077 27.064L22.9397 29.9272C23.0734 30.0599 23.232 30.1649 23.4064 30.2361C23.5808 30.3074 23.7675 30.3435 23.9559 30.3424C24.3314 30.3408 24.6912 30.1917 24.9578 29.9272L25.9311 28.9537C26.6039 28.2867 27.1375 27.4927 27.5012 26.6179C27.8648 25.743 28.0512 24.8046 28.0495 23.8571C28.0708 22.9764 27.9351 22.099 27.6487 21.2659H27.6058ZM5.77818 8.75351L4.80489 9.72701C4.5383 9.99524 4.38867 10.3581 4.38867 10.7363C4.38867 11.1145 4.5383 11.4774 4.80489 11.7456L7.66752 14.6088C9.32509 11.9219 11.2427 9.40446 13.3928 7.09282C12.0989 6.60404 10.691 6.50077 9.33966 6.79549C7.98827 7.09022 6.75123 7.77032 5.77818 8.75351Z" fill="#EAE8FF"/>
<path d="M27.752 21.1211L27.7852 21.2188C28.0767 22.0667 28.2156 22.96 28.1943 23.8564L28.1855 24.2188C28.1453 25.0616 27.9593 25.892 27.6348 26.6729C27.2638 27.5654 26.7195 28.3762 26.0332 29.0566L26.0322 29.0557L25.0596 30.0293C24.7661 30.3205 24.3694 30.4846 23.9561 30.4863C23.7489 30.4874 23.5433 30.4485 23.3516 30.3701C23.2076 30.3113 23.0733 30.2316 22.9531 30.1338L22.8379 30.0293L19.8467 27.0381L20 26.9414C22.682 25.2598 25.1959 23.3237 27.5068 21.1602L27.5488 21.1211H27.752ZM22.5117 2.8252C25.1403 2.03195 27.9203 1.89665 30.6084 2.42773L31.1455 2.54297L31.1543 2.54492L31.3369 2.6123C31.5146 2.69073 31.6763 2.80227 31.8145 2.94043C31.9526 3.07857 32.0642 3.24028 32.1426 3.41797L32.21 3.60059L32.2119 3.60938C32.8953 6.46749 32.816 9.45546 31.9824 12.2734C31.1488 15.0913 29.5901 17.641 27.4619 19.667C24.8642 22.2162 21.9728 24.4476 18.8486 26.3145L18.8447 26.3174L18.8438 26.3164C18.1965 26.6767 17.4683 26.8655 16.7275 26.8643C16.1403 26.8675 15.5578 26.7547 15.0146 26.5312C14.4713 26.3077 13.9777 25.9783 13.5625 25.5625L9.26855 21.2676C8.58747 20.588 8.1459 19.7055 8.00977 18.7529C7.87368 17.8001 8.05085 16.8287 8.51465 15.9854L8.5166 15.9805C10.3835 12.855 12.6157 9.96297 15.165 7.36426C17.176 5.23591 19.7087 3.6711 22.5117 2.8252ZM9.30859 6.6543C10.6871 6.35365 12.1234 6.45946 13.4434 6.95801L13.6445 7.03418L13.499 7.19141C11.3554 9.49611 9.44264 12.0057 7.79004 14.6846L7.69434 14.8398L7.56543 14.7109L4.70312 11.8477H4.70215C4.40869 11.5524 4.24415 11.1527 4.24414 10.7363C4.24414 10.32 4.4087 9.92029 4.70215 9.625H4.70312L5.67578 8.65137C6.66834 7.64862 7.93022 6.95496 9.30859 6.6543ZM24.4375 8.14941C23.9098 8.0432 23.3619 8.09646 22.8643 8.30176C22.3667 8.50707 21.941 8.85534 21.6416 9.30273C21.3422 9.75018 21.1826 10.277 21.1826 10.8154C21.1827 11.3536 21.3424 11.8798 21.6416 12.3271C21.9409 12.7745 22.3668 13.1228 22.8643 13.3281C23.3619 13.5334 23.9098 13.5867 24.4375 13.4805C24.9651 13.3742 25.4497 13.1132 25.8291 12.7314L25.8301 12.7305C26.3416 12.2265 26.633 11.5404 26.6406 10.8223C26.648 10.1231 26.3841 9.45056 25.9082 8.94043H25.8711L25.8291 8.89844C25.4497 8.51665 24.9651 8.25567 24.4375 8.14941Z" stroke="#D2CEFF" stroke-width="0.288851"/>
</g>
<defs>
<filter id="filter0_diii_408_7549" x="0.0821962" y="21.8685" width="13.5622" height="13.5544" filterUnits="userSpaceOnUse" color-interpolation-filters="sRGB">
<feFlood flood-opacity="0" result="BackgroundImageFix"/>
<feColorMatrix in="SourceAlpha" type="matrix" values="0 0 0 0 0 0 0 0 0 0 0 0 0 0 0 0 0 0 127 0" result="hardAlpha"/>
<feOffset dy="1.1554"/>
<feGaussianBlur stdDeviation="1.44425"/>
<feComposite in2="hardAlpha" operator="out"/>
<feColorMatrix type="matrix" values="0 0 0 0 0.290196 0 0 0 0 0.227451 0 0 0 0 1 0 0 0 0.25 0"/>
<feBlend mode="normal" in2="BackgroundImageFix" result="effect1_dropShadow_408_7549"/>
<feBlend mode="normal" in="SourceGraphic" in2="effect1_dropShadow_408_7549" result="shape"/>
<feColorMatrix in="SourceAlpha" type="matrix" values="0 0 0 0 0 0 0 0 0 0 0 0 0 0 0 0 0 0 127 0" result="hardAlpha"/>
<feOffset dy="1.7331"/>
<feGaussianBlur stdDeviation="1.1554"/>
<feComposite in2="hardAlpha" operator="arithmetic" k2="-1" k3="1"/>
<feColorMatrix type="matrix" values="0 0 0 0 0.874597 0 0 0 0 0.932332 0 0 0 0 1 0 0 0 0.1 0"/>
<feBlend mode="normal" in2="shape" result="effect2_innerShadow_408_7549"/>
<feColorMatrix in="SourceAlpha" type="matrix" values="0 0 0 0 0 0 0 0 0 0 0 0 0 0 0 0 0 0 127 0" result="hardAlpha"/>
<feOffset dy="0.577701"/>
<feGaussianBlur stdDeviation="0.288851"/>
<feComposite in2="hardAlpha" operator="arithmetic" k2="-1" k3="1"/>
<feColorMatrix type="matrix" values="0 0 0 0 1 0 0 0 0 1 0 0 0 0 1 0 0 0 0.1 0"/>
<feBlend mode="normal" in2="effect2_innerShadow_408_7549" result="effect3_innerShadow_408_7549"/>
<feColorMatrix in="SourceAlpha" type="matrix" values="0 0 0 0 0 0 0 0 0 0 0 0 0 0 0 0 0 0 127 0" result="hardAlpha"/>
<feOffset dy="-1.1554"/>
<feGaussianBlur stdDeviation="0.577701"/>
<feComposite in2="hardAlpha" operator="arithmetic" k2="-1" k3="1"/>
<feColorMatrix type="matrix" values="0 0 0 0 0 0 0 0 0 0.259991 0 0 0 0 0.537912 0 0 0 0.15 0"/>
<feBlend mode="normal" in2="effect3_innerShadow_408_7549" result="effect4_innerShadow_408_7549"/>
</filter>
<filter id="filter1_diii_408_7549" x="1.2111" y="0.23174" width="34.4938" height="34.443" filterUnits="userSpaceOnUse" color-interpolation-filters="sRGB">
<feFlood flood-opacity="0" result="BackgroundImageFix"/>
<feColorMatrix in="SourceAlpha" type="matrix" values="0 0 0 0 0 0 0 0 0 0 0 0 0 0 0 0 0 0 127 0" result="hardAlpha"/>
<feOffset dy="1.1554"/>
<feGaussianBlur stdDeviation="1.44425"/>
<feComposite in2="hardAlpha" operator="out"/>
<feColorMatrix type="matrix" values="0 0 0 0 0.290196 0 0 0 0 0.227451 0 0 0 0 1 0 0 0 0.25 0"/>
<feBlend mode="normal" in2="BackgroundImageFix" result="effect1_dropShadow_408_7549"/>
<feBlend mode="normal" in="SourceGraphic" in2="effect1_dropShadow_408_7549" result="shape"/>
<feColorMatrix in="SourceAlpha" type="matrix" values="0 0 0 0 0 0 0 0 0 0 0 0 0 0 0 0 0 0 127 0" result="hardAlpha"/>
<feOffset dy="1.7331"/>
<feGaussianBlur stdDeviation="1.1554"/>
<feComposite in2="hardAlpha" operator="arithmetic" k2="-1" k3="1"/>
<feColorMatrix type="matrix" values="0 0 0 0 0.874597 0 0 0 0 0.932332 0 0 0 0 1 0 0 0 0.1 0"/>
<feBlend mode="normal" in2="shape" result="effect2_innerShadow_408_7549"/>
<feColorMatrix in="SourceAlpha" type="matrix" values="0 0 0 0 0 0 0 0 0 0 0 0 0 0 0 0 0 0 127 0" result="hardAlpha"/>
<feOffset dy="0.577701"/>
<feGaussianBlur stdDeviation="0.288851"/>
<feComposite in2="hardAlpha" operator="arithmetic" k2="-1" k3="1"/>
<feColorMatrix type="matrix" values="0 0 0 0 1 0 0 0 0 1 0 0 0 0 1 0 0 0 0.1 0"/>
<feBlend mode="normal" in2="effect2_innerShadow_408_7549" result="effect3_innerShadow_408_7549"/>
<feColorMatrix in="SourceAlpha" type="matrix" values="0 0 0 0 0 0 0 0 0 0 0 0 0 0 0 0 0 0 127 0" result="hardAlpha"/>
<feOffset dy="-1.1554"/>
<feGaussianBlur stdDeviation="0.577701"/>
<feComposite in2="hardAlpha" operator="arithmetic" k2="-1" k3="1"/>
<feColorMatrix type="matrix" values="0 0 0 0 0 0 0 0 0 0.259991 0 0 0 0 0.537912 0 0 0 0.15 0"/>
<feBlend mode="normal" in2="effect3_innerShadow_408_7549" result="effect4_innerShadow_408_7549"/>
</filter>
<linearGradient id="paint0_linear_408_7549" x1="7.34685" y1="19.1974" x2="15.1344" y2="37.0234" gradientUnits="userSpaceOnUse">
<stop stop-color="#D2CEFF"/>
<stop offset="1" stop-color="#9E97FF"/>
</linearGradient>
</defs>
</svg>
