<svg width="29" height="29" viewBox="0 0 29 29" fill="none" xmlns="http://www.w3.org/2000/svg">
<path d="M10.6036 25.3125H6.6036C5.18911 25.3125 3.83255 24.7506 2.83236 23.7504C1.83217 22.7502 1.27026 21.3937 1.27026 19.9792V7.97917C1.27026 6.56468 1.83217 5.20812 2.83236 4.20793C3.83255 3.20774 5.18911 2.64583 6.6036 2.64583H21.2703C22.6848 2.64583 24.0413 3.20774 25.0415 4.20793C26.0417 5.20812 26.6036 6.56468 26.6036 7.97917V11.9792M9.27026 1.3125V3.97917M18.6036 1.3125V3.97917M1.27026 9.3125H26.6036M23.2703 19.5032L21.2703 21.5032" stroke="#40DF40" stroke-width="2" stroke-linecap="round" stroke-linejoin="round"/>
<path d="M21.2702 27.9788C24.9521 27.9788 27.9368 24.9941 27.9368 21.3122C27.9368 17.6303 24.9521 14.6455 21.2702 14.6455C17.5883 14.6455 14.6035 17.6303 14.6035 21.3122C14.6035 24.9941 17.5883 27.9788 21.2702 27.9788Z" stroke="#40DF40" stroke-width="2" stroke-linecap="round" stroke-linejoin="round"/>
</svg>
