<svg width="130" height="27" viewBox="0 0 130 27" fill="none" xmlns="http://www.w3.org/2000/svg">
<path d="M0.275491 21.7102C0.185359 21.5903 0.121559 21.4685 0.0861135 21.3426C0.0506685 21.2177 0.052694 21.0888 0.0952279 20.9579C0.136749 20.826 0.230932 20.689 0.373724 20.545L3.36629 17.7121C3.5344 17.545 3.70859 17.4614 3.88885 17.4614C4.02152 17.4614 4.15621 17.4966 4.29495 17.5691C4.43268 17.6406 4.56838 17.7363 4.70105 17.8561C5.02613 18.119 5.38868 18.409 5.79174 18.7252C6.1948 19.0425 6.62419 19.3345 7.08093 19.6034C7.53766 19.8723 8.0187 20.0969 8.52303 20.2761C9.02736 20.4554 9.54385 20.545 10.0735 20.545C10.6619 20.545 11.1429 20.4795 11.5156 20.3476C11.8883 20.2167 12.183 20.0425 12.3997 19.828C12.6154 19.6135 12.7633 19.3587 12.8412 19.0656C12.9192 18.7726 12.9577 18.4654 12.9577 18.1422C12.9577 17.7836 12.8321 17.4644 12.58 17.1834C12.3268 16.9025 12.0149 16.6577 11.6422 16.4483C11.2695 16.2388 10.8786 16.0565 10.4705 15.9014C10.0624 15.7464 9.70183 15.6144 9.3889 15.5077C8.00756 15.0293 6.7842 14.5097 5.72085 13.9478C4.65649 13.3858 3.77138 12.7645 3.06147 12.0837C2.35257 11.4019 1.81482 10.6496 1.44821 9.82486C1.08161 9.00008 0.89831 8.08567 0.89831 7.08264C0.89831 6.01919 1.12617 5.0504 1.58392 4.17828C2.04065 3.30617 2.68069 2.56196 3.50402 1.94664C4.32736 1.33133 5.31273 0.852978 6.46013 0.512593C7.60551 0.170193 8.87748 0 10.271 0C11.0518 0 11.8417 0.0805646 12.6417 0.241694C13.4408 0.402823 14.2104 0.63344 14.9497 0.931529C15.689 1.23063 16.3797 1.58612 17.0227 1.998C17.6658 2.40989 18.2096 2.86105 18.6542 3.35149C18.8942 3.62642 19.0147 3.88926 19.0147 4.14002C19.0147 4.39077 18.876 4.65362 18.5995 4.92854L15.9493 7.74327C15.769 7.92253 15.5827 8.01215 15.3902 8.01215C15.2343 8.01215 15.0844 7.96684 14.9396 7.87721C14.7948 7.78758 14.6449 7.6768 14.4889 7.54589C13.8641 6.98395 13.221 6.53581 12.5597 6.20146C11.8984 5.86712 11.1419 5.69894 10.2882 5.69894C9.96412 5.69894 9.64005 5.72613 9.31497 5.77951C8.98989 5.83288 8.69924 5.92855 8.43999 6.06652C8.18175 6.20449 7.97212 6.38374 7.80907 6.60429C7.64703 6.82584 7.56602 7.09775 7.56602 7.42C7.56602 7.74226 7.65615 8.02021 7.83641 8.25284C8.01667 8.48648 8.28099 8.70098 8.62937 8.89837C8.97774 9.09575 9.40207 9.28709 9.90032 9.47239C10.3986 9.65769 10.9606 9.85205 11.5865 10.0555C12.8119 10.4623 13.9329 10.8863 14.9487 11.3284C15.9645 11.7705 16.8354 12.2942 17.5625 12.8974C18.2896 13.5006 18.8537 14.2217 19.2568 15.0575C19.6598 15.8944 19.8614 16.9105 19.8614 18.1049C19.8614 19.3597 19.6122 20.5017 19.114 21.5289C18.6147 22.5571 17.9241 23.4322 17.041 24.1553C16.1569 24.8784 15.1138 25.4373 13.9127 25.831C12.7106 26.2248 11.4012 26.4232 9.98235 26.4232C9.09319 26.4232 8.2101 26.3064 7.33208 26.0737C6.45507 25.8411 5.61047 25.5269 4.79928 25.1321C3.9881 24.7384 3.22451 24.2782 2.50954 23.7515C1.79456 23.2258 1.14845 22.6638 0.571203 22.0667C0.462843 21.9468 0.36461 21.828 0.274478 21.7081L0.275491 21.7102Z" fill="#D7D9FB"/>
<path d="M21.5845 1.29481C21.5845 0.781214 21.8377 0.524414 22.342 0.524414H27.5169C28.0213 0.524414 28.2745 0.781214 28.2745 1.29481V25.3353C28.2745 25.8368 28.0213 26.0886 27.5169 26.0886H22.342C21.8377 26.0886 21.5845 25.8378 21.5845 25.3353V1.29481Z" fill="#D7D9FB"/>
<path d="M37.7648 11.4963L36.3044 25.3363C36.2801 25.5871 36.2113 25.7754 36.0968 25.9003C35.9824 26.0262 35.8001 26.0886 35.5469 26.0886H30.6262C30.373 26.0886 30.1785 26.0262 30.0398 25.9003C29.901 25.7754 29.8443 25.5861 29.8676 25.3363L32.446 1.29582C32.4703 1.04506 32.5392 0.853722 32.6536 0.721797C32.768 0.59088 32.9503 0.524414 33.2025 0.524414H39.2605C39.5127 0.524414 39.6808 0.586852 39.7659 0.712734C39.8499 0.838616 39.934 1.03298 40.0181 1.29582L44.7414 16.7491L49.4646 1.29582C49.5487 1.03298 49.6318 0.838616 49.7168 0.712734C49.8009 0.587859 49.969 0.524414 50.2222 0.524414H56.2792C56.5324 0.524414 56.7147 0.589873 56.8291 0.721797C56.9435 0.853722 57.0124 1.04506 57.0367 1.29582L59.6141 25.3363C59.6384 25.5871 59.5807 25.7754 59.4429 25.9003C59.3052 26.0262 59.1097 26.0886 58.8566 26.0886H53.9348C53.6826 26.0886 53.4993 26.0262 53.3859 25.9003C53.2714 25.7754 53.2026 25.5861 53.1783 25.3363L51.7716 11.8367L47.7339 25.3001C47.6377 25.6112 47.5354 25.8197 47.4281 25.9275C47.3197 26.0352 47.1395 26.0886 46.8873 26.0886H42.5964C42.3443 26.0886 42.161 26.0342 42.0465 25.9275C41.9321 25.8197 41.8328 25.6112 41.7498 25.3001L37.7658 11.4963H37.7648Z" fill="#D7D9FB"/>
<path d="M61.178 1.29582C61.178 1.04506 61.2499 0.853722 61.3937 0.721797C61.5385 0.59088 61.7117 0.524414 61.9162 0.524414H73.0217C74.2106 0.524414 75.2993 0.763087 76.2846 1.24144C77.271 1.71979 78.1146 2.35021 78.8174 3.1327C79.5213 3.91518 80.0641 4.80945 80.4489 5.81348C80.8337 6.81752 81.0262 7.84573 81.0262 8.8971C81.0262 9.94847 80.8368 10.9495 80.459 11.9364C80.0803 12.9223 79.5456 13.8035 78.8539 14.5809C78.1632 15.3584 77.3338 15.9818 76.3667 16.4541C75.3995 16.9264 74.326 17.162 73.1483 17.162H67.8487V25.3373C67.8487 25.8388 67.5844 26.0906 67.0548 26.0906H61.9173C61.4241 26.0906 61.179 25.8398 61.179 25.3373V1.29582H61.178ZM67.8487 5.99274V11.7289H71.5806C72.0008 11.7289 72.3766 11.6484 72.7077 11.4873C73.0379 11.3261 73.3143 11.1106 73.5361 10.8417C73.7589 10.5728 73.9301 10.2657 74.0506 9.91926C74.1701 9.57283 74.2308 9.22036 74.2308 8.86185C74.2308 8.50334 74.1701 8.17202 74.0506 7.83062C73.9301 7.49024 73.7559 7.18208 73.528 6.90715C73.2991 6.63222 73.0227 6.41168 72.6986 6.2435C72.3735 6.07633 72.0019 5.99274 71.5806 5.99274H67.8487Z" fill="#D7D9FB"/>
<path d="M82.1436 1.29481C82.1436 1.10448 82.2033 0.927237 82.3238 0.766108C82.4433 0.604979 82.6297 0.524414 82.8818 0.524414H94.365C95.5914 0.524414 96.7054 0.769129 97.709 1.25957C98.7126 1.75 99.5754 2.39553 100.296 3.19614C101.018 3.99675 101.576 4.91418 101.974 5.94742C102.369 6.98167 102.568 8.03606 102.568 9.1116C102.568 9.79237 102.466 10.4681 102.262 11.1368C102.058 11.8065 101.769 12.446 101.396 13.0552C101.024 13.6645 100.579 14.2355 100.063 14.7672C99.546 15.299 98.9749 15.7622 98.35 16.157L103.307 25.3363C103.403 25.5035 103.416 25.6707 103.343 25.8378C103.271 26.006 103.115 26.0886 102.875 26.0886H96.6365C96.3955 26.0886 96.2152 26.0382 96.0957 25.9365C95.9752 25.8348 95.8436 25.6465 95.6997 25.3716L91.6074 17.591H88.8133V25.3353C88.8133 25.8368 88.5601 26.0886 88.0558 26.0886H82.8818C82.3886 26.0886 82.1436 25.8378 82.1436 25.3353V1.29481ZM88.8143 5.84873V12.0875H92.6535C93.1102 12.0875 93.5285 11.9978 93.9072 11.8186C94.285 11.6393 94.6101 11.4057 94.8805 11.1197C95.1509 10.8327 95.3605 10.5044 95.5114 10.1338C95.6613 9.76317 95.7372 9.38048 95.7372 8.98672C95.7372 8.59296 95.6623 8.22841 95.5114 7.85781C95.3605 7.48721 95.1478 7.15287 94.8713 6.85377C94.5949 6.55569 94.2708 6.31298 93.8981 6.12769C93.5254 5.94239 93.1112 5.84974 92.6535 5.84974H88.8143V5.84873Z" fill="#D7D9FB"/>
<path d="M116.431 0.108398C109.106 0.108398 103.167 6.01278 103.167 13.2968C103.167 20.5809 109.106 26.4833 116.431 26.4833C123.756 26.4833 129.693 20.5799 129.693 13.2968C129.693 6.01379 123.756 0.108398 116.431 0.108398ZM124.104 14.5526L123.103 14.8618C121.78 15.4419 120.826 17.0854 120.982 18.5144L121.213 19.5315C121.293 20.2677 120.96 20.4792 120.617 20.6766C120.274 20.8729 119.922 21.0552 119.321 20.6181L118.551 19.9102C117.384 19.0612 115.476 19.0612 114.309 19.9102L113.539 20.6181C112.948 21.0482 112.603 20.8699 112.261 20.6856C111.906 20.4953 111.566 20.2798 111.647 19.5315L111.878 18.5144C112.034 17.0854 111.08 15.4419 109.757 14.8618L108.756 14.5526C108.075 14.2535 108.057 13.8608 108.057 13.467C108.057 13.0733 108.074 12.6795 108.756 12.3814L109.757 12.0722C111.08 11.4922 112.034 9.84867 111.878 8.41965L111.647 7.40151C111.567 6.66535 111.9 6.45387 112.243 6.2575C112.587 6.06112 112.938 5.87884 113.539 6.31591L114.309 7.02387C115.476 7.87282 117.384 7.87282 118.551 7.02387L119.321 6.31591C119.922 5.87884 120.273 6.06011 120.617 6.2575C120.96 6.45387 121.293 6.66636 121.213 7.40151L120.982 8.41965C120.826 9.84867 121.78 11.4922 123.103 12.0722L124.104 12.3814C124.786 12.6805 124.803 13.0733 124.803 13.467C124.803 13.8608 124.786 14.2545 124.104 14.5526Z" fill="#D7D9FB"/>
</svg>
