<svg width="353" height="41" viewBox="0 0 353 41" fill="none" xmlns="http://www.w3.org/2000/svg">
<path d="M83.3348 24.1164C83.3348 23.5885 83.2469 23.1178 83.0709 22.7043C82.895 22.2908 82.6046 21.9213 82.1999 21.5958C81.804 21.2615 81.2674 20.9535 80.5899 20.672C79.9213 20.3817 79.0855 20.0957 78.0825 19.8142C77.1236 19.5415 76.257 19.2424 75.4828 18.9168C74.7085 18.5913 74.0443 18.2174 73.49 17.7951C72.9446 17.3728 72.5267 16.8801 72.2363 16.3171C71.946 15.7452 71.8009 15.081 71.8009 14.3244C71.8009 13.5853 71.9592 12.9123 72.2759 12.3052C72.5927 11.6982 73.037 11.1747 73.6088 10.7348C74.1895 10.2949 74.8713 9.95621 75.6543 9.71867C76.4461 9.48113 77.3127 9.36236 78.2541 9.36236C79.6002 9.36236 80.7615 9.6175 81.738 10.1278C82.7234 10.638 83.4844 11.3287 84.0211 12.1997C84.5665 13.0619 84.8393 14.0296 84.8393 15.103H83.2161C83.2161 14.2672 83.0181 13.5237 82.6222 12.8727C82.2351 12.2129 81.6721 11.6982 80.933 11.3287C80.2028 10.9504 79.3098 10.7612 78.2541 10.7612C77.1983 10.7612 76.3098 10.924 75.5883 11.2495C74.8757 11.5662 74.3346 11.9929 73.9651 12.5296C73.6044 13.0575 73.4241 13.6469 73.4241 14.298C73.4241 14.7554 73.512 15.1777 73.688 15.5648C73.864 15.9432 74.1499 16.2995 74.5458 16.6338C74.9505 16.9593 75.4828 17.2672 76.1426 17.5576C76.8024 17.8391 77.6162 18.1074 78.584 18.3626C79.6046 18.6441 80.5107 18.9564 81.3025 19.2995C82.0944 19.6427 82.763 20.0386 83.3085 20.4873C83.8539 20.9271 84.2674 21.4418 84.549 22.0313C84.8305 22.6207 84.9713 23.307 84.9713 24.09C84.9713 24.873 84.8041 25.5768 84.4698 26.2015C84.1443 26.8173 83.6824 27.3408 83.0841 27.7719C82.4947 28.203 81.7952 28.5329 80.9858 28.7616C80.1852 28.9904 79.3098 29.1048 78.3597 29.1048C77.5063 29.1048 76.6573 28.9948 75.8127 28.7748C74.9681 28.5549 74.1939 28.2162 73.49 27.7587C72.795 27.2924 72.2363 26.6941 71.8141 25.9639C71.4006 25.2337 71.1938 24.3627 71.1938 23.351H72.8038C72.8038 24.1604 72.9666 24.8422 73.2921 25.3965C73.6176 25.9507 74.0487 26.3994 74.5854 26.7425C75.1308 27.0856 75.7291 27.3364 76.3801 27.4947C77.04 27.6443 77.6998 27.7191 78.3597 27.7191C79.3714 27.7191 80.2468 27.5695 80.9858 27.2704C81.7336 26.9713 82.3099 26.5534 82.7146 26.0167C83.1281 25.4712 83.3348 24.8378 83.3348 24.1164ZM98.7408 34.3307V17.3068L98.8464 14.5619H100.311V34.3307H98.7408ZM88.83 21.8465V21.5694C88.83 20.4609 88.9532 19.4623 89.1995 18.5737C89.4458 17.6763 89.8066 16.9109 90.2816 16.2775C90.7655 15.6352 91.3462 15.147 92.0236 14.8126C92.7098 14.4695 93.4885 14.298 94.3594 14.298C95.1952 14.298 95.9387 14.4343 96.5897 14.7071C97.2407 14.9798 97.7994 15.3713 98.2657 15.8816C98.7408 16.3918 99.1235 16.9989 99.4138 17.7027C99.7041 18.4066 99.9153 19.1896 100.047 20.0518V23.5753C99.9417 24.3847 99.7437 25.1281 99.4534 25.8056C99.1719 26.4742 98.7936 27.0593 98.3185 27.5607C97.8434 28.0534 97.2715 28.4361 96.6029 28.7089C95.9431 28.9728 95.1864 29.1048 94.3331 29.1048C93.4709 29.1048 92.6967 28.9288 92.0104 28.5769C91.333 28.225 90.7567 27.7279 90.2816 27.0856C89.8154 26.4346 89.4546 25.6648 89.1995 24.7762C88.9532 23.8876 88.83 22.9111 88.83 21.8465ZM90.4136 21.5694V21.8465C90.4136 22.6823 90.4972 23.4565 90.6643 24.1692C90.8403 24.8818 91.0998 25.5064 91.443 26.0431C91.7861 26.5798 92.2216 26.9977 92.7494 27.2968C93.2861 27.5959 93.9108 27.7455 94.6234 27.7455C95.5296 27.7455 96.295 27.5695 96.9196 27.2176C97.5443 26.8657 98.0414 26.3994 98.4109 25.8188C98.7892 25.2381 99.0619 24.6047 99.2291 23.9184V19.8142C99.1411 19.3655 98.9915 18.8992 98.7804 18.4154C98.5692 17.9315 98.2833 17.4828 97.9226 17.0693C97.5707 16.647 97.1264 16.3083 96.5897 16.0531C96.053 15.7892 95.4064 15.6572 94.6498 15.6572C93.9284 15.6572 93.2993 15.8112 92.7626 16.1191C92.2348 16.4182 91.7949 16.8361 91.443 17.3728C91.0998 17.9095 90.8403 18.5341 90.6643 19.2468C90.4972 19.9594 90.4136 20.7336 90.4136 21.5694ZM115.031 25.5416V14.5619H116.615V28.8408H115.097L115.031 25.5416ZM115.321 22.9023L116.139 22.8759C116.139 23.7733 116.034 24.6003 115.823 25.3569C115.612 26.1135 115.282 26.7733 114.833 27.3364C114.384 27.8994 113.804 28.3349 113.091 28.6429C112.378 28.9508 111.521 29.1048 110.518 29.1048C109.823 29.1048 109.185 29.008 108.604 28.8144C108.032 28.6121 107.54 28.2954 107.126 27.8643C106.713 27.4332 106.391 26.8745 106.163 26.1883C105.943 25.502 105.833 24.6706 105.833 23.6941V14.5619H107.403V23.7205C107.403 24.4859 107.487 25.1237 107.654 25.634C107.83 26.1443 108.067 26.5534 108.367 26.8613C108.674 27.1692 109.026 27.3892 109.422 27.5211C109.818 27.6531 110.245 27.7191 110.702 27.7191C111.864 27.7191 112.779 27.4947 113.447 27.0461C114.125 26.5974 114.604 26.0079 114.886 25.2777C115.176 24.5387 115.321 23.7469 115.321 22.9023ZM130.78 26.2806V18.9168C130.78 18.2394 130.639 17.6543 130.358 17.1617C130.076 16.669 129.663 16.2907 129.117 16.0267C128.572 15.7628 127.899 15.6308 127.098 15.6308C126.359 15.6308 125.699 15.7628 125.119 16.0267C124.547 16.2819 124.094 16.6294 123.759 17.0693C123.434 17.5004 123.271 17.9799 123.271 18.5077L121.687 18.4945C121.687 17.9579 121.819 17.4388 122.083 16.9373C122.347 16.4358 122.721 15.9871 123.205 15.5912C123.689 15.1953 124.265 14.883 124.934 14.6543C125.611 14.4167 126.355 14.298 127.164 14.298C128.185 14.298 129.082 14.4695 129.856 14.8126C130.639 15.1557 131.251 15.6704 131.691 16.3567C132.13 17.0429 132.35 17.9051 132.35 18.9432V25.8451C132.35 26.3378 132.386 26.8481 132.456 27.376C132.535 27.9038 132.645 28.3393 132.786 28.6825V28.8408H131.11C131.004 28.5241 130.921 28.1282 130.859 27.6531C130.806 27.1692 130.78 26.7117 130.78 26.2806ZM131.149 20.5268L131.176 21.7409H128.075C127.265 21.7409 126.539 21.8157 125.897 21.9653C125.264 22.1061 124.727 22.3172 124.287 22.5987C123.847 22.8715 123.509 23.2014 123.271 23.5885C123.042 23.9756 122.928 24.4155 122.928 24.9082C122.928 25.4185 123.055 25.8847 123.311 26.307C123.575 26.7293 123.944 27.0681 124.419 27.3232C124.903 27.5695 125.475 27.6927 126.135 27.6927C127.014 27.6927 127.789 27.5299 128.457 27.2044C129.135 26.8789 129.693 26.4522 130.133 25.9243C130.573 25.3965 130.868 24.8202 131.017 24.1956L131.704 25.1061C131.589 25.546 131.378 25.9991 131.07 26.4654C130.771 26.9229 130.38 27.354 129.896 27.7587C129.412 28.1546 128.84 28.4801 128.18 28.7352C127.529 28.9816 126.79 29.1048 125.963 29.1048C125.031 29.1048 124.217 28.9288 123.522 28.5769C122.835 28.225 122.299 27.7455 121.912 27.1384C121.533 26.5226 121.344 25.8276 121.344 25.0533C121.344 24.3495 121.494 23.7205 121.793 23.1662C122.092 22.6031 122.523 22.1281 123.086 21.7409C123.658 21.345 124.344 21.0459 125.145 20.8436C125.954 20.6324 126.861 20.5268 127.863 20.5268H131.149ZM139.508 16.9241V28.8408H137.938V14.5619H139.469L139.508 16.9241ZM144.563 14.4563L144.523 15.908C144.347 15.8816 144.176 15.8596 144.008 15.842C143.841 15.8244 143.661 15.8156 143.467 15.8156C142.781 15.8156 142.178 15.9432 141.659 16.1983C141.149 16.4446 140.718 16.7922 140.366 17.2408C140.014 17.6807 139.746 18.1998 139.561 18.7981C139.376 19.3875 139.271 20.021 139.244 20.6984L138.664 20.9227C138.664 19.9902 138.76 19.1236 138.954 18.323C139.148 17.5224 139.442 16.8229 139.838 16.2247C140.243 15.6176 140.749 15.147 141.356 14.8126C141.972 14.4695 142.693 14.298 143.52 14.298C143.722 14.298 143.92 14.3156 144.114 14.3507C144.316 14.3771 144.466 14.4123 144.563 14.4563ZM153.647 29.1048C152.715 29.1048 151.857 28.9332 151.074 28.5901C150.3 28.247 149.622 27.7631 149.042 27.1384C148.47 26.5138 148.026 25.7748 147.709 24.9214C147.401 24.0592 147.247 23.1178 147.247 22.0973V21.5298C147.247 20.4301 147.41 19.4359 147.735 18.5473C148.061 17.6587 148.509 16.8977 149.081 16.2643C149.653 15.6308 150.304 15.147 151.034 14.8126C151.773 14.4695 152.548 14.298 153.357 14.298C154.263 14.298 155.068 14.4607 155.772 14.7862C156.476 15.103 157.065 15.5561 157.54 16.1455C158.024 16.7262 158.389 17.4168 158.636 18.2174C158.882 19.0092 159.005 19.8846 159.005 20.8436V21.8069H148.197V20.4609H157.435V20.2761C157.417 19.4755 157.254 18.7277 156.947 18.0326C156.647 17.3288 156.199 16.757 155.6 16.3171C155.002 15.8772 154.254 15.6572 153.357 15.6572C152.688 15.6572 152.073 15.798 151.509 16.0795C150.955 16.3611 150.476 16.7658 150.071 17.2936C149.675 17.8127 149.367 18.433 149.147 19.1544C148.936 19.867 148.831 20.6588 148.831 21.5298V22.0973C148.831 22.8891 148.945 23.6281 149.174 24.3143C149.411 24.9918 149.745 25.59 150.177 26.1091C150.616 26.6282 151.136 27.0329 151.734 27.3232C152.332 27.6135 152.992 27.7587 153.713 27.7587C154.558 27.7587 155.306 27.6047 155.957 27.2968C156.608 26.9801 157.193 26.483 157.712 25.8056L158.702 26.571C158.394 27.0285 158.007 27.4508 157.54 27.8379C157.083 28.225 156.533 28.5329 155.891 28.7616C155.249 28.9904 154.501 29.1048 153.647 29.1048ZM178.098 10.7744L171.447 28.8408H169.758L177.016 9.62629H178.191L178.098 10.7744ZM184.142 28.8408L177.478 10.7744L177.386 9.62629H178.56L185.832 28.8408H184.142ZM182.955 22.0577V23.4565H172.754V22.0577H182.955ZM191.221 17.3068V34.3307H189.638V14.5619H191.116L191.221 17.3068ZM201.145 21.5694V21.8465C201.145 22.9111 201.022 23.8876 200.776 24.7762C200.529 25.6648 200.173 26.4346 199.707 27.0856C199.249 27.7279 198.682 28.225 198.004 28.5769C197.327 28.9288 196.557 29.1048 195.695 29.1048C194.842 29.1048 194.081 28.9728 193.412 28.7089C192.743 28.4449 192.167 28.071 191.683 27.5871C191.208 27.0944 190.825 26.5226 190.535 25.8715C190.253 25.2117 190.056 24.4903 189.941 23.7073V20.0518C190.073 19.1896 190.289 18.4066 190.588 17.7027C190.887 16.9989 191.27 16.3918 191.736 15.8816C192.211 15.3713 192.774 14.9798 193.425 14.7071C194.076 14.4343 194.82 14.298 195.655 14.298C196.526 14.298 197.301 14.4695 197.978 14.8126C198.664 15.147 199.24 15.6352 199.707 16.2775C200.182 16.9109 200.538 17.6763 200.776 18.5737C201.022 19.4623 201.145 20.4609 201.145 21.5694ZM199.562 21.8465V21.5694C199.562 20.7336 199.474 19.9594 199.298 19.2468C199.131 18.5341 198.871 17.9139 198.519 17.386C198.176 16.8493 197.736 16.4314 197.199 16.1323C196.672 15.8332 196.042 15.6836 195.312 15.6836C194.556 15.6836 193.909 15.8112 193.372 16.0663C192.844 16.3127 192.405 16.6426 192.053 17.0561C191.701 17.4608 191.424 17.9051 191.221 18.389C191.019 18.8728 190.869 19.3479 190.773 19.8142V24.024C190.94 24.6926 191.208 25.3129 191.578 25.8847C191.947 26.4478 192.44 26.9009 193.056 27.244C193.68 27.5783 194.441 27.7455 195.339 27.7455C196.06 27.7455 196.685 27.5959 197.213 27.2968C197.74 26.9977 198.176 26.5798 198.519 26.0431C198.871 25.5064 199.131 24.8818 199.298 24.1692C199.474 23.4565 199.562 22.6823 199.562 21.8465ZM207.564 17.3068V34.3307H205.981V14.5619H207.459L207.564 17.3068ZM217.488 21.5694V21.8465C217.488 22.9111 217.365 23.8876 217.119 24.7762C216.872 25.6648 216.516 26.4346 216.05 27.0856C215.592 27.7279 215.025 28.225 214.347 28.5769C213.67 28.9288 212.9 29.1048 212.038 29.1048C211.184 29.1048 210.423 28.9728 209.755 28.7089C209.086 28.4449 208.51 28.071 208.026 27.5871C207.551 27.0944 207.168 26.5226 206.878 25.8715C206.596 25.2117 206.398 24.4903 206.284 23.7073V20.0518C206.416 19.1896 206.632 18.4066 206.931 17.7027C207.23 16.9989 207.613 16.3918 208.079 15.8816C208.554 15.3713 209.117 14.9798 209.768 14.7071C210.419 14.4343 211.162 14.298 211.998 14.298C212.869 14.298 213.643 14.4695 214.321 14.8126C215.007 15.147 215.583 15.6352 216.05 16.2775C216.525 16.9109 216.881 17.6763 217.119 18.5737C217.365 19.4623 217.488 20.4609 217.488 21.5694ZM215.905 21.8465V21.5694C215.905 20.7336 215.817 19.9594 215.641 19.2468C215.473 18.5341 215.214 17.9139 214.862 17.386C214.519 16.8493 214.079 16.4314 213.542 16.1323C213.014 15.8332 212.385 15.6836 211.655 15.6836C210.899 15.6836 210.252 15.8112 209.715 16.0663C209.187 16.3127 208.747 16.6426 208.396 17.0561C208.044 17.4608 207.767 17.9051 207.564 18.389C207.362 18.8728 207.212 19.3479 207.115 19.8142V24.024C207.283 24.6926 207.551 25.3129 207.92 25.8847C208.29 26.4478 208.783 26.9009 209.399 27.244C210.023 27.5783 210.784 27.7455 211.682 27.7455C212.403 27.7455 213.028 27.5959 213.556 27.2968C214.083 26.9977 214.519 26.5798 214.862 26.0431C215.214 25.5064 215.473 24.8818 215.641 24.1692C215.817 23.4565 215.905 22.6823 215.905 21.8465ZM221.479 21.9257V21.4902C221.479 20.4521 221.628 19.4931 221.928 18.6133C222.227 17.7335 222.653 16.9725 223.208 16.3303C223.771 15.688 224.444 15.1909 225.227 14.839C226.01 14.4783 226.881 14.298 227.84 14.298C228.807 14.298 229.683 14.4783 230.466 14.839C231.249 15.1909 231.922 15.688 232.485 16.3303C233.048 16.9725 233.479 17.7335 233.778 18.6133C234.077 19.4931 234.227 20.4521 234.227 21.4902V21.9257C234.227 22.9638 234.077 23.9228 233.778 24.8026C233.479 25.6736 233.048 26.4302 232.485 27.0725C231.931 27.7147 231.262 28.2162 230.479 28.5769C229.696 28.9288 228.825 29.1048 227.866 29.1048C226.898 29.1048 226.023 28.9288 225.24 28.5769C224.457 28.2162 223.784 27.7147 223.221 27.0725C222.658 26.4302 222.227 25.6736 221.928 24.8026C221.628 23.9228 221.479 22.9638 221.479 21.9257ZM223.049 21.4902V21.9257C223.049 22.7087 223.155 23.4521 223.366 24.156C223.577 24.851 223.885 25.4712 224.29 26.0167C224.694 26.5534 225.196 26.9757 225.794 27.2836C226.392 27.5915 227.083 27.7455 227.866 27.7455C228.64 27.7455 229.322 27.5915 229.912 27.2836C230.51 26.9757 231.011 26.5534 231.416 26.0167C231.821 25.4712 232.124 24.851 232.327 24.156C232.538 23.4521 232.643 22.7087 232.643 21.9257V21.4902C232.643 20.716 232.538 19.9814 232.327 19.2863C232.124 18.5913 231.816 17.9711 231.403 17.4256C230.998 16.8801 230.497 16.449 229.898 16.1323C229.3 15.8156 228.614 15.6572 227.84 15.6572C227.065 15.6572 226.379 15.8156 225.781 16.1323C225.192 16.449 224.69 16.8801 224.277 17.4256C223.872 17.9711 223.564 18.5913 223.353 19.2863C223.15 19.9814 223.049 20.716 223.049 21.4902ZM240.606 14.5619V28.8408H239.036V14.5619H240.606ZM238.759 10.4313C238.759 10.1322 238.851 9.88143 239.036 9.67908C239.229 9.46793 239.493 9.36236 239.828 9.36236C240.162 9.36236 240.426 9.46793 240.619 9.67908C240.822 9.88143 240.923 10.1322 240.923 10.4313C240.923 10.7216 240.822 10.9724 240.619 11.1835C240.426 11.3859 240.162 11.487 239.828 11.487C239.493 11.487 239.229 11.3859 239.036 11.1835C238.851 10.9724 238.759 10.7216 238.759 10.4313ZM247.843 17.6104V28.8408H246.273V14.5619H247.777L247.843 17.6104ZM247.487 20.8172L246.788 20.4213C246.84 19.5767 247.012 18.7849 247.302 18.0458C247.593 17.3068 247.984 16.6558 248.477 16.0927C248.978 15.5297 249.563 15.0898 250.232 14.773C250.909 14.4563 251.657 14.298 252.475 14.298C253.188 14.298 253.826 14.3947 254.389 14.5883C254.952 14.7818 255.432 15.0898 255.827 15.5121C256.223 15.9344 256.522 16.4754 256.725 17.1353C256.936 17.7951 257.042 18.6001 257.042 19.5503V28.8408H255.458V19.5371C255.458 18.5517 255.322 17.7819 255.049 17.2276C254.776 16.6646 254.389 16.2643 253.888 16.0267C253.386 15.7892 252.792 15.6704 252.106 15.6704C251.349 15.6704 250.685 15.8376 250.113 16.1719C249.55 16.4974 249.075 16.9241 248.688 17.452C248.31 17.9711 248.019 18.5297 247.817 19.128C247.615 19.7174 247.505 20.2805 247.487 20.8172ZM267.881 14.5619V15.8552H260.729V14.5619H267.881ZM263.355 10.8932H264.925V25.3701C264.925 26.0299 265.013 26.527 265.189 26.8613C265.365 27.1956 265.594 27.42 265.875 27.5343C266.157 27.6487 266.461 27.7059 266.786 27.7059C267.024 27.7059 267.252 27.6927 267.472 27.6663C267.692 27.6311 267.89 27.5959 268.066 27.5607L268.132 28.8936C267.939 28.9552 267.688 29.0036 267.38 29.0388C267.072 29.0828 266.764 29.1048 266.456 29.1048C265.849 29.1048 265.312 28.9948 264.846 28.7748C264.38 28.5461 264.015 28.159 263.751 27.6135C263.487 27.0593 263.355 26.307 263.355 25.3569V10.8932ZM274.036 17.518V28.8408H272.453V14.5619H273.97L274.036 17.518ZM273.746 20.8172L272.981 20.4213C273.033 19.5767 273.192 18.7849 273.456 18.0458C273.728 17.3068 274.107 16.6558 274.591 16.0927C275.075 15.5297 275.655 15.0898 276.333 14.773C277.01 14.4563 277.78 14.298 278.642 14.298C279.337 14.298 279.966 14.3947 280.529 14.5883C281.101 14.773 281.585 15.0678 281.981 15.4725C282.386 15.8684 282.698 16.3874 282.918 17.0297C283.138 17.6719 283.248 18.4417 283.248 19.3391V28.8408H281.677V19.3919C281.677 18.4417 281.528 17.6983 281.229 17.1617C280.938 16.625 280.529 16.2423 280.001 16.0135C279.482 15.7848 278.88 15.6704 278.193 15.6704C277.384 15.6704 276.698 15.8376 276.135 16.1719C275.58 16.4974 275.127 16.9241 274.775 17.452C274.432 17.9711 274.177 18.5297 274.01 19.128C273.843 19.7174 273.755 20.2805 273.746 20.8172ZM283.235 19.5767L282.179 19.6031C282.223 18.908 282.381 18.2438 282.654 17.6104C282.935 16.9769 283.318 16.4138 283.802 15.9212C284.286 15.4197 284.862 15.0238 285.531 14.7335C286.208 14.4431 286.969 14.298 287.814 14.298C288.553 14.298 289.213 14.3991 289.793 14.6015C290.374 14.795 290.862 15.1074 291.258 15.5385C291.663 15.9608 291.971 16.5018 292.182 17.1617C292.393 17.8215 292.499 18.6133 292.499 19.5371V28.8408H290.915V19.5239C290.915 18.5121 290.766 17.7291 290.466 17.1749C290.176 16.6118 289.771 16.2203 289.252 16.0003C288.733 15.7804 288.126 15.6704 287.431 15.6704C286.745 15.6792 286.142 15.8068 285.623 16.0531C285.104 16.2907 284.669 16.6074 284.317 17.0033C283.974 17.3904 283.71 17.8083 283.525 18.257C283.349 18.7057 283.252 19.1456 283.235 19.5767ZM303.378 29.1048C302.446 29.1048 301.588 28.9332 300.805 28.5901C300.031 28.247 299.353 27.7631 298.772 27.1384C298.201 26.5138 297.756 25.7748 297.44 24.9214C297.132 24.0592 296.978 23.1178 296.978 22.0973V21.5298C296.978 20.4301 297.14 19.4359 297.466 18.5473C297.791 17.6587 298.24 16.8977 298.812 16.2643C299.384 15.6308 300.035 15.147 300.765 14.8126C301.504 14.4695 302.278 14.298 303.088 14.298C303.994 14.298 304.799 14.4607 305.503 14.7862C306.207 15.103 306.796 15.5561 307.271 16.1455C307.755 16.7262 308.12 17.4168 308.367 18.2174C308.613 19.0092 308.736 19.8846 308.736 20.8436V21.8069H297.928V20.4609H307.166V20.2761C307.148 19.4755 306.985 18.7277 306.677 18.0326C306.378 17.3288 305.93 16.757 305.331 16.3171C304.733 15.8772 303.985 15.6572 303.088 15.6572C302.419 15.6572 301.803 15.798 301.24 16.0795C300.686 16.3611 300.207 16.7658 299.802 17.2936C299.406 17.8127 299.098 18.433 298.878 19.1544C298.667 19.867 298.561 20.6588 298.561 21.5298V22.0973C298.561 22.8891 298.676 23.6281 298.904 24.3143C299.142 24.9918 299.476 25.59 299.907 26.1091C300.347 26.6282 300.866 27.0329 301.465 27.3232C302.063 27.6135 302.723 27.7587 303.444 27.7587C304.289 27.7587 305.037 27.6047 305.688 27.2968C306.339 26.9801 306.924 26.483 307.443 25.8056L308.433 26.571C308.125 27.0285 307.737 27.4508 307.271 27.8379C306.814 28.225 306.264 28.5329 305.622 28.7616C304.979 28.9904 304.232 29.1048 303.378 29.1048ZM314.772 17.6104V28.8408H313.202V14.5619H314.706L314.772 17.6104ZM314.416 20.8172L313.716 20.4213C313.769 19.5767 313.941 18.7849 314.231 18.0458C314.522 17.3068 314.913 16.6558 315.406 16.0927C315.907 15.5297 316.492 15.0898 317.161 14.773C317.838 14.4563 318.586 14.298 319.404 14.298C320.117 14.298 320.755 14.3947 321.318 14.5883C321.881 14.7818 322.36 15.0898 322.756 15.5121C323.152 15.9344 323.451 16.4754 323.654 17.1353C323.865 17.7951 323.97 18.6001 323.97 19.5503V28.8408H322.387V19.5371C322.387 18.5517 322.25 17.7819 321.978 17.2276C321.705 16.6646 321.318 16.2643 320.816 16.0267C320.315 15.7892 319.721 15.6704 319.035 15.6704C318.278 15.6704 317.614 15.8376 317.042 16.1719C316.479 16.4974 316.004 16.9241 315.617 17.452C315.239 17.9711 314.948 18.5297 314.746 19.128C314.543 19.7174 314.434 20.2805 314.416 20.8172ZM334.81 14.5619V15.8552H327.658V14.5619H334.81ZM330.284 10.8932H331.854V25.3701C331.854 26.0299 331.942 26.527 332.118 26.8613C332.294 27.1956 332.523 27.42 332.804 27.5343C333.086 27.6487 333.389 27.7059 333.715 27.7059C333.952 27.7059 334.181 27.6927 334.401 27.6663C334.621 27.6311 334.819 27.5959 334.995 27.5607L335.061 28.8936C334.867 28.9552 334.617 29.0036 334.309 29.0388C334.001 29.0828 333.693 29.1048 333.385 29.1048C332.778 29.1048 332.241 28.9948 331.775 28.7748C331.309 28.5461 330.944 28.159 330.68 27.6135C330.416 27.0593 330.284 26.307 330.284 25.3569V10.8932ZM348.026 25.1985C348.026 24.8114 347.929 24.4287 347.735 24.0504C347.542 23.6721 347.168 23.3246 346.613 23.0078C346.068 22.6911 345.263 22.4228 344.198 22.2028C343.407 22.0269 342.698 21.8289 342.074 21.609C341.458 21.389 340.939 21.1251 340.517 20.8172C340.094 20.5092 339.773 20.1397 339.553 19.7086C339.333 19.2775 339.223 18.7673 339.223 18.1778C339.223 17.6499 339.338 17.1529 339.566 16.6866C339.804 16.2115 340.138 15.798 340.569 15.4461C341.009 15.0854 341.537 14.8038 342.153 14.6015C342.778 14.3991 343.477 14.298 344.251 14.298C345.351 14.298 346.292 14.4871 347.075 14.8654C347.867 15.2349 348.47 15.7408 348.883 16.383C349.306 17.0253 349.517 17.7511 349.517 18.5605H347.946C347.946 18.0678 347.801 17.6016 347.511 17.1617C347.229 16.7218 346.811 16.3611 346.257 16.0795C345.712 15.798 345.043 15.6572 344.251 15.6572C343.433 15.6572 342.769 15.7804 342.259 16.0267C341.748 16.2731 341.374 16.5854 341.137 16.9637C340.908 17.342 340.794 17.7335 340.794 18.1382C340.794 18.4549 340.842 18.7453 340.939 19.0092C341.044 19.2643 341.229 19.5019 341.493 19.7218C341.766 19.9418 342.153 20.1485 342.654 20.3421C343.156 20.5356 343.807 20.7248 344.608 20.9095C345.76 21.1647 346.701 21.477 347.432 21.8465C348.171 22.2072 348.716 22.6559 349.068 23.1926C349.42 23.7205 349.596 24.3627 349.596 25.1193C349.596 25.7088 349.473 26.2499 349.226 26.7425C348.98 27.2264 348.624 27.6443 348.157 27.9962C347.7 28.3481 347.146 28.6209 346.495 28.8144C345.852 29.008 345.131 29.1048 344.33 29.1048C343.125 29.1048 342.105 28.9068 341.269 28.5109C340.442 28.1062 339.813 27.5783 339.382 26.9273C338.959 26.2674 338.748 25.568 338.748 24.829H340.319C340.371 25.568 340.605 26.1531 341.018 26.5842C341.432 27.0065 341.937 27.3056 342.536 27.4816C343.143 27.6575 343.741 27.7455 344.33 27.7455C345.14 27.7455 345.817 27.6267 346.363 27.3892C346.908 27.1516 347.322 26.8393 347.603 26.4522C347.885 26.0651 348.026 25.6472 348.026 25.1985Z" fill="#C9CACC"/>
<g clip-path="url(#clip0_408_11369)">
<path d="M37.6722 14.219C39.1894 14.219 40.4238 12.9847 40.4238 11.4674V6.88139C40.4238 5.36414 39.1894 4.12977 37.6722 4.12977H35.8372C35.4111 2.03899 33.5582 0.460938 31.3435 0.460938H9.14707C6.61833 0.460938 4.56104 2.51823 4.56104 5.04697V6.0559H2.54318C2.0367 6.0559 1.62598 6.46653 1.62598 6.97311C1.62598 7.47968 2.0367 7.89031 2.54318 7.89031H4.56104V15.228H2.54318C2.0367 15.228 1.62598 15.6386 1.62598 16.1452C1.62598 16.6517 2.0367 17.0624 2.54318 17.0624H4.56104V24.4H2.54318C2.0367 24.4 1.62598 24.8107 1.62598 25.3172C1.62598 25.8238 2.0367 26.2344 2.54318 26.2344H4.56104V33.5721H2.54318C2.0367 33.5721 1.62598 33.9827 1.62598 34.4893C1.62598 34.9959 2.0367 35.4065 2.54318 35.4065H4.56104V36.4154C4.56104 38.9442 6.61833 41.0015 9.14707 41.0015H31.3435C33.5582 41.0015 35.4111 39.4234 35.8372 37.3327H37.6722C39.1894 37.3327 40.4238 36.0983 40.4238 34.581V29.995C40.4238 28.4778 39.1894 27.2434 37.6722 27.2434H35.9295V25.7758H37.6722C39.1894 25.7758 40.4238 24.5415 40.4238 23.0242V18.4382C40.4238 16.9209 39.1894 15.6866 37.6722 15.6866H35.9295V14.219H37.6722ZM38.5894 6.88139V11.4674C38.5894 11.9732 38.1779 12.3846 37.6722 12.3846H35.9295V5.96418H37.6722C38.1779 5.96418 38.5894 6.37564 38.5894 6.88139ZM31.3435 39.1671H13.9165V31.8294C13.9165 31.3228 13.5058 30.9122 12.9993 30.9122C12.4929 30.9122 12.0821 31.3228 12.0821 31.8294V39.1671H9.14707C7.62983 39.1671 6.39545 37.9327 6.39545 36.4154V35.4065H8.41331C8.91979 35.4065 9.33051 34.9959 9.33051 34.4893C9.33051 33.9827 8.91979 33.5721 8.41331 33.5721H6.39545V26.2344H8.41331C8.91979 26.2344 9.33051 25.8238 9.33051 25.3172C9.33051 24.8107 8.91979 24.4 8.41331 24.4H6.39545V17.0624H8.41331C8.91979 17.0624 9.33051 16.6517 9.33051 16.1452C9.33051 15.6386 8.91979 15.228 8.41331 15.228H6.39545V7.89031H8.41331C8.91979 7.89031 9.33051 7.47968 9.33051 6.97311C9.33051 6.46653 8.91979 6.0559 8.41331 6.0559H6.39545V5.04697C6.39545 3.52973 7.62983 2.29535 9.14707 2.29535H12.0821V28.701C12.0821 29.2076 12.4929 29.6182 12.9993 29.6182C13.5058 29.6182 13.9165 29.2076 13.9165 28.701V2.29535H31.3435C32.8607 2.29535 34.0951 3.52973 34.0951 5.04697V36.4154C34.0951 37.9327 32.8607 39.1671 31.3435 39.1671ZM37.6722 29.0778C38.1779 29.0778 38.5894 29.4893 38.5894 29.995V34.581C38.5894 35.0868 38.1779 35.4982 37.6722 35.4982H35.9295V29.0778H37.6722ZM37.6722 17.521C38.1779 17.521 38.5894 17.9324 38.5894 18.4382V23.0242C38.5894 23.53 38.1779 23.9414 37.6722 23.9414H35.9295V17.521H37.6722Z" fill="#006BFF"/>
</g>
<defs>
<clipPath id="clip0_408_11369">
<rect width="40.5405" height="40.5405" fill="white" transform="translate(0.762695 0.458984)"/>
</clipPath>
</defs>
</svg>
