<svg width="31" height="24" viewBox="0 0 31 24" fill="none" xmlns="http://www.w3.org/2000/svg">
<path d="M1 19.6693C1 18.2548 1.5619 16.8982 2.5621 15.898C3.56229 14.8978 4.91885 14.3359 6.33333 14.3359H17C18.4145 14.3359 19.771 14.8978 20.7712 15.898C21.7714 16.8982 22.3333 18.2548 22.3333 19.6693C22.3333 20.3765 22.0524 21.0548 21.5523 21.5549C21.0522 22.055 20.3739 22.3359 19.6667 22.3359H3.66667C2.95942 22.3359 2.28115 22.055 1.78105 21.5549C1.28095 21.0548 1 20.3765 1 19.6693Z" stroke="#40DF40" stroke-width="2" stroke-linejoin="round"/>
<path d="M23.7109 14.3359C23.7109 14.3359 26.482 14.8978 27.4822 15.898C28.4824 16.8982 29.0443 18.2548 29.0443 19.6693C29.0443 20.3765 28.7633 21.0548 28.2632 21.5549C27.7631 22.055 27.0848 22.3359 26.3776 22.3359" stroke="#40DF40" stroke-width="2" stroke-linecap="round" stroke-linejoin="round"/>
<path d="M11.6641 9C13.8732 9 15.6641 7.20914 15.6641 5C15.6641 2.79086 13.8732 1 11.6641 1C9.45492 1 7.66406 2.79086 7.66406 5C7.66406 7.20914 9.45492 9 11.6641 9Z" stroke="#40DF40" stroke-width="2"/>
<path d="M18.375 9C20.5841 9 22.375 7.20914 22.375 5C22.375 2.79086 20.5841 1 18.375 1" stroke="#40DF40" stroke-width="2" stroke-linecap="round"/>
</svg>
