<svg width="1728" height="557" viewBox="0 0 1728 557" fill="none" xmlns="http://www.w3.org/2000/svg">
<g opacity="0.09">
<path d="M1940.79 266.254C1884.48 284.226 1828.1 258.213 1778.29 233.491C1750.45 219.667 1722.16 205.705 1691.54 199.346C1662.56 193.333 1632.97 195.591 1604.89 204.737C1554.43 221.165 1512.01 254.85 1466.39 280.862C1420.59 306.989 1371.28 321.965 1318.27 321.642C1267.24 321.343 1215.46 308.141 1171.99 281.046C1134 257.361 1104.53 223.031 1078.12 187.388C1050.57 150.179 1025.8 110.596 993.889 76.8194C960.781 41.7986 920.553 17.3071 872.929 8.11415C844.682 2.65367 814.523 2.16983 786.829 10.7407C766.07 17.1689 750.149 29.7717 733.168 42.6281C702.272 66.0367 670.822 88.7542 638.681 110.435C564.677 160.386 484.498 210.521 397.499 233.906C365.427 242.523 333.24 245.518 300.5 239.205C271.954 233.699 244.744 222.824 218.985 209.53C165.532 181.974 118.208 144.396 66.8287 113.407C18.007 83.9387 -37.0125 59.9772 -95.3037 68.2716C-177.418 79.9528 -242.391 145.916 -292.319 207.111C-312.433 231.763 -331.095 257.568 -348.951 283.903C-349.988 285.424 -352.476 283.995 -351.439 282.451C-319.345 235.127 -284.554 189.024 -243.497 149.027C-215.573 121.817 -184.192 96.9794 -148.388 80.9666C-95.5803 57.3506 -39.593 60.0002 13.1226 82.1877C68.2343 105.389 116.019 142.737 165.947 174.947C216.197 207.364 273.221 239.32 334.692 240.058C374.597 240.542 414.295 227.455 450.79 212.456C494.728 194.393 536.591 171.353 577.096 146.631C615.25 123.337 652.298 98.2236 688.54 72.0501C703.055 61.5669 717.455 50.8994 731.717 40.0936C746.923 28.5736 761.462 16.8002 779.594 10.0956C825.328 -6.74665 880.417 1.13304 923.871 21.1548C964.075 39.679 995.502 71.428 1022.44 105.85C1050.71 141.977 1074.9 181.145 1104.44 216.304C1137.89 256.117 1178.21 287.382 1227.98 303.971C1281.43 321.781 1340.71 323.808 1395.04 308.694C1448.28 293.902 1492.57 260.287 1539.48 232.593C1582.52 207.18 1629.72 187.365 1680.73 194.485C1740.59 202.848 1789.71 241.809 1846.37 259.78C1876.87 269.457 1909.04 273.281 1939.98 263.397C1941.75 262.821 1942.52 265.609 1940.74 266.185L1940.79 266.254Z" fill="#00D800"/>
<path d="M1931.57 277.428C1883.58 292.634 1833.93 271.852 1791.58 249.803C1744.51 225.311 1696.58 197.11 1641.59 199.944C1593.85 202.41 1551.25 226.348 1510.88 249.849C1470.19 273.534 1429.57 297.38 1383.08 307.633C1290.55 328.07 1189.43 304.845 1119.99 239.389C1063.75 186.374 1028.19 114.212 967.046 66.0819C929.053 36.1759 881.868 19.4489 833.53 18.0434C805.49 17.237 776.506 22.2137 752.314 37.0284C737.522 46.0831 723.629 56.8889 709.321 66.7039C630.063 121.055 547.834 173.494 459.637 212.201C415.653 231.509 366.463 250.033 317.549 246.9C268.612 243.766 222.97 223.122 180.968 199.092C126.732 168.034 76.4814 129.88 20.5863 101.748C-26.1388 78.2239 -77.8406 63.9852 -129.957 76.1964C-202.464 93.1999 -259.511 150.892 -304.784 206.764C-322.318 228.422 -338.653 251.001 -354.274 274.064C-355.311 275.585 -357.8 274.156 -356.763 272.612C-310.014 203.7 -254.442 130.663 -178.825 91.518C-132.192 67.3951 -80.6974 62.6949 -30.4702 77.7861C107.609 119.281 216.012 273.05 372.407 239.02C425.745 227.408 476.133 203.032 524.079 177.572C568.524 153.956 611.608 127.783 653.795 100.365C686.465 79.1225 717.569 54.7462 750.862 34.5401C792.726 9.12697 846.386 11.5001 891.959 24.4025C970.272 46.59 1017.3 110.526 1064.76 171.859C1089.55 203.884 1115.79 235.426 1148.58 259.641C1191.06 290.998 1243.39 307.587 1295.8 311.089C1351.08 314.799 1404.62 303.463 1453.95 278.488C1494.59 257.913 1532.1 231.186 1574.24 213.561C1616.41 195.912 1660.37 191.811 1704.26 205.796C1755.08 221.97 1798.26 255.425 1849.11 271.529C1875.81 279.985 1903.78 283.211 1930.86 274.64C1932.63 274.087 1933.39 276.852 1931.62 277.428H1931.57Z" fill="#00D800"/>
<path d="M1922.39 288.577C1876.4 303.046 1828.92 280.513 1789.22 258.579C1743.39 233.258 1696.78 203.882 1642.64 203.444C1595.5 203.053 1552.46 224.042 1511.82 245.7C1471.17 267.357 1430.16 290.236 1384.34 300.305C1293.3 320.326 1192.07 301.134 1120.18 240.354C1062.21 191.325 1024.77 121.814 962.911 77.0008C924.572 49.2376 878.078 33.8008 830.8 31.9115C803.958 30.8287 776.517 34.7455 752.325 46.8876C736.428 54.8594 721.659 65.7573 706.614 75.2728C628.232 124.832 547.961 172.617 463.312 210.794C419.443 230.585 371.912 250.008 323.136 251.414C275.167 252.796 228.649 234.571 186.716 212.891C127.918 182.455 74.0968 143.448 15.5292 112.69C-31.795 87.8296 -84.5105 69.3054 -138.608 78.6366C-209.572 90.8709 -266.02 144.301 -310.28 197.684C-327.905 218.95 -344.171 241.322 -359.7 264.178C-360.737 265.698 -363.225 264.27 -362.189 262.726C-317.122 196.325 -262.448 125.569 -187.591 91.1243C-139.3 68.8907 -87.1371 68.9368 -37.3477 86.1708C14.2389 104.004 60.2499 134.9 106.445 163.286C145.567 187.339 185.265 211.739 227.981 228.927C252.104 238.626 277.425 245.746 303.391 247.958C329.357 250.169 353.342 246.276 377.557 239.755C428.913 225.931 477.573 202.131 524.644 177.778C568.443 155.106 611.251 130.477 653.415 104.879C670.764 94.35 687.998 83.6363 705.14 72.8075C719.678 63.6146 733.916 53.2235 749.169 45.2747C792.461 22.7416 845.269 25.9211 890.957 38.8927C967.381 60.5963 1014.87 120.063 1064.03 178.169C1089.31 208.029 1116.24 236.875 1149.07 258.556C1192.62 287.287 1244.9 301.756 1296.71 304.429C1351.62 307.263 1404.61 296.157 1454.12 272.518C1494.44 253.28 1532.32 228.512 1574.48 213.259C1617.8 197.592 1662.08 196.832 1705.44 212.96C1754.01 231.023 1795.42 264.063 1844.38 281.181C1869.37 289.936 1895.87 293.899 1921.58 285.812C1923.36 285.259 1924.12 288.024 1922.34 288.6L1922.39 288.577Z" fill="#00D800"/>
<path d="M1913.17 299.755C1869.21 313.509 1823.94 289.387 1786.89 267.683C1742.79 241.855 1698.21 211.834 1645.81 207.548C1598.7 203.701 1554.62 221.764 1513.06 241.809C1471.65 261.785 1430.85 283.304 1385.53 293.096C1296.48 312.311 1196.12 297.243 1122.21 242.201C1063.2 198.263 1023.89 133.175 963.369 91.1043C925.975 65.1152 881.83 50.1852 836.534 46.3606C809.623 44.1027 782.09 46.1533 756.654 55.6918C738.798 62.3965 722.532 73.3635 706.081 82.9021C627.1 128.683 546.99 173.127 463.77 210.82C421.076 230.151 376.171 249.435 329.17 254.665C282.168 259.895 238.231 246.371 196.92 227.778C131.855 198.471 73.1263 157.782 10.5726 123.867C-36.5441 98.3158 -88.7068 76.2896 -143.45 81.0128C-215.45 87.2336 -273.418 138.359 -317.955 191.328C-334.843 211.419 -350.326 232.593 -365.072 254.297C-366.108 255.817 -368.597 254.389 -367.56 252.845C-324.291 189.116 -270.861 121.402 -197.409 91.3347C-147.344 70.8521 -94.1903 75.5063 -44.5391 94.6755C8.47595 115.135 56.0996 147.276 104.968 175.753C146.693 200.037 189.593 224.736 235.581 239.943C259.543 247.868 284.726 253.053 310.047 252.937C334.123 252.822 357.97 247.408 380.871 240.357C431.191 224.851 479.206 201.305 526.185 177.758C568.21 156.676 609.59 134.327 650.578 111.287C668.249 101.357 685.829 91.2886 703.362 81.128C718.2 72.5341 732.854 62.719 748.613 55.8531C793.311 36.4074 845.289 40.4393 891.138 53.6182C927.265 63.9862 959.936 82.5795 988.436 106.933C1016.15 130.618 1039.68 158.588 1064.54 185.154C1091.33 213.792 1120.25 240.749 1154.74 259.941C1198.77 284.456 1249.62 296.091 1299.75 297.75C1353.67 299.524 1405.48 288.557 1454.63 266.669C1495.2 248.583 1533.91 225.404 1576.72 212.732C1620.61 199.738 1664.34 202.687 1706.48 220.474C1752.88 240.058 1792.53 272.844 1839.6 290.953C1862.97 299.939 1887.96 304.616 1912.36 296.99C1914.14 296.437 1914.9 299.225 1913.12 299.778L1913.17 299.755Z" fill="#00D800"/>
<path d="M1903.98 310.932C1860.75 324.318 1816.35 296.993 1781.1 274.897C1739.88 249.046 1698.21 220.2 1649.08 212.39C1601.74 204.856 1556.14 220.246 1513.22 238.771C1471.15 256.926 1429.93 277.132 1384.72 286.371C1297.79 304.158 1199.83 292.177 1124.58 243.356C1063.98 204.049 1022.28 142.463 961.686 103.272C924.062 78.9421 880.447 64.8647 835.934 60.4871C809.599 57.9066 782.826 59.0816 757.39 66.8461C738.382 72.6522 721.171 82.8359 703.684 92.0749C626.016 133.017 547.818 173.176 467.777 209.325C423.955 229.117 378.451 250.659 330.551 258.101C286.568 264.944 241.617 253.885 200.767 237.941C132.384 211.238 70.7292 171.24 6.83936 135.759C-41.5908 108.848 -94.8132 83.0662 -151.561 84.2643C-221.787 85.7619 -279.295 131.45 -323.324 182.346C-340.328 201.999 -355.764 222.919 -370.372 244.415C-371.408 245.936 -373.897 244.508 -372.86 242.964C-330.973 181.309 -277.958 115.714 -204.829 90.8077C-153.427 73.2973 -100.112 82.951 -51.2216 103.641C3.72888 126.888 53.4491 160.619 105.704 189.05C149.641 212.943 195.237 236.536 243.921 249.046C267.26 255.037 291.844 258.838 315.967 256.972C340.09 255.106 363.591 248.217 386.262 240.153C434.485 223.011 481.072 200.593 527.151 178.452C568.646 158.522 609.727 137.763 650.6 116.612C667.857 107.673 685.068 98.6643 702.255 89.6096C717.07 81.7991 731.701 73.0669 747.414 67.2147C792.342 50.4416 842.915 54.9345 888.327 67.3991C924.223 77.2602 957.193 94.4941 986.385 117.488C1014.1 139.284 1038.06 165.227 1063.41 189.626C1091.72 216.883 1122.37 241.812 1158.01 258.908C1202.32 280.173 1251.99 289.896 1300.93 290.91C1352.4 291.993 1402.23 282.316 1449.93 263.17C1492.07 246.235 1532.55 223.841 1576.97 213.219C1618.53 203.289 1659.68 207.459 1698.83 224.417C1744.98 244.415 1783.68 277.754 1829.4 298.467C1852.62 308.996 1878.12 315.932 1903.24 308.144C1905.01 307.591 1905.77 310.379 1904 310.932H1903.98Z" fill="#00D800"/>
<path d="M1894.78 322.077C1852.96 334.933 1810.09 305.258 1777.05 283.231C1738.22 257.357 1699.15 229.041 1652.95 218.12C1559.11 195.91 1474.76 261.758 1385.94 279.315C1300.49 296.203 1204.59 286.964 1127.78 244.109C1066.19 209.757 1022.09 152.848 962.121 116.422C924.888 93.8196 882.679 80.4794 839.548 75.1572C813.789 71.9777 787.524 71.8855 762.111 77.5533C741.951 82.0461 723.726 90.9165 705.202 99.7408C627.81 136.582 550.281 173.169 471.945 207.937C429.344 226.853 386.259 247.542 340.824 258.671C298.361 269.062 255.599 263.763 214.219 250.952C140.929 228.258 74.2975 188.076 7.94226 150.521C-42.5845 121.928 -97.051 91.7229 -156.241 88.0595C-226.398 83.705 -284.919 124.186 -329.732 174.644C-346.482 193.491 -361.55 213.72 -375.72 234.571C-376.757 236.092 -379.245 234.663 -378.208 233.119C-337.497 173.238 -284.528 109.671 -211.375 90.4557C-157.969 76.4244 -104.009 91.5386 -55.2795 114.095C1.65234 140.453 53.9301 175.727 110.056 203.628C155.744 226.346 203.022 248.694 253.641 257.749C278.132 262.127 302.739 263.325 327.277 258.694C351.814 254.063 373.449 246.252 395.636 237.497C483.327 202.868 568.644 161.281 653.846 120.984C685.641 105.939 717.897 86.7232 751.881 77.2077C796.555 64.697 844.985 70.0192 889.153 82.1152C924.98 91.9303 958.181 108.427 988.041 130.453C1014.93 150.291 1038.84 173.676 1064.21 195.311C1094.42 221.069 1127.23 243.626 1164.27 258.394C1208.56 276.066 1256.69 283.784 1304.22 284.084C1355.18 284.383 1404.33 274.73 1452 257.035C1493.31 241.69 1533.67 221.945 1577.33 214.042C1619.87 206.347 1661.04 213.489 1699.7 232.313C1743.15 253.441 1779.81 285.812 1822.85 307.516C1844.88 318.621 1869.55 326.892 1894.02 319.381C1895.79 318.828 1896.55 321.616 1894.78 322.169V322.077Z" fill="#00D800"/>
<path d="M1885.55 333.253C1847.1 345.003 1807.75 316.157 1778.07 295.375C1739.66 268.488 1701.83 238.835 1656.47 224.619C1563.8 195.612 1477.72 254.848 1389.06 272.013C1304.99 288.279 1211.29 281.62 1133.16 245.033C1070.88 215.864 1024.34 164.692 965.312 130.685C928.817 109.65 888.29 96.7936 846.726 90.5037C819.861 86.4256 792.328 84.9971 765.394 89.3517C743.875 92.8307 724.268 100.572 704.338 109.051C627.039 141.998 549.786 175.083 472.602 208.261C430.9 226.186 389.382 245.77 345.721 258.557C304.525 270.607 263.652 271.921 221.858 261.668C176.999 250.655 134.214 230.472 92.7878 210.427C63.3888 196.211 34.9803 180.037 6.57202 163.955C-45.9362 134.234 -101.048 101.056 -161.804 92.5311C-231.408 82.7852 -290.851 117.23 -336.632 167.365C-352.967 185.244 -367.505 204.644 -381.122 224.643C-382.159 226.163 -384.647 224.735 -383.61 223.191C-344.166 165.222 -291.704 104.696 -219.335 90.8031C-163.67 80.1126 -108.582 100.388 -59.3915 124.879C1.13464 154.993 58.0204 191.465 119.514 219.758C165.525 240.932 213.609 262.083 264.781 265.723C311.576 269.064 356.227 253.834 399.012 236.508C484.168 202.04 568.08 164.163 652.568 128.059C685.561 113.958 719.245 96.0102 754.473 88.4761C799.125 78.9376 846.541 84.9049 890.225 96.6784C926.052 106.332 959.552 122.045 990.173 142.943C1017.29 161.467 1042.01 183.194 1068.46 202.616C1099.89 225.679 1133.9 244.756 1171.04 256.945C1215.6 271.575 1262.94 277.588 1309.74 277.035C1359.46 276.436 1407.29 266.944 1454.29 251.046C1494.93 237.291 1535.21 220.265 1578.13 215.035C1621.98 209.69 1663.59 220.334 1701.99 241.37C1743.33 263.995 1778.44 296.389 1820.03 318.531C1839.89 329.106 1862.33 337.331 1884.77 330.488C1886.54 329.935 1887.3 332.723 1885.53 333.276L1885.55 333.253Z" fill="#00D800"/>
<path d="M1876.37 344.427C1839.85 355.532 1802.45 325.419 1775.2 305.19C1738.08 277.657 1701.7 247.659 1657.95 231.162C1567.24 196.971 1480.51 248.442 1392.2 264.893C1306.91 280.767 1212.58 275.514 1131.87 242.129C1070.33 216.67 1021.58 171.281 962.806 141.168C925.643 122.114 885.161 110.594 843.943 104.442C818.345 100.617 792.149 98.9355 766.367 102C744.433 104.603 723.927 111.147 703.376 118.911C626.261 148.034 549.284 177.594 473.045 208.951C429.43 226.9 386.438 247.474 341.325 261.483C301.604 273.809 262.022 276.897 221.149 268.556C176.359 259.432 133.896 240.562 92.309 222.107C61.228 208.306 31.3451 191.971 1.69263 175.359C-52.8892 144.762 -108.784 109.35 -171.015 97.0001C-199.147 91.4245 -228.223 91.8392 -255.687 100.64C-289.809 111.561 -318.84 134.025 -343.193 159.807C-359.252 176.811 -373.375 195.45 -386.531 214.758C-387.568 216.278 -390.056 214.85 -389.02 213.306C-351.211 157.78 -300.2 101.539 -230.021 91.8853C-172.236 83.9365 -115.904 108.704 -65.8606 134.809C-2.93835 167.641 57.127 204.297 122.607 232.176C166.613 250.907 212.693 268.786 261.031 270.699C307.595 272.565 351.97 256.276 394.409 238.857C477.929 204.574 561.196 170.037 645.545 137.804C680.681 124.372 716.463 107.529 753.672 100.986C798.577 93.0834 845.74 99.4885 889.562 110.663C924.352 119.533 957.323 133.449 988.035 151.997C1015.59 168.655 1041.14 188.354 1068.31 205.588C1141.37 251.898 1224.96 271.643 1311.15 270.031C1360.85 269.086 1408.7 259.962 1456.16 245.654C1497.17 233.282 1538.37 218.421 1581.55 216.324C1625 214.228 1665.43 227.775 1702.39 249.94C1742.32 273.901 1776.26 306.895 1816.85 329.704C1834.69 339.727 1855.08 347.86 1875.56 341.639C1877.33 341.109 1878.09 343.874 1876.32 344.427H1876.37Z" fill="#00D800"/>
<path d="M1867.15 355.583C1834.22 365.513 1800.75 337.428 1776.72 318.765C1740.54 290.679 1705.91 260.013 1664.1 240.383C1620.23 219.785 1573.62 217.758 1526.59 226.836C1482.38 235.36 1439.62 250.152 1395.22 257.963C1310.48 272.869 1218.29 269.114 1136.53 241.143C1104.55 230.199 1074.34 215.246 1045.17 198.266C1018.08 182.484 991.558 165.71 962.989 152.647C883.27 116.221 787.17 101.152 702.982 129.008C625.522 154.651 548.199 180.802 472.167 210.477C391.412 241.996 310.634 289.481 221.008 275.22C175.09 267.916 131.36 249.76 88.6436 232.066C57.217 219.048 27.0116 203.381 -2.73303 186.953C-59.6188 155.55 -116.435 117.972 -180.072 101.728C-208.042 94.586 -237.395 92.7197 -265.527 100.069C-298.175 108.594 -326.33 128.501 -349.692 152.37C-365.429 168.452 -379.16 186.308 -391.833 204.878C-392.869 206.399 -395.358 204.971 -394.321 203.427C-357.872 149.951 -308.036 98.1341 -239.815 92.904C-181.109 88.4112 -124.638 116.635 -74.4796 143.707C-44.0668 160.135 -14.2529 177.668 16.1829 194.027C51.7567 213.127 88.3441 229.416 125.991 244.069C168.984 260.797 214.027 275.842 260.66 275.542C307.777 275.22 352.567 256.857 395.375 238.908C477.328 204.579 560.434 173.844 644.622 145.435C680.057 133.477 715.931 118.916 753.14 113.755C798.391 107.488 844.978 114.009 889.122 124.515C923.798 132.786 957.021 145.32 988.448 162.07C1016 176.747 1042.11 193.981 1069.66 208.703C1145.83 249.415 1230.85 265.474 1316.88 262.893C1365.8 261.419 1412.98 252.479 1460.17 240.06C1501 229.324 1542.49 217.274 1585.11 218.38C1627.95 219.509 1667.09 235.614 1702.6 258.838C1740.59 283.675 1772.94 316.53 1811.78 340.031C1828.07 349.892 1847.15 358.601 1866.39 352.795C1868.16 352.265 1868.92 355.03 1867.15 355.583Z" fill="#00D800"/>
<path d="M1857.96 366.756C1827.34 375.926 1796.37 347.909 1774.74 330.168C1739.4 301.161 1705.73 269.642 1665.05 248.031C1624.36 226.419 1579.13 219.645 1533 225.152C1486.85 230.658 1442.13 244.367 1396.28 251.579C1311.38 264.942 1220.93 262.131 1138.03 238.4C1105.36 229.046 1073.95 216.12 1043.45 201.282C1015.27 187.574 987.6 172.897 958.27 161.677C876.478 130.388 782.89 116.541 697.803 140.895C621.195 162.829 544.656 185.27 469.822 212.779C389.367 242.34 308.957 291.922 220.253 281.462C176.684 276.324 134.959 261.002 94.1783 245.45C59.8717 232.363 26.8785 216.95 -5.42358 199.508C-64.6594 167.552 -122.167 128.246 -186.679 107.51C-214.466 98.57 -244.118 93.8468 -273.102 99.0999C-305.174 104.906 -333.237 122.486 -356.323 145.019C-371.783 160.11 -385.054 177.159 -397.219 194.969C-398.256 196.49 -400.744 195.062 -399.707 193.518C-363.995 141.194 -314.436 93.7777 -247.274 93.9851C-186.979 94.1924 -130.208 126.379 -79.0825 154.949C-48.0016 172.321 -17.2662 190.338 14.3907 206.697C51.923 226.096 90.9066 241.879 130.789 255.818C170.671 269.757 215.875 282.383 260.297 279.941C308.773 277.291 354.599 256.463 398.675 237.847C476.873 204.807 557.651 178.749 639.051 154.834C674.302 144.466 709.945 132.047 746.487 127.324C792.705 121.38 839.776 127.785 885.072 137.346C919.586 144.627 953.133 155.364 985.319 169.787C1013.04 182.228 1039.72 196.882 1067.43 209.3C1146.46 244.713 1231.99 258.514 1318.32 255.818C1366.56 254.297 1413.43 246.187 1460.45 235.819C1501.88 226.695 1544.2 217.065 1586.89 221.028C1629.61 225.014 1667.9 243.446 1702.55 267.983C1737.21 292.521 1769.42 326.32 1806.49 350.397C1821.35 360.051 1839.09 369.336 1857.18 363.922C1858.95 363.392 1859.71 366.157 1857.94 366.71L1857.96 366.756Z" fill="#00D800"/>
<path d="M1848.74 377.933C1819.87 386.527 1790.45 357.474 1770.87 340.401C1736.47 310.403 1703.73 278.308 1664.07 255.13C1624.03 231.721 1580.16 222.206 1534.01 224.924C1488.67 227.574 1444.27 238.794 1399.39 245.107C1314.19 257.065 1225.09 255.13 1141.11 235.638C1078.14 221.008 1020.73 192.553 959.558 172.785C921.726 160.551 882.673 152.648 843.344 147.141C793.071 140.091 744.641 140.183 695.128 152.233C618.842 170.826 542.511 189.696 468.138 215.109C425.767 229.579 385.148 248.057 343.468 264.254C304.116 279.552 264.211 290.404 221.633 287.524C179.055 284.644 136.5 271.074 95.8342 256.789C59.3618 243.979 24.272 228.956 -9.98853 210.962C-71.6666 178.545 -130.096 137.626 -195.576 112.973C-222.579 102.812 -251.54 95.8083 -280.57 98.5731C-312.066 101.568 -340.267 116.706 -363.215 138.064C-378.26 152.072 -391.024 168.223 -402.613 185.157C-403.65 186.678 -406.138 185.25 -405.102 183.706C-370.357 132.857 -321.766 90.8316 -256.747 95.4857C-194.861 99.9324 -137.653 135.598 -85.1681 165.643C-53.0734 184.028 -21.0476 202.622 12.1069 219.049C50.791 238.195 91.3185 253.194 132.491 266.051C174.032 279.022 217.578 288.768 261.307 283.976C308.609 278.792 353.099 257.526 396.437 239.278C474.151 206.562 555.736 183.913 637.412 163.454C674.622 154.146 712.131 143.086 750.47 139.838C796.25 135.967 843.091 142.971 887.996 151.657C922.21 158.27 955.687 167.624 988.312 179.858C1016.12 190.272 1043.35 202.207 1071.37 212.114C1151.94 240.615 1236.5 251.789 1321.82 248.909C1370.41 247.273 1417.82 239.532 1465.63 231.168C1505.28 224.233 1545.79 218.105 1585.99 224.026C1628.71 230.316 1666.61 250.66 1700.69 276.465C1734.76 302.27 1765.15 336 1800.98 361.068C1814.46 370.491 1831 380.306 1847.96 375.283C1849.73 374.754 1850.49 377.541 1848.72 378.071L1848.74 377.933Z" fill="#00D800"/>
<path d="M1834.21 389.411C1806.19 397.636 1777.28 365.772 1759.33 349.021C1725.37 317.341 1692.65 284.026 1652.75 259.649C1613.95 235.941 1571.05 224.905 1525.7 225.389C1481.84 225.85 1438.47 234.374 1395.02 239.42C1307.05 249.65 1216.48 248.014 1129.49 230.734C1066.95 218.316 1007.37 195.944 945.603 180.852C904.868 170.899 863.281 164.172 821.648 159.425C773.172 153.919 727.046 155.9 679.238 165.554C600.372 181.475 521.345 197.741 444.875 223.131C363.958 250.019 287.166 300.015 198.877 292.251C155.861 288.472 114.182 275.316 73.4238 261.723C37.228 249.65 2.57581 234.443 -31.1779 216.634C-92.8789 184.078 -150.848 142.998 -215.567 116.41C-241.51 105.765 -269.388 97.6089 -297.681 98.7609C-327.564 99.982 -354.729 112.792 -376.824 132.607C-390.832 145.187 -402.629 159.955 -413.25 175.484C-414.287 177.005 -416.775 175.576 -415.738 174.033C-382.63 125.603 -336.112 89.4989 -274.826 96.8717C-213.539 104.244 -157.759 140.855 -105.781 171.199C-73.986 189.746 -42.1677 208.339 -9.17444 224.698C29.2793 243.752 69.2998 258.152 110.357 270.547C151.414 282.943 195.467 293.149 239.289 289.716C286.59 286.007 330.873 265.363 373.981 247.116C452.34 213.961 534.5 192.833 617.583 175.254C654.539 167.443 691.933 158.227 729.557 154.472C776.72 149.748 824.228 155.992 870.815 163.227C906.02 168.71 940.903 175.991 975.209 185.668C1003.78 193.732 1031.96 203.109 1060.55 211.104C1143.29 234.213 1227.77 244.535 1313.69 242.254C1360.6 241.01 1406.73 235.066 1453.17 228.868C1493.38 223.499 1534.37 219.076 1574.64 226.264C1616.18 233.683 1653.09 253.751 1686.18 279.372C1721.73 306.881 1751.29 341.096 1786.45 368.974C1799.24 379.112 1816.22 391.668 1833.45 386.623C1835.22 386.093 1835.98 388.881 1834.21 389.411Z" fill="#00D800"/>
<path d="M1830.35 400.254C1819.45 403.41 1809.01 398.94 1799.84 393.111C1784.15 383.135 1770.84 369.38 1757.75 356.339C1724.96 323.623 1692.87 289.915 1653.77 264.548C1615.76 239.895 1573.29 226.947 1528.09 225.242C1483.74 223.56 1439.48 230.103 1395.38 233.905C1307.57 241.439 1218.48 239.895 1131.39 225.979C1068.21 215.888 1006.16 200.059 943.149 189.184C901.7 182.042 859.905 176.466 818.064 172.296C769.012 167.411 722.287 170.107 673.719 177.964C593.494 190.912 512.854 204.229 435.37 229.343C391.871 243.443 350.974 263.88 308.097 279.593C268.261 294.201 228.263 300.928 185.893 296.435C141.91 291.781 98.7325 278.787 56.8689 265.055C22.2167 253.696 -10.9609 238.259 -43.1017 221.118C-103.95 188.654 -160.79 148.058 -223.758 119.626C-249.195 108.153 -276.658 98.5679 -304.859 98.2684C-333.037 97.9689 -359.118 108.544 -380.269 126.976C-393.056 138.128 -403.747 151.353 -413.308 165.315C-414.345 166.835 -416.857 165.407 -415.797 163.863C-399.531 140.086 -379.44 117.829 -352.897 105.503C-331.632 95.6188 -308.131 93.5452 -285.114 97.0473C-224.749 106.217 -169.868 143.865 -118.535 174.485C-86.6934 193.493 -54.7368 212.409 -21.5361 229.02C16.1572 247.89 55.1178 262.106 95.553 273.925C138.453 286.459 183.036 297.219 228.079 294.8C276.302 292.196 320.907 271.967 364.683 253.328C443.71 219.666 526.217 200.105 610.658 185.429C648.052 178.931 685.769 171.605 723.554 167.987C772.814 163.264 821.981 169.278 870.826 175.545C935.085 183.793 997.938 197.248 1061.37 210.105C1144.98 227.062 1228.59 236.647 1314.05 235.149C1361.23 234.32 1407.93 229.619 1454.89 225.334C1495.72 221.625 1537.26 219.436 1577.56 228.56C1618.96 237.937 1655.52 259.548 1688.1 286.229C1723.08 314.867 1751.88 349.98 1786.23 379.195C1797.61 388.872 1813.48 402.097 1829.57 397.42C1831.34 396.913 1832.1 399.678 1830.33 400.208L1830.35 400.254Z" fill="#00D800"/>
<path d="M1821.14 411.426C1810.86 414.375 1801.07 409.422 1792.75 403.616C1778.35 393.524 1766.19 380.184 1754.16 367.466C1721.74 333.137 1689.95 298.001 1651.01 270.859C1612.07 243.718 1571.89 229.71 1526.85 225.54C1482.84 221.462 1438.49 225.747 1394.53 228.305C1303.84 233.604 1212.81 232.129 1122.61 220.886C1059.39 213.006 996.236 204.758 932.876 198.053C890.875 193.606 848.85 188.906 806.755 185.312C759.362 181.28 713.513 183.999 666.396 189.759C583.406 199.919 499.517 210.126 419.614 235.885C375.516 250.1 334.389 271.735 290.729 287.103C251.008 301.111 210.918 305.949 169.054 301.134C89.1287 291.918 10.4932 264.132 -60.0323 226.023C-120.697 193.238 -176.983 152.295 -239.03 122.044C-286.654 98.8197 -342.917 83.4751 -387.938 120.593C-399.965 130.5 -409.895 142.596 -418.673 155.406C-419.71 156.927 -422.221 155.498 -421.161 153.954C-406.416 132.412 -387.938 112.575 -363.469 102.253C-342.48 93.4053 -319.463 93.0597 -297.414 97.6677C-237.924 110.063 -184.541 148.54 -133.622 179.69C-66.7369 220.609 0.585938 257.104 76.4567 278.393C120.025 290.628 165.068 301.526 210.642 300.212C258.772 298.853 302.779 280.26 346.37 261.528C387.428 243.88 428.531 228.719 472.076 218.282C513.364 208.375 555.297 201.44 597.322 195.634C636.19 190.265 675.312 184.644 714.434 181.464C763.21 177.478 811.479 182.708 860.001 187.616C926.034 194.321 992.02 201.348 1057.87 209.688C1142.33 220.379 1225.9 229.203 1311.22 228.258C1358.66 227.728 1405.82 224.157 1453.19 221.922C1493.99 220.01 1535.46 220.194 1575.12 231.208C1616.98 242.866 1653.57 266.344 1686.08 294.729C1719.83 324.197 1747.55 359.609 1780.54 389.792C1790.56 398.962 1805.42 412.878 1820.4 408.569C1822.17 408.063 1822.96 410.827 1821.16 411.357L1821.14 411.426Z" fill="#00D800"/>
<path d="M1811.94 422.582C1802.34 425.301 1793.33 419.979 1785.91 414.311C1771.85 403.62 1760.15 389.727 1748.49 376.571C1716.81 340.836 1685.31 304.641 1646.68 276.117C1610.6 249.506 1569.54 232.502 1525.21 225.936C1481.07 219.393 1436.07 221.581 1391.65 222.895C1299.76 225.613 1208.18 224.139 1116.57 216.512C1052.77 211.213 988.954 210.822 925.064 207.826C881.311 205.776 837.742 201.537 794.059 198.403C746.804 194.993 700.47 197.988 653.376 201.951C568.52 209.094 481.959 216.259 400.72 243.446C356.114 258.376 314.666 281.37 269.876 295.839C230.385 308.603 190.019 310.977 148.985 305.7C68.5521 295.402 -8.63184 268.767 -79.3877 229.599C-138.854 196.698 -193.827 156.033 -253.939 124.329C-296.678 101.796 -350.73 80.9221 -394.229 113.201C-406.095 122.002 -415.679 133.407 -423.997 145.526C-425.034 147.047 -427.545 145.595 -426.485 144.075C-413.053 124.491 -395.934 106.819 -373.194 98.5017C-352.965 91.1058 -331.008 92.4652 -310.479 97.8796C-252.487 113.109 -200.97 151.862 -150.996 183.358C-86.8065 223.793 -20.7047 262.109 53.0233 282.154C97.7208 294.319 143.755 305.562 190.342 305.677C238.726 305.793 282.617 289.503 326.439 270.564C367.727 252.731 408.346 236.212 452.306 226.005C494.539 216.213 537.577 210.246 580.662 205.684C620.66 201.467 660.841 197.827 700.977 195.085C750.651 191.675 799.519 196.076 849.009 200.016C915.756 205.338 982.526 205.799 1049.36 209.024C1087.1 210.845 1124.73 214.554 1162.42 217.042C1210.32 220.222 1258.27 221.581 1306.26 221.42C1354.69 221.236 1403.05 218.793 1451.46 218.655C1492.31 218.54 1533.57 221.167 1572.63 234C1613.64 247.455 1649.42 271.901 1681.05 300.862C1714.41 331.413 1741.58 367.586 1773.56 399.427C1782.57 408.39 1796.83 423.849 1811.16 419.771C1812.96 419.264 1813.72 422.052 1811.92 422.559L1811.94 422.582Z" fill="#00D800"/>
<path d="M1802.74 433.754C1794.03 436.173 1785.99 430.851 1779.49 425.552C1765.53 414.193 1754.15 399.471 1742.7 385.716C1712.49 349.451 1682.1 313.14 1645.03 283.579C1608.97 254.826 1567.34 235.034 1522.16 225.726C1477.69 216.556 1431.91 216.556 1386.73 217.409C1337.03 218.353 1287.1 218.353 1237.43 216.395C1195.7 214.759 1153.75 210.289 1111.95 212.317C1047.93 215.404 984.29 221.487 920.1 219.736C875.057 218.492 830.152 214.759 785.201 211.879C738.153 208.861 691.543 211.165 644.542 213.377C557.796 217.478 468.217 221.049 385.434 249.734C340.322 265.355 298.481 289.409 252.678 303.187C212.196 315.375 170.402 316.135 128.745 310.444C48.5203 299.5 -26.7515 273.857 -97.0925 234.043C-155.891 200.751 -209.965 159.901 -268.625 126.447C-307.517 104.259 -360.601 78.0396 -402.695 107.439C-413.409 114.927 -422.002 124.949 -429.352 135.663C-430.389 137.183 -432.9 135.732 -431.841 134.211C-419.676 116.493 -403.824 100.872 -382.789 94.5593C-363.251 88.7071 -342.399 91.7254 -323.345 97.854C-266.897 116.056 -217.223 155.062 -168.079 187.019C-105.272 227.846 -39.769 266.968 32.9452 287.22C78.6796 299.961 126.741 310.559 174.388 311.158C222.818 311.757 266.663 297.012 310.6 277.912C352.464 259.71 393.222 241.969 437.988 232.108C480.336 222.777 523.605 217.985 566.828 214.828C608.415 211.787 650.118 209.99 691.774 208.123C742.162 205.889 791.837 209.667 842.041 212.962C910.424 217.455 977.908 217.823 1046.24 213.423C1083.5 211.026 1120.62 208.123 1157.99 209.598C1205.8 211.487 1253.4 214.275 1301.27 214.644C1350.1 215.012 1399.08 212.962 1447.85 214.69C1488.84 216.141 1529.97 221.441 1568.49 236.094C1609.25 251.6 1644.73 276.944 1676.04 307.011C1709.36 338.991 1736.18 376.477 1767.6 410.138C1775.39 418.502 1788.75 434.653 1801.96 430.989C1803.75 430.483 1804.51 433.27 1802.72 433.777L1802.74 433.754Z" fill="#00D800"/>
<path d="M1793.54 444.931C1785.08 447.235 1777.41 440.968 1771.56 435.623C1758.45 423.665 1747.76 408.827 1736.88 394.911C1707.41 357.264 1677.35 319.87 1640.62 288.95C1605.14 259.09 1564.22 237.732 1519.18 226.465C1475.01 215.429 1429.18 213.217 1383.86 211.996C1332.64 210.637 1281.4 211.121 1230.19 209.462C1187.58 208.079 1144.68 204.762 1102.15 209.001C1037.25 215.475 973.22 228.816 907.833 230.083C861.845 230.981 816.065 227.502 770.192 225.014C744.756 223.632 719.573 224.323 694.114 224.576C673.125 224.783 652.181 222.871 631.215 222.272C544.193 219.876 452.609 225.383 370.333 255.957C324.276 273.075 281.214 298.143 233.567 310.953C193.916 321.621 152.72 321.321 112.239 315.93C69.5226 310.239 26.3916 301.138 -14.1588 286.416C-49.0643 273.744 -82.4032 257.132 -114.498 238.515C-172.996 204.601 -226.495 163.105 -284.026 127.739C-318.955 106.266 -370.634 75.3231 -410.977 101.381C-420.63 107.625 -428.28 116.334 -434.731 125.735C-435.768 127.255 -438.279 125.804 -437.219 124.283C-426.252 108.316 -411.599 94.7457 -392.245 90.3681C-372.892 85.9905 -353.031 90.852 -335.083 97.9023C-280.178 119.468 -232.232 158.774 -183.664 191.399C-121.226 233.331 -55.5846 272.891 17.314 293.581C62.6106 306.437 110.787 315.792 157.95 316.759C205.113 317.727 249.465 304.986 293.103 286.047C336.74 267.108 376.3 248.377 421.297 237.663C464.267 227.433 508.435 222.364 552.51 220.176C594.42 218.102 635.892 220.106 677.732 221.535C702.984 222.387 728.236 220.268 753.511 221.304C777.887 222.318 802.195 224.231 826.548 225.498C866.822 227.571 907.28 228.401 947.508 225.336C978.612 222.963 1009.39 217.941 1040.27 213.609C1076.55 208.517 1112.96 203.84 1149.66 204.094C1197.84 204.416 1245.94 207.296 1294.12 207.665C1344.14 208.056 1394.41 208.033 1444.3 212.042C1485.33 215.36 1526.27 222.364 1564.4 238.354C1604.98 255.358 1640.11 282.038 1670.99 313.096C1703.89 346.181 1730.2 384.451 1760.54 419.725C1767.36 427.651 1780.33 445.484 1792.75 442.12C1794.55 441.636 1795.31 444.401 1793.51 444.908L1793.54 444.931Z" fill="#00D800"/>
<path d="M1784.33 456.085C1776.47 458.182 1769.47 451.477 1764.37 446.409C1752.07 434.105 1742.09 419.244 1731.82 405.282C1702.05 364.824 1671.29 324.873 1633.23 291.741C1597.75 260.867 1556.6 238.242 1511.37 225.294C1466.14 212.345 1419.63 208.428 1373.2 206.124C1321.54 203.567 1269.82 203.383 1218.12 203.129C1176.28 202.945 1134.23 202.438 1092.48 205.295C1027.65 209.742 966.683 232.966 902.263 239.463C855.929 244.14 809.665 241.076 763.308 238.657C737.204 237.298 711.192 237.966 685.088 237.321C663.522 236.791 642.026 234.164 620.484 232.966C532.217 228.035 437.408 229.648 354.21 262.849C308.844 280.958 265.714 305.842 218.044 317.73C178.046 327.706 136.459 327.038 95.8396 321.808C53.0543 316.302 10.223 307.57 -30.2814 292.57C-64.8875 279.737 -97.9497 263.01 -129.699 244.233C-188.244 209.603 -241.443 167.233 -297.983 129.632C-329.11 108.942 -379.176 73.1606 -417.998 94.5878C-427.122 99.6335 -434.242 107.398 -440.094 115.9C-441.131 117.42 -443.642 115.969 -442.582 114.448C-432.698 100.094 -419.242 88.6895 -401.548 86.086C-383.853 83.4825 -364.868 89.6112 -348.487 97.0531C-294.112 121.775 -246.926 162.579 -198.174 196.402C-136.357 239.302 -70.8087 279.115 1.99768 300.174C46.9027 313.168 95.0103 321.463 141.758 322.615C189.129 323.79 232.72 312.823 276.012 294.16C318.798 275.705 359.993 254.601 405.612 243.841C449.688 233.45 495.169 229.441 540.35 228.519C583.297 227.644 625.875 230.547 668.66 233.68C694.557 235.57 720.569 233.888 746.489 234.97C772.409 236.053 796.486 237.897 821.531 238.749C862.588 240.131 903.691 238.265 944.057 230.339C973.272 224.602 1001.84 216.055 1031.08 210.387C1067.32 203.337 1103.98 201.24 1140.82 200.572C1188.81 199.673 1236.83 200.203 1284.82 200.71C1374.84 201.655 1472.46 200.917 1556.21 238.519C1598.23 257.388 1634.43 285.981 1665.99 319.251C1697.56 352.521 1724.38 392.518 1753.52 429.405C1759.35 436.778 1772.05 456.362 1783.57 453.298C1785.36 452.814 1786.12 455.602 1784.33 456.085Z" fill="#00D800"/>
<path d="M1775.13 467.254C1767.55 469.212 1760.87 461.402 1756.45 456.448C1744.58 443.108 1734.93 427.694 1724.79 413.041C1696.17 371.684 1666.01 331.18 1628.83 297.034C1593.94 265.009 1553.35 240.471 1508.47 225.288C1463.95 210.243 1417.04 203.93 1370.36 200.428C1317.99 196.488 1265.44 196.119 1212.96 196.442C1170.77 196.695 1128.15 197.133 1086.21 202.34C1019.51 210.611 959.101 241.946 892.677 250.954C846.689 257.198 800.47 254.548 754.321 252.244C706.582 249.848 658.797 248.558 611.059 245.793C518.899 240.471 421.693 234.342 334.855 271.299C291.286 289.846 249.307 313.623 202.859 324.429C160.811 334.198 117.196 332.931 74.6412 327.355C32.8467 321.871 -8.3949 313.277 -47.8164 298.186C-82.2611 285.03 -115.093 267.981 -146.566 248.858C-204.189 213.814 -256.351 171.259 -310.956 131.907C-331.116 117.368 -351.921 102.669 -374.777 92.6694C-390.582 85.7574 -409.59 80.4352 -426.041 88.3149C-434.128 92.1856 -440.395 98.729 -445.418 106.033C-446.454 107.553 -448.966 106.102 -447.906 104.581C-425.488 72.0717 -390.145 80.5274 -359.824 96.8166C-307.661 124.833 -262.296 165.545 -214.419 200.013C-153.501 243.881 -88.4128 284.178 -16.0443 306.043C29.4366 319.775 78.3047 327.47 125.767 328.714C173.229 329.958 217.443 320.189 260.966 301.504C304.166 282.957 345.499 259.917 391.787 249.802C438.074 239.688 481.205 238.582 526.064 239.273C622.279 240.794 718.333 250.033 814.548 251.968C856.204 252.82 897.86 249.641 938.227 238.927C967.948 231.048 996.518 219.505 1026.15 211.348C1107.69 188.884 1196.09 192.732 1279.84 193.769C1371.15 194.921 1469.09 198.861 1552.38 240.379C1594.01 261.138 1629.86 291.044 1660.99 325.396C1692.12 359.749 1718.27 399.977 1745.92 438.223C1750.59 444.698 1763.77 467.231 1774.42 464.489C1776.21 464.028 1776.97 466.793 1775.18 467.277L1775.13 467.254Z" fill="#00D800"/>
<path d="M1765.94 478.429C1758.66 480.226 1752.35 471.287 1748.57 466.494C1737.56 452.601 1728.43 437.141 1718.8 422.281C1690.3 378.436 1659.64 335.742 1621.62 299.57C1587.2 266.807 1546.97 240.956 1502.5 224.068C1458.06 207.179 1410.87 198.908 1363.69 194.369C1310.42 189.231 1256.74 188.793 1203.26 189.876C1160.5 190.752 1116.93 192.295 1074.88 200.728C1010.3 213.676 954.59 251.785 889.64 263.166C844.712 271.046 798.955 268.097 753.658 266.116C703.661 263.95 653.803 260.747 603.967 256.185C510.817 247.683 412.643 237.891 324.515 276.069C280.463 295.146 238.184 319.453 191.067 330.397C149.365 340.097 106.073 339.429 63.7714 334.475C21.47 329.522 -20.8083 320.951 -60.9901 305.491C-95.8496 292.082 -129.05 274.663 -160.753 255.01C-217.893 219.552 -269.433 176.536 -322.31 135.225C-342.355 119.558 -362.768 103.591 -385.255 91.4953C-399.24 83.9612 -417.327 75.8051 -433.363 81.6342C-440.735 84.3068 -446.38 89.7903 -450.781 96.1494C-451.818 97.67 -454.329 96.2185 -453.269 94.6978C-432.257 64.3311 -397.144 80.2748 -371.823 95.9881C-320.881 127.645 -276.276 169.394 -228.261 205.152C-167.32 250.54 -101.518 291.667 -28.2273 313.693C17.6683 327.494 66.9739 334.498 114.851 335.12C161.323 335.719 205.053 326.434 247.7 308.117C292.236 288.994 334.653 263.996 382.576 254.066C427.273 244.803 473.492 244.619 518.904 246.831C564.246 249.043 609.336 254.296 654.563 257.706C707.44 261.692 760.616 264.272 813.631 265.401C854.62 266.277 895.492 261.968 934.407 248.651C963.46 238.698 990.786 224.436 1019.52 213.653C1098.64 183.978 1187.2 185.867 1270.42 186.743C1364.03 187.733 1463.34 195.843 1547.11 241.371C1588.95 264.111 1624.89 295.63 1655.93 331.526C1687.24 367.745 1712.4 408.111 1738.87 447.832C1742.86 453.799 1755.55 478.014 1765.21 475.641C1767 475.203 1767.76 477.968 1765.97 478.429H1765.94Z" fill="#00D800"/>
<path d="M1756.73 489.577C1750.44 491.028 1745.23 482.757 1742.15 478.587C1731.18 463.749 1722.31 447.275 1712.7 431.562C1685.05 386.335 1654.75 342.443 1617.22 304.773C1583.65 271.042 1544.42 243.556 1500.8 224.41C1457.19 205.263 1406.48 193.858 1357.38 188.168C1303.97 181.97 1249.92 181.509 1196.24 183.375C1153.27 184.873 1109.47 187.891 1067.76 198.95C1002.91 216.138 949.454 260.191 883.583 274.314C837.987 284.106 790.87 281.779 744.605 279.682C693.733 277.378 643.252 272.241 592.726 265.997C544.826 260.075 496.672 254.292 448.334 254.454C424.211 254.546 399.973 256.09 376.242 260.605C351.889 265.236 329.309 273.899 306.799 284.129C263.162 303.967 220.975 327.675 173.651 337.72C130.083 346.959 85.0393 345.784 41.0328 340.416C0.136841 335.416 -39.4918 326.615 -77.8535 311.409C-112.413 297.7 -145.292 280.028 -176.603 260.052C-233.696 223.649 -284.96 179.505 -336.685 136.028C-355.808 119.946 -375.023 103.565 -396.082 90.0172C-408.431 82.0684 -425.089 71.6082 -440.549 74.9029C-447.254 76.3314 -452.369 80.709 -456.193 86.2156C-457.253 87.7362 -459.741 86.2847 -458.682 84.7641C-438.982 56.4018 -402.994 81.0777 -382.719 95.6389C-334.703 130.13 -291.826 171.579 -245.124 207.821C-184.068 255.214 -117.413 297.792 -42.9709 320.602C2.02612 334.402 50.0646 340.808 97.0431 341.614C142.202 342.397 185.816 334.794 227.634 317.629C274.175 298.506 317.812 270.443 367.395 259.476C412.875 249.431 460.292 250.376 506.464 253.901C552.636 257.426 599.661 264.476 646.317 269.499C699.493 275.236 753.176 278.254 806.652 278.554C848.516 278.807 890.011 273.116 928.925 257.242C958.947 245.007 986.525 227.681 1016.06 214.387C1093.45 179.551 1181.97 178.813 1265.33 179.712C1360.63 180.726 1460.09 193.352 1543.31 242.98C1628.21 293.599 1681.25 375.183 1731.8 457.436C1735.07 462.758 1747.54 488.701 1755.95 486.766C1757.74 486.351 1758.53 489.116 1756.71 489.554L1756.73 489.577Z" fill="#00D800"/>
<path d="M1747.54 500.754C1741.5 502.044 1736.5 492.298 1733.96 488.381C1724.15 473.267 1715.9 457.093 1706.94 441.472C1680.54 395.461 1651.11 350.924 1614.83 312.033C1547.2 239.572 1459.01 198.077 1361.64 183.331C1306.37 174.968 1250.06 174.161 1194.3 176.765C1150.89 178.793 1106.77 183.17 1065.11 196.188C1000.14 216.486 948.647 264.455 883.052 283.002C837.824 295.79 790.546 295.928 743.936 293.716C692.119 291.251 641.04 284.753 589.822 276.782C538.604 268.81 491.095 261.276 441.167 260.009C416.054 259.363 390.71 260.377 365.965 264.962C341.566 269.478 319.102 278.533 296.661 288.947C252.677 309.36 210.238 333.46 162.406 343.874C118.331 353.459 72.7579 352.86 28.1294 347.791C-51.4047 338.782 -123.635 309.821 -190.474 266.252C-247.659 228.974 -298.739 183.7 -349.243 138.012C-368.066 120.985 -386.752 103.567 -407.004 88.2454C-417.971 79.951 -433.293 67.4863 -448.038 68.3388C-453.821 68.6844 -458.268 71.6565 -461.54 76.3336C-462.6 77.8312 -465.088 76.4028 -464.028 74.8822C-446.426 49.6764 -410.575 81.4025 -395.392 93.7289C-348.114 132.137 -305.167 175.59 -257.59 213.721C-197.271 262.082 -130.685 305.006 -56.3123 328.023C-11.0156 342.031 37.2072 348.137 84.5314 348.505C130.588 348.851 175.171 340.833 217.703 323.046C264.082 303.646 307.651 274.662 357.21 263.81C403.151 253.742 451.236 256.138 497.685 261.068C601.664 272.128 704.054 296.504 809.37 291.458C851.303 289.454 892.06 280.491 929.754 261.783C958.715 247.406 985.28 228.697 1014.1 214.044C1091.43 174.691 1181.67 171.512 1266.74 172.871C1363.39 174.415 1462.21 192.87 1543.75 247.383C1626.02 302.379 1678.14 385.162 1726.13 469.465C1728.55 473.705 1740.19 499.394 1746.82 497.989C1748.62 497.597 1749.4 500.385 1747.58 500.777L1747.54 500.754Z" fill="#00D800"/>
<path d="M1738.31 511.933C1732.85 512.924 1728.45 502.74 1726.44 499.261C1717.02 482.926 1708.84 465.853 1699.88 449.264C1674.21 401.871 1645.02 356.159 1609.08 315.839C1541.73 240.314 1452.8 193.221 1353.2 176.701C1297.83 167.508 1240.99 166.84 1185.07 170.572C1141.73 173.475 1097.87 179.742 1057.13 195.409C992.25 220.362 943.083 273.469 876.428 294.597C832.076 308.651 785.144 309.619 739.041 307.476C685.611 305.011 633.333 296.417 580.848 286.602C530.091 277.109 479.011 267.317 427.287 265.221C403.256 264.253 378.995 264.944 355.287 269.299C329.758 273.999 306.234 284.275 282.941 295.472C239.027 316.577 196.518 340.354 148.433 350.745C103.321 360.491 56.6881 359.961 11.0228 354.869C-67.4974 346.137 -139.428 315.77 -204.816 272.11C-262.139 233.817 -313.127 187.253 -362.409 139.307C-380.565 121.658 -398.398 103.618 -417.383 86.8449C-427.613 77.7901 -441.16 63.9892 -455.422 61.8235C-460.168 61.1092 -464.154 62.4225 -466.965 66.4315C-468.025 67.9291 -470.513 66.5006 -469.453 64.9799C-453.993 43.0228 -416.599 83.458 -406.07 93.2039C-361.004 134.929 -318.61 179.304 -271.286 218.611C-211.659 268.124 -145.165 311.669 -70.7461 335.17C-25.9103 349.34 21.5522 355.261 68.4617 355.583C115.371 355.906 158.571 348.51 200.803 331.438C249.164 311.877 293.885 280.22 345.172 268.446C391.436 257.825 440.235 261.58 486.822 267.801C592.115 281.855 694.988 311.116 802.263 304.688C844.887 302.131 885.99 291.809 923.407 270.981C952.138 254.968 977.919 234.347 1006.07 217.39C1081.09 172.231 1169.5 165.089 1255.25 165.78C1355.45 166.586 1456.05 188.935 1538.51 248.079C1619.65 306.324 1672.74 390.812 1718.24 477.926C1719.95 481.198 1732.23 510.067 1737.5 509.099C1739.32 508.776 1740.08 511.541 1738.26 511.887L1738.31 511.933Z" fill="#00D800"/>
<path d="M1728.73 523.153C1723.78 523.821 1719.12 510.596 1717.67 507.693C1708.75 489.814 1700.44 471.658 1691.27 453.895C1666.13 405.096 1636.8 358.186 1600.83 316.576C1533.21 238.332 1443.06 186.538 1340.94 169.212C1285.23 159.743 1227.47 159.559 1171.3 165.065C1126.9 169.42 1082.53 178.682 1042.32 198.565C979.745 229.508 933.411 285.472 866.019 307.706C820.723 322.636 772.316 323.534 725.13 320.839C673.451 317.889 623.062 307.406 572.605 296.439C522.147 285.472 468.856 273.468 415.933 270.358C392.133 268.952 367.987 269.298 344.509 273.699C319.257 278.445 295.94 289.135 272.993 300.425C229.724 321.714 187.791 345.445 140.444 356.574C93.0964 367.702 44.0211 367.679 -4.04028 362.449C-82.4685 353.901 -154.86 322.014 -219.533 277.639C-276.235 238.724 -326.485 191.469 -373.994 141.956C-392.126 123.04 -409.775 103.663 -428.115 84.932C-437.953 74.8865 -449.357 60.9704 -462.721 55.4868C-466.062 54.1275 -469.863 53.2059 -472.282 56.5928C-473.342 58.0904 -475.854 56.6619 -474.771 55.1413C-462.168 37.4696 -422.93 86.0609 -416.295 93.019C-373.256 138.131 -331.024 183.866 -283.608 224.508C-223.98 275.611 -156.68 320.078 -81.1782 343.648C8.3092 371.596 111.321 371.849 197.928 334.156C244.193 314.019 287.877 283.03 337.712 272.109C383.147 262.156 430.978 267.132 476.413 274.39C582.881 291.416 686.146 325.884 795.379 318.051C838.279 314.963 879.429 303.535 916.269 281.095C945.277 263.423 970.667 240.705 998.499 221.352C1072.25 170.042 1160.1 158.499 1248.11 158.844C1350.64 159.213 1451.33 185.709 1533.49 248.746C1615.1 311.369 1668.99 399.727 1712.85 491.173C1714.28 494.145 1724.56 520.803 1728.71 520.25C1730.53 519.996 1730.53 522.899 1728.71 523.13L1728.73 523.153Z" fill="#00D800"/>
<path d="M1719.53 534.303C1715.02 534.487 1711.1 520.594 1709.83 517.714C1701.56 498.89 1693.38 480.044 1684.37 461.565C1659.65 410.808 1630.18 362.033 1594.01 318.579C1527.17 238.262 1437.75 181.353 1334.35 162.483C1277.23 152.046 1217.21 152.23 1159.73 159.788C1116.3 165.501 1073.61 177.16 1035.4 199.048C973.589 234.46 929.306 294.249 861.038 319.201C764.754 354.406 657.664 329.178 561.956 305.493C510.093 292.659 457.654 279.204 404.201 275.218C380.931 273.467 357.245 273.536 334.252 277.891C307.825 282.913 283.402 294.986 259.602 307.105C216.471 329.062 174.423 352.586 126.915 363.807C78.692 375.212 28.3727 375.442 -20.6796 369.935C-98.1169 361.249 -170.232 328.072 -233.477 283.558C-290.363 243.538 -340.544 194.808 -386.808 143.084C-404.411 123.407 -421.391 103.201 -438.51 83.1335C-448.325 71.6135 -458.232 57.7895 -470.628 48.85C-471.987 47.8592 -476.019 44.5185 -477.632 46.7073C-478.715 48.1818 -481.226 46.7533 -480.12 45.2557C-471.273 33.2058 -431.022 87.5111 -426.829 92.4417C-386.094 140.48 -344.184 187.505 -296.998 229.368C-238.062 281.646 -170.831 326.828 -95.2831 350.95C-5.68054 379.566 97.6077 379.082 184.422 341.435C231.977 320.814 276.513 287.821 327.593 276.301C373.396 265.979 422.034 272.499 467.561 281.07C575.135 301.322 679.068 340.928 790.328 331.297C834.174 327.496 875.761 314.179 912.302 289.457C941.747 269.55 967.045 244.39 995.108 222.733C1025.89 198.979 1059.9 180.708 1097.27 169.718C1143.79 156.032 1192.86 152.023 1241.15 151.931C1346.21 151.7 1446.97 182.459 1528.78 249.459C1610.11 316.045 1664.95 408.02 1706.56 503.222C1707.74 505.917 1717.09 531.538 1719.49 531.469C1721.33 531.4 1721.33 534.28 1719.49 534.349L1719.53 534.303Z" fill="#00D800"/>
<path d="M1709.95 545.432C1706.26 544.648 1703.03 530.479 1702.07 527.944C1694.32 507.83 1686.1 487.924 1677.07 468.363C1652.83 415.924 1623.34 365.559 1587.23 320.4C1520.49 236.926 1430.13 174.349 1323.82 154.904C1266.66 144.444 1205.85 145.158 1148.6 154.858C1105.72 162.115 1064.39 176.4 1027.89 200.362C966.745 240.497 924.075 304.111 854.263 331.367C756.274 369.637 648.77 341.205 552.002 314.433C499.908 300.01 447.193 284.872 393.164 279.919C369.202 277.707 344.642 277.546 321.026 282.637C294.622 288.305 270.015 301.415 246.284 313.903C203.291 336.528 161.082 359.845 113.481 371.249C65.2587 382.792 14.6859 383.507 -34.4124 377.862C-112.541 368.876 -185.209 334.708 -248.408 288.927C-305.639 247.478 -355.797 196.906 -400.864 142.669C-417.544 122.602 -433.511 101.981 -449.109 81.0605C-458.717 68.1581 -467.772 54.5415 -478.324 42.3533C-479.591 40.8788 -483.324 37.2845 -483.231 37.1463C-484.384 38.5978 -486.411 36.5472 -485.259 35.1188C-481.849 30.8103 -472.403 45.0951 -471.135 46.7309C-459.523 61.6839 -448.556 77.1437 -437.128 92.235C-397.983 143.914 -355.544 193.288 -307.528 236.972C-248.638 290.54 -180.624 336.344 -104.085 360.121C-13.4459 388.276 89.4507 385.557 176.358 346.458C224.626 324.755 270.43 289.619 323.053 279.274C369.479 270.15 418.439 278.629 463.966 288.766C572.669 312.958 678.514 357.932 792.078 343.763C835.44 338.348 875.668 322.543 910.527 296.162C939.534 274.228 964.256 247.271 991.996 223.839C1022.27 198.242 1056.12 177.898 1093.83 165.341C1139.59 150.111 1188.37 145.273 1236.38 144.997C1293.59 144.651 1350.29 153.498 1403.49 175.064C1449.64 193.772 1491.87 221.052 1528.92 254.229C1607.03 324.225 1661.47 417.629 1699.79 514.351C1701.28 518.152 1708.52 542.229 1710.68 542.69C1712.5 543.082 1711.72 545.846 1709.92 545.478L1709.95 545.432Z" fill="#00D800"/>
<path d="M1699.74 555.587C1689.72 519.368 1674.61 484.048 1658.41 450.248C1623.5 377.442 1577.79 308.575 1518.53 253.279C1445.2 184.851 1351.79 143.125 1250.92 141.005C1195 139.83 1137.47 145.268 1085.1 166.096C1048.08 180.819 1015.68 203.605 986.769 230.792C962.094 253.971 939.814 279.637 914.124 301.756C887.191 324.934 856.593 342.767 822.287 352.444C713.699 383.064 606.632 341.799 503.275 311.501C447.334 295.097 386.554 277.195 327.641 283.946C280.455 289.36 238.638 318.39 197.557 340.117C152.514 363.941 105.42 381.151 54.502 386.658C-5.74768 393.201 -67.8867 387.441 -125.349 368.019C-221.333 335.578 -303.01 269.638 -370.079 195.173C-413.948 146.443 -453.484 92.8519 -485.901 35.7818C-487.56 32.8557 -489.242 29.9066 -490.809 26.9114C-491.661 25.2756 -489.196 23.8241 -488.321 25.4599C-465.672 68.4295 -436.895 108.934 -406.897 146.973C-345.519 224.825 -271.215 295.996 -182.073 341.016C-76.734 394.215 52.3131 403.201 161.131 354.771C202.557 336.339 240.458 310.856 282.298 293.277C331.374 272.679 384.757 279.338 435.376 290.581C496.939 304.244 556.336 325.809 617.139 342.283C670.707 356.798 725.45 364.263 780.884 357.628C821.158 352.789 859.358 339.057 892.375 315.303C920.161 295.304 943.293 269.891 967.347 245.722C992.852 220.102 1020.02 196.14 1051.81 178.607C1093.19 155.774 1139.66 144.531 1186.48 140.222C1241.96 135.13 1298.45 137.757 1352.18 153.24C1397.32 166.257 1439.69 187.754 1477.54 215.494C1545.4 265.214 1598.32 333.136 1638.94 406.265C1663.82 451.032 1685.11 498.471 1700.32 547.408C1701.08 549.85 1701.84 552.316 1702.53 554.781C1703.01 556.578 1700.25 557.338 1699.74 555.541V555.587Z" fill="#00D800"/>
</g>
</svg>
